999
"DXF R12 Output" (www.mydxf.blogspot.com)
 0 
SECTION
 2 
HEADER
 9 
$ACADVER
 1 
AC1009
 9 
$EXTMIN
 10 
 0 
 20 
 0 
 9 
$EXTMAX
 10 
 8.5 
 20 
 11 
 0 
ENDSEC
 0 
SECTION
 2 
ENTITIES
0
LINE
8
Layer 1
10
0.846666
20
317.647000
11
-0.846666
21
315.953000
0
LINE
8
Layer 1
10
0.000000
20
318.211000
11
0.000000
21
315.389000
0
LINE
8
Layer 1
10
2.257780
20
315.671000
11
1.128890
21
314.542110
0
LINE
8
Layer 1
10
1.693330
20
316.236000
11
0.564440
21
315.107110
0
LINE
8
Layer 1
10
1.128890
20
316.800000
11
0.000000
21
315.671110
0
LINE
8
0
10
55.326400
20
77.680800
11
161.993000
21
77.680800
0
LINE
8
0
10
55.326400
20
77.680800
11
55.326400
21
237.681000
0
LINE
8
0
10
161.993000
20
77.680800
11
161.993000
21
237.681000
0
LINE
8
0
10
55.326400
20
237.681000
11
161.993000
21
237.681000
0
LINE
8
0
10
83.326400
20
123.681000
11
83.319824
21
123.890301
0
LINE
8
0
10
83.319800
20
123.890000
11
83.300101
21
124.098477
0
LINE
8
0
10
83.300100
20
124.099000
11
83.267342
21
124.305826
0
LINE
8
0
10
83.267400
20
124.305000
11
83.221719
21
124.509360
0
LINE
8
0
10
83.221700
20
124.510000
11
83.163277
21
124.711092
0
LINE
8
0
10
83.163300
20
124.711000
11
83.092366
21
124.908025
0
LINE
8
0
10
83.092300
20
124.908000
11
83.009135
21
125.100182
0
LINE
8
0
10
83.009200
20
125.100000
11
82.914134
21
125.286583
0
LINE
8
0
10
82.914100
20
125.287000
11
82.807505
21
125.467241
0
LINE
8
0
10
82.807500
20
125.467000
11
82.689796
21
125.640197
0
LINE
8
0
10
82.689800
20
125.640000
11
82.561454
21
125.805461
0
LINE
8
0
10
82.561500
20
125.806000
11
82.423016
21
125.963076
0
LINE
8
0
10
82.423000
20
125.963000
11
82.274929
21
126.111073
0
LINE
8
0
10
82.274900
20
126.111000
11
82.117824
21
126.249481
0
LINE
8
0
10
82.117800
20
126.249000
11
81.952336
21
126.377346
0
LINE
8
0
10
81.952400
20
126.377000
11
81.779206
21
126.494704
0
LINE
8
0
10
81.779200
20
126.495000
11
81.598956
21
126.601595
0
LINE
8
0
10
81.598900
20
126.602000
11
81.412320
21
126.697067
0
LINE
8
0
10
81.412300
20
126.697000
11
81.220118
21
126.780165
0
LINE
8
0
10
81.220200
20
126.780000
11
81.023175
21
126.850934
0
LINE
8
0
10
81.023100
20
126.851000
11
80.822008
21
126.909423
0
LINE
8
0
10
80.822000
20
126.909000
11
80.617637
21
126.954681
0
LINE
8
0
10
80.617700
20
126.955000
11
80.410874
21
126.987758
0
LINE
8
0
10
80.410900
20
126.988000
11
80.202425
21
127.007699
0
LINE
8
0
10
80.202400
20
127.008000
11
79.993099
21
127.014576
0
LINE
8
0
10
79.993100
20
127.014000
11
79.783799
21
127.007424
0
LINE
8
0
10
79.783800
20
127.008000
11
79.575323
21
126.988301
0
LINE
8
0
10
79.575300
20
126.988000
11
79.368474
21
126.955242
0
LINE
8
0
10
79.368500
20
126.955000
11
79.164140
21
126.909319
0
LINE
8
0
10
79.164100
20
126.909000
11
78.963008
21
126.850577
0
LINE
8
0
10
78.963000
20
126.851000
11
78.765975
21
126.780066
0
LINE
8
0
10
78.766000
20
126.780000
11
78.573818
21
126.696835
0
LINE
8
0
10
78.573800
20
126.697000
11
78.387217
21
126.601934
0
LINE
8
0
10
78.387200
20
126.602000
11
78.206959
21
126.495405
0
LINE
8
0
10
78.207000
20
126.495000
11
78.033803
21
126.377296
0
LINE
8
0
10
78.033800
20
126.377000
11
77.868339
21
126.248654
0
LINE
8
0
10
77.868300
20
126.249000
11
77.711224
21
126.110519
0
LINE
8
0
10
77.711300
20
126.111000
11
77.563227
21
125.962927
0
LINE
8
0
10
77.563200
20
125.963000
11
77.424719
21
125.805924
0
LINE
8
0
10
77.424700
20
125.806000
11
77.296354
21
125.640539
0
LINE
8
0
10
77.296400
20
125.640000
11
77.178696
21
125.466803
0
LINE
8
0
10
77.178700
20
125.467000
11
77.072105
21
125.286759
0
LINE
8
0
10
77.072100
20
125.287000
11
76.977031
21
125.100417
0
LINE
8
0
10
76.977000
20
125.100000
11
76.893838
21
124.907818
0
LINE
8
0
10
76.893800
20
124.908000
11
76.822866
21
124.710975
0
LINE
8
0
10
76.822900
20
124.711000
11
76.764477
21
124.509908
0
LINE
8
0
10
76.764500
20
124.510000
11
76.718819
21
124.305640
0
LINE
8
0
10
76.718800
20
124.305000
11
76.686042
21
124.098174
0
LINE
8
0
10
76.686000
20
124.099000
11
76.666301
21
123.890523
0
LINE
8
0
10
76.666300
20
123.890000
11
76.659724
21
123.680699
0
LINE
8
0
10
76.659800
20
123.681000
11
76.666376
21
123.471699
0
LINE
8
0
10
76.666300
20
123.471000
11
76.685999
21
123.262525
0
LINE
8
0
10
76.686000
20
123.263000
11
76.718758
21
123.056174
0
LINE
8
0
10
76.718800
20
123.056000
11
76.764481
21
122.851637
0
LINE
8
0
10
76.764500
20
122.852000
11
76.822923
21
122.650908
0
LINE
8
0
10
76.822900
20
122.651000
11
76.893834
21
122.453975
0
LINE
8
0
10
76.893800
20
122.454000
11
76.976962
21
122.261818
0
LINE
8
0
10
76.977000
20
122.261000
11
77.072069
21
122.074420
0
LINE
8
0
10
77.072100
20
122.075000
11
77.178695
21
121.894756
0
LINE
8
0
10
77.178700
20
121.895000
11
77.296404
21
121.721803
0
LINE
8
0
10
77.296400
20
121.721000
11
77.424746
21
121.555539
0
LINE
8
0
10
77.424700
20
121.556000
11
77.563181
21
121.398924
0
LINE
8
0
10
77.563200
20
121.399000
11
77.711273
21
121.250929
0
LINE
8
0
10
77.711300
20
121.251000
11
77.868376
21
121.112516
0
LINE
8
0
10
77.868300
20
121.112000
11
78.033761
21
120.983654
0
LINE
8
0
10
78.033800
20
120.984000
11
78.206997
21
120.866296
0
LINE
8
0
10
78.207000
20
120.866000
11
78.387241
21
120.759405
0
LINE
8
0
10
78.387200
20
120.760000
11
78.573783
21
120.664934
0
LINE
8
0
10
78.573800
20
120.665000
11
78.765982
21
120.581835
0
LINE
8
0
10
78.766000
20
120.582000
11
78.963025
21
120.511066
0
LINE
8
0
10
78.963000
20
120.511000
11
79.164092
21
120.452577
0
LINE
8
0
10
79.164100
20
120.452000
11
79.368460
21
120.406319
0
LINE
8
0
10
79.368500
20
120.406000
11
79.575326
21
120.373243
0
LINE
8
0
10
79.575300
20
120.374000
11
79.783777
21
120.354301
0
LINE
8
0
10
79.783800
20
120.354000
11
79.993101
21
120.347424
0
LINE
8
0
10
79.993100
20
120.347000
11
80.202401
21
120.353576
0
LINE
8
0
10
80.202400
20
120.354000
11
80.410875
21
120.373699
0
LINE
8
0
10
80.410900
20
120.374000
11
80.617726
21
120.406757
0
LINE
8
0
10
80.617700
20
120.406000
11
80.822063
21
120.451681
0
LINE
8
0
10
80.822000
20
120.452000
11
81.023092
21
120.510423
0
LINE
8
0
10
81.023100
20
120.511000
11
81.220125
21
120.581934
0
LINE
8
0
10
81.220200
20
120.582000
11
81.412382
21
120.665165
0
LINE
8
0
10
81.412300
20
120.665000
11
81.598880
21
120.760067
0
LINE
8
0
10
81.598900
20
120.760000
11
81.779144
21
120.866595
0
LINE
8
0
10
81.779200
20
120.866000
11
81.952394
21
120.983704
0
LINE
8
0
10
81.952400
20
120.984000
11
82.117864
21
121.112346
0
LINE
8
0
10
82.117800
20
121.112000
11
82.274876
21
121.250484
0
LINE
8
0
10
82.274900
20
121.251000
11
82.422971
21
121.399071
0
LINE
8
0
10
82.423000
20
121.399000
11
82.561484
21
121.556076
0
LINE
8
0
10
82.561500
20
121.556000
11
82.689846
21
121.721461
0
LINE
8
0
10
82.689800
20
121.721000
11
82.807504
21
121.894197
0
LINE
8
0
10
82.807500
20
121.895000
11
82.914095
21
122.075244
0
LINE
8
0
10
82.914100
20
122.075000
11
83.009167
21
122.261580
0
LINE
8
0
10
83.009200
20
122.261000
11
83.092365
21
122.453182
0
LINE
8
0
10
83.092300
20
122.454000
11
83.163234
21
122.651025
0
LINE
8
0
10
83.163300
20
122.651000
11
83.221723
21
122.852092
0
LINE
8
0
10
83.221700
20
122.852000
11
83.267381
21
123.056363
0
LINE
8
0
10
83.267400
20
123.056000
11
83.300157
21
123.262826
0
LINE
8
0
10
83.300100
20
123.263000
11
83.319799
21
123.471475
0
LINE
8
0
10
83.319800
20
123.471000
11
83.326376
21
123.680301
0
LINE
8
0
10
83.326400
20
191.681000
11
83.319824
21
191.890301
0
LINE
8
0
10
83.319800
20
191.890000
11
83.300101
21
192.098477
0
LINE
8
0
10
83.300100
20
192.098000
11
83.267342
21
192.304826
0
LINE
8
0
10
83.267400
20
192.305000
11
83.221719
21
192.509363
0
LINE
8
0
10
83.221700
20
192.510000
11
83.163277
21
192.711089
0
LINE
8
0
10
83.163300
20
192.711000
11
83.092366
21
192.908025
0
LINE
8
0
10
83.092300
20
192.908000
11
83.009135
21
193.100182
0
LINE
8
0
10
83.009200
20
193.100000
11
82.914134
21
193.286583
0
LINE
8
0
10
82.914100
20
193.287000
11
82.807505
21
193.467244
0
LINE
8
0
10
82.807500
20
193.467000
11
82.689796
21
193.640194
0
LINE
8
0
10
82.689800
20
193.640000
11
82.561454
21
193.805461
0
LINE
8
0
10
82.561500
20
193.805000
11
82.423016
21
193.962079
0
LINE
8
0
10
82.423000
20
193.963000
11
82.274929
21
194.111071
0
LINE
8
0
10
82.274900
20
194.111000
11
82.117824
21
194.249481
0
LINE
8
0
10
82.117800
20
194.249000
11
81.952336
21
194.377346
0
LINE
8
0
10
81.952400
20
194.377000
11
81.779206
21
194.494704
0
LINE
8
0
10
81.779200
20
194.495000
11
81.598956
21
194.601595
0
LINE
8
0
10
81.598900
20
194.602000
11
81.412320
21
194.697069
0
LINE
8
0
10
81.412300
20
194.697000
11
81.220118
21
194.780165
0
LINE
8
0
10
81.220200
20
194.780000
11
81.023175
21
194.850931
0
LINE
8
0
10
81.023100
20
194.851000
11
80.822008
21
194.909423
0
LINE
8
0
10
80.822000
20
194.909000
11
80.617637
21
194.954680
0
LINE
8
0
10
80.617700
20
194.955000
11
80.410874
21
194.987758
0
LINE
8
0
10
80.410900
20
194.988000
11
80.202425
21
195.007699
0
LINE
8
0
10
80.202400
20
195.007000
11
79.993099
21
195.013576
0
LINE
8
0
10
79.993100
20
195.014000
11
79.783799
21
195.007424
0
LINE
8
0
10
79.783800
20
195.007000
11
79.575323
21
194.987301
0
LINE
8
0
10
79.575300
20
194.988000
11
79.368474
21
194.955242
0
LINE
8
0
10
79.368500
20
194.955000
11
79.164140
21
194.909320
0
LINE
8
0
10
79.164100
20
194.909000
11
78.963008
21
194.850577
0
LINE
8
0
10
78.963000
20
194.851000
11
78.765975
21
194.780069
0
LINE
8
0
10
78.766000
20
194.780000
11
78.573818
21
194.696835
0
LINE
8
0
10
78.573800
20
194.697000
11
78.387217
21
194.601931
0
LINE
8
0
10
78.387200
20
194.602000
11
78.206959
21
194.495405
0
LINE
8
0
10
78.207000
20
194.495000
11
78.033803
21
194.377296
0
LINE
8
0
10
78.033800
20
194.377000
11
77.868339
21
194.248654
0
LINE
8
0
10
77.868300
20
194.249000
11
77.711224
21
194.110519
0
LINE
8
0
10
77.711300
20
194.111000
11
77.563227
21
193.962929
0
LINE
8
0
10
77.563200
20
193.963000
11
77.424719
21
193.805921
0
LINE
8
0
10
77.424700
20
193.805000
11
77.296354
21
193.639539
0
LINE
8
0
10
77.296400
20
193.640000
11
77.178696
21
193.466806
0
LINE
8
0
10
77.178700
20
193.467000
11
77.072105
21
193.286756
0
LINE
8
0
10
77.072100
20
193.287000
11
76.977031
21
193.100417
0
LINE
8
0
10
76.977000
20
193.100000
11
76.893838
21
192.907818
0
LINE
8
0
10
76.893800
20
192.908000
11
76.822866
21
192.710975
0
LINE
8
0
10
76.822900
20
192.711000
11
76.764477
21
192.509911
0
LINE
8
0
10
76.764500
20
192.510000
11
76.718819
21
192.305637
0
LINE
8
0
10
76.718800
20
192.305000
11
76.686042
21
192.098174
0
LINE
8
0
10
76.686000
20
192.098000
11
76.666301
21
191.889523
0
LINE
8
0
10
76.666300
20
191.890000
11
76.659724
21
191.680699
0
LINE
8
0
10
76.659800
20
191.681000
11
76.666376
21
191.471699
0
LINE
8
0
10
76.666300
20
191.471000
11
76.685999
21
191.262525
0
LINE
8
0
10
76.686000
20
191.263000
11
76.718758
21
191.056174
0
LINE
8
0
10
76.718800
20
191.056000
11
76.764481
21
190.851637
0
LINE
8
0
10
76.764500
20
190.852000
11
76.822923
21
190.650911
0
LINE
8
0
10
76.822900
20
190.651000
11
76.893834
21
190.453972
0
LINE
8
0
10
76.893800
20
190.454000
11
76.976962
21
190.261818
0
LINE
8
0
10
76.977000
20
190.261000
11
77.072069
21
190.074420
0
LINE
8
0
10
77.072100
20
190.075000
11
77.178695
21
189.894756
0
LINE
8
0
10
77.178700
20
189.895000
11
77.296404
21
189.721806
0
LINE
8
0
10
77.296400
20
189.721000
11
77.424746
21
189.555536
0
LINE
8
0
10
77.424700
20
189.556000
11
77.563181
21
189.398924
0
LINE
8
0
10
77.563200
20
189.399000
11
77.711273
21
189.250929
0
LINE
8
0
10
77.711300
20
189.251000
11
77.868376
21
189.112516
0
LINE
8
0
10
77.868300
20
189.112000
11
78.033761
21
188.983654
0
LINE
8
0
10
78.033800
20
188.984000
11
78.206997
21
188.866299
0
LINE
8
0
10
78.207000
20
188.866000
11
78.387241
21
188.759402
0
LINE
8
0
10
78.387200
20
188.760000
11
78.573783
21
188.664933
0
LINE
8
0
10
78.573800
20
188.665000
11
78.765982
21
188.581835
0
LINE
8
0
10
78.766000
20
188.581000
11
78.963025
21
188.510066
0
LINE
8
0
10
78.963000
20
188.511000
11
79.164092
21
188.452577
0
LINE
8
0
10
79.164100
20
188.452000
11
79.368460
21
188.406322
0
LINE
8
0
10
79.368500
20
188.406000
11
79.575326
21
188.373240
0
LINE
8
0
10
79.575300
20
188.374000
11
79.783777
21
188.354301
0
LINE
8
0
10
79.783800
20
188.354000
11
79.993101
21
188.347424
0
LINE
8
0
10
79.993100
20
188.347000
11
80.202401
21
188.353576
0
LINE
8
0
10
80.202400
20
188.354000
11
80.410875
21
188.373699
0
LINE
8
0
10
80.410900
20
188.374000
11
80.617726
21
188.406760
0
LINE
8
0
10
80.617700
20
188.406000
11
80.822063
21
188.451678
0
LINE
8
0
10
80.822000
20
188.452000
11
81.023092
21
188.510423
0
LINE
8
0
10
81.023100
20
188.511000
11
81.220125
21
188.581934
0
LINE
8
0
10
81.220200
20
188.581000
11
81.412382
21
188.664165
0
LINE
8
0
10
81.412300
20
188.665000
11
81.598880
21
188.760066
0
LINE
8
0
10
81.598900
20
188.760000
11
81.779144
21
188.866598
0
LINE
8
0
10
81.779200
20
188.866000
11
81.952394
21
188.983701
0
LINE
8
0
10
81.952400
20
188.984000
11
82.117864
21
189.112346
0
LINE
8
0
10
82.117800
20
189.112000
11
82.274876
21
189.250484
0
LINE
8
0
10
82.274900
20
189.251000
11
82.422971
21
189.399071
0
LINE
8
0
10
82.423000
20
189.399000
11
82.561484
21
189.556076
0
LINE
8
0
10
82.561500
20
189.556000
11
82.689846
21
189.721464
0
LINE
8
0
10
82.689800
20
189.721000
11
82.807504
21
189.894194
0
LINE
8
0
10
82.807500
20
189.895000
11
82.914095
21
190.075244
0
LINE
8
0
10
82.914100
20
190.075000
11
83.009167
21
190.261580
0
LINE
8
0
10
83.009200
20
190.261000
11
83.092365
21
190.453182
0
LINE
8
0
10
83.092300
20
190.454000
11
83.163234
21
190.651028
0
LINE
8
0
10
83.163300
20
190.651000
11
83.221723
21
190.852089
0
LINE
8
0
10
83.221700
20
190.852000
11
83.267381
21
191.056363
0
LINE
8
0
10
83.267400
20
191.056000
11
83.300157
21
191.262826
0
LINE
8
0
10
83.300100
20
191.263000
11
83.319799
21
191.471475
0
LINE
8
0
10
83.319800
20
191.471000
11
83.326376
21
191.680301
0
LINE
8
0
10
140.660000
20
123.681000
11
140.653424
21
123.890301
0
LINE
8
0
10
140.653000
20
123.890000
11
140.633301
21
124.098477
0
LINE
8
0
10
140.633000
20
124.099000
11
140.600243
21
124.305826
0
LINE
8
0
10
140.601000
20
124.305000
11
140.555319
21
124.509360
0
LINE
8
0
10
140.555000
20
124.510000
11
140.496577
21
124.711092
0
LINE
8
0
10
140.497000
20
124.711000
11
140.426066
21
124.908025
0
LINE
8
0
10
140.426000
20
124.908000
11
140.342835
21
125.100182
0
LINE
8
0
10
140.342000
20
125.100000
11
140.246934
21
125.286583
0
LINE
8
0
10
140.247000
20
125.287000
11
140.140405
21
125.467241
0
LINE
8
0
10
140.141000
20
125.467000
11
140.023296
21
125.640197
0
LINE
8
0
10
140.023000
20
125.640000
11
139.894654
21
125.805461
0
LINE
8
0
10
139.895000
20
125.806000
11
139.756519
21
125.963076
0
LINE
8
0
10
139.756000
20
125.963000
11
139.607927
21
126.111073
0
LINE
8
0
10
139.608000
20
126.111000
11
139.450924
21
126.249481
0
LINE
8
0
10
139.451000
20
126.249000
11
139.285539
21
126.377346
0
LINE
8
0
10
139.286000
20
126.377000
11
139.112803
21
126.494704
0
LINE
8
0
10
139.112000
20
126.495000
11
138.931756
21
126.601595
0
LINE
8
0
10
138.932000
20
126.602000
11
138.745420
21
126.697067
0
LINE
8
0
10
138.746000
20
126.697000
11
138.553818
21
126.780165
0
LINE
8
0
10
138.553000
20
126.780000
11
138.355975
21
126.850934
0
LINE
8
0
10
138.356000
20
126.851000
11
138.154908
21
126.909423
0
LINE
8
0
10
138.155000
20
126.909000
11
137.950640
21
126.954681
0
LINE
8
0
10
137.951000
20
126.955000
11
137.744171
21
126.987758
0
LINE
8
0
10
137.744000
20
126.988000
11
137.535525
21
127.007699
0
LINE
8
0
10
137.536000
20
127.008000
11
137.326699
21
127.014576
0
LINE
8
0
10
137.326000
20
127.014000
11
137.116699
21
127.007424
0
LINE
8
0
10
137.117000
20
127.008000
11
136.908525
21
126.988301
0
LINE
8
0
10
136.909000
20
126.988000
11
136.702174
21
126.955242
0
LINE
8
0
10
136.702000
20
126.955000
11
136.497637
21
126.909319
0
LINE
8
0
10
136.497000
20
126.909000
11
136.295908
21
126.850577
0
LINE
8
0
10
136.296000
20
126.851000
11
136.098975
21
126.780066
0
LINE
8
0
10
136.099000
20
126.780000
11
135.906818
21
126.696835
0
LINE
8
0
10
135.907000
20
126.697000
11
135.720420
21
126.601934
0
LINE
8
0
10
135.721000
20
126.602000
11
135.540756
21
126.495405
0
LINE
8
0
10
135.540000
20
126.495000
11
135.366806
21
126.377296
0
LINE
8
0
10
135.367000
20
126.377000
11
135.201536
21
126.248654
0
LINE
8
0
10
135.202000
20
126.249000
11
135.044924
21
126.110519
0
LINE
8
0
10
135.045000
20
126.111000
11
134.896927
21
125.962927
0
LINE
8
0
10
134.896000
20
125.963000
11
134.757519
21
125.805924
0
LINE
8
0
10
134.758000
20
125.806000
11
134.629654
21
125.640539
0
LINE
8
0
10
134.630000
20
125.640000
11
134.512296
21
125.466803
0
LINE
8
0
10
134.512000
20
125.467000
11
134.405405
21
125.286759
0
LINE
8
0
10
134.405000
20
125.287000
11
134.309933
21
125.100417
0
LINE
8
0
10
134.310000
20
125.100000
11
134.226835
21
124.907818
0
LINE
8
0
10
134.227000
20
124.908000
11
134.156066
21
124.710975
0
LINE
8
0
10
134.156000
20
124.711000
11
134.097577
21
124.509908
0
LINE
8
0
10
134.098000
20
124.510000
11
134.052320
21
124.305640
0
LINE
8
0
10
134.052000
20
124.305000
11
134.019242
21
124.098174
0
LINE
8
0
10
134.019000
20
124.099000
11
133.999301
21
123.890523
0
LINE
8
0
10
134.000000
20
123.890000
11
133.993424
21
123.680699
0
LINE
8
0
10
133.993000
20
123.681000
11
133.999576
21
123.471699
0
LINE
8
0
10
134.000000
20
123.471000
11
134.019699
21
123.262525
0
LINE
8
0
10
134.019000
20
123.263000
11
134.051758
21
123.056174
0
LINE
8
0
10
134.052000
20
123.056000
11
134.097680
21
122.851637
0
LINE
8
0
10
134.098000
20
122.852000
11
134.156423
21
122.650908
0
LINE
8
0
10
134.156000
20
122.651000
11
134.226934
21
122.453975
0
LINE
8
0
10
134.227000
20
122.454000
11
134.310165
21
122.261818
0
LINE
8
0
10
134.310000
20
122.261000
11
134.405067
21
122.074420
0
LINE
8
0
10
134.405000
20
122.075000
11
134.511595
21
121.894756
0
LINE
8
0
10
134.512000
20
121.895000
11
134.629704
21
121.721803
0
LINE
8
0
10
134.630000
20
121.721000
11
134.758346
21
121.555539
0
LINE
8
0
10
134.758000
20
121.556000
11
134.896481
21
121.398924
0
LINE
8
0
10
134.896000
20
121.399000
11
135.044073
21
121.250929
0
LINE
8
0
10
135.045000
20
121.251000
11
135.202076
21
121.112516
0
LINE
8
0
10
135.202000
20
121.112000
11
135.367464
21
120.983654
0
LINE
8
0
10
135.367000
20
120.984000
11
135.540194
21
120.866296
0
LINE
8
0
10
135.540000
20
120.866000
11
135.720244
21
120.759405
0
LINE
8
0
10
135.721000
20
120.760000
11
135.907580
21
120.664934
0
LINE
8
0
10
135.907000
20
120.665000
11
136.099182
21
120.581835
0
LINE
8
0
10
136.099000
20
120.582000
11
136.296025
21
120.511066
0
LINE
8
0
10
136.296000
20
120.511000
11
136.497092
21
120.452577
0
LINE
8
0
10
136.497000
20
120.452000
11
136.701363
21
120.406319
0
LINE
8
0
10
136.702000
20
120.406000
11
136.908826
21
120.373243
0
LINE
8
0
10
136.909000
20
120.374000
11
137.117475
21
120.354301
0
LINE
8
0
10
137.117000
20
120.354000
11
137.326301
21
120.347424
0
LINE
8
0
10
137.326000
20
120.347000
11
137.535301
21
120.353576
0
LINE
8
0
10
137.536000
20
120.354000
11
137.744475
21
120.373699
0
LINE
8
0
10
137.744000
20
120.374000
11
137.950829
21
120.406757
0
LINE
8
0
10
137.951000
20
120.406000
11
138.155360
21
120.451681
0
LINE
8
0
10
138.155000
20
120.452000
11
138.356092
21
120.510423
0
LINE
8
0
10
138.356000
20
120.511000
11
138.553025
21
120.581934
0
LINE
8
0
10
138.553000
20
120.582000
11
138.745182
21
120.665165
0
LINE
8
0
10
138.746000
20
120.665000
11
138.932580
21
120.760067
0
LINE
8
0
10
138.932000
20
120.760000
11
139.112244
21
120.866595
0
LINE
8
0
10
139.112000
20
120.866000
11
139.285197
21
120.983704
0
LINE
8
0
10
139.286000
20
120.984000
11
139.451461
21
121.112346
0
LINE
8
0
10
139.451000
20
121.112000
11
139.608076
21
121.250484
0
LINE
8
0
10
139.608000
20
121.251000
11
139.756073
21
121.399071
0
LINE
8
0
10
139.756000
20
121.399000
11
139.894481
21
121.556076
0
LINE
8
0
10
139.895000
20
121.556000
11
140.023346
21
121.721461
0
LINE
8
0
10
140.023000
20
121.721000
11
140.140704
21
121.894197
0
LINE
8
0
10
140.141000
20
121.895000
11
140.247595
21
122.075244
0
LINE
8
0
10
140.247000
20
122.075000
11
140.342067
21
122.261580
0
LINE
8
0
10
140.342000
20
122.261000
11
140.425165
21
122.453182
0
LINE
8
0
10
140.426000
20
122.454000
11
140.496934
21
122.651025
0
LINE
8
0
10
140.497000
20
122.651000
11
140.555423
21
122.852092
0
LINE
8
0
10
140.555000
20
122.852000
11
140.600681
21
123.056363
0
LINE
8
0
10
140.601000
20
123.056000
11
140.633758
21
123.262826
0
LINE
8
0
10
140.633000
20
123.263000
11
140.652699
21
123.471475
0
LINE
8
0
10
140.653000
20
123.471000
11
140.659576
21
123.680301
0
LINE
8
0
10
140.660000
20
191.681000
11
140.653424
21
191.890301
0
LINE
8
0
10
140.653000
20
191.890000
11
140.633301
21
192.098477
0
LINE
8
0
10
140.633000
20
192.098000
11
140.600243
21
192.304826
0
LINE
8
0
10
140.601000
20
192.305000
11
140.555319
21
192.509363
0
LINE
8
0
10
140.555000
20
192.510000
11
140.496577
21
192.711089
0
LINE
8
0
10
140.497000
20
192.711000
11
140.426066
21
192.908025
0
LINE
8
0
10
140.426000
20
192.908000
11
140.342835
21
193.100182
0
LINE
8
0
10
140.342000
20
193.100000
11
140.246934
21
193.286583
0
LINE
8
0
10
140.247000
20
193.287000
11
140.140405
21
193.467244
0
LINE
8
0
10
140.141000
20
193.467000
11
140.023296
21
193.640194
0
LINE
8
0
10
140.023000
20
193.640000
11
139.894654
21
193.805461
0
LINE
8
0
10
139.895000
20
193.805000
11
139.756519
21
193.962079
0
LINE
8
0
10
139.756000
20
193.963000
11
139.607927
21
194.111071
0
LINE
8
0
10
139.608000
20
194.111000
11
139.450924
21
194.249481
0
LINE
8
0
10
139.451000
20
194.249000
11
139.285539
21
194.377346
0
LINE
8
0
10
139.286000
20
194.377000
11
139.112803
21
194.494704
0
LINE
8
0
10
139.112000
20
194.495000
11
138.931756
21
194.601595
0
LINE
8
0
10
138.932000
20
194.602000
11
138.745420
21
194.697069
0
LINE
8
0
10
138.746000
20
194.697000
11
138.553818
21
194.780165
0
LINE
8
0
10
138.553000
20
194.780000
11
138.355975
21
194.850931
0
LINE
8
0
10
138.356000
20
194.851000
11
138.154908
21
194.909423
0
LINE
8
0
10
138.155000
20
194.909000
11
137.950640
21
194.954680
0
LINE
8
0
10
137.951000
20
194.955000
11
137.744171
21
194.987758
0
LINE
8
0
10
137.744000
20
194.988000
11
137.535525
21
195.007699
0
LINE
8
0
10
137.536000
20
195.007000
11
137.326699
21
195.013576
0
LINE
8
0
10
137.326000
20
195.014000
11
137.116699
21
195.007424
0
LINE
8
0
10
137.117000
20
195.007000
11
136.908525
21
194.987301
0
LINE
8
0
10
136.909000
20
194.988000
11
136.702174
21
194.955242
0
LINE
8
0
10
136.702000
20
194.955000
11
136.497637
21
194.909320
0
LINE
8
0
10
136.497000
20
194.909000
11
136.295908
21
194.850577
0
LINE
8
0
10
136.296000
20
194.851000
11
136.098975
21
194.780069
0
LINE
8
0
10
136.099000
20
194.780000
11
135.906818
21
194.696835
0
LINE
8
0
10
135.907000
20
194.697000
11
135.720420
21
194.601931
0
LINE
8
0
10
135.721000
20
194.602000
11
135.540756
21
194.495405
0
LINE
8
0
10
135.540000
20
194.495000
11
135.366806
21
194.377296
0
LINE
8
0
10
135.367000
20
194.377000
11
135.201536
21
194.248654
0
LINE
8
0
10
135.202000
20
194.249000
11
135.044924
21
194.110519
0
LINE
8
0
10
135.045000
20
194.111000
11
134.896927
21
193.962929
0
LINE
8
0
10
134.896000
20
193.963000
11
134.757519
21
193.805921
0
LINE
8
0
10
134.758000
20
193.805000
11
134.629654
21
193.639539
0
LINE
8
0
10
134.630000
20
193.640000
11
134.512296
21
193.466806
0
LINE
8
0
10
134.512000
20
193.467000
11
134.405405
21
193.286756
0
LINE
8
0
10
134.405000
20
193.287000
11
134.309933
21
193.100417
0
LINE
8
0
10
134.310000
20
193.100000
11
134.226835
21
192.907818
0
LINE
8
0
10
134.227000
20
192.908000
11
134.156066
21
192.710975
0
LINE
8
0
10
134.156000
20
192.711000
11
134.097577
21
192.509911
0
LINE
8
0
10
134.098000
20
192.510000
11
134.052320
21
192.305637
0
LINE
8
0
10
134.052000
20
192.305000
11
134.019242
21
192.098174
0
LINE
8
0
10
134.019000
20
192.098000
11
133.999301
21
191.889523
0
LINE
8
0
10
134.000000
20
191.890000
11
133.993424
21
191.680699
0
LINE
8
0
10
133.993000
20
191.681000
11
133.999576
21
191.471699
0
LINE
8
0
10
134.000000
20
191.471000
11
134.019699
21
191.262525
0
LINE
8
0
10
134.019000
20
191.263000
11
134.051758
21
191.056174
0
LINE
8
0
10
134.052000
20
191.056000
11
134.097680
21
190.851637
0
LINE
8
0
10
134.098000
20
190.852000
11
134.156423
21
190.650911
0
LINE
8
0
10
134.156000
20
190.651000
11
134.226934
21
190.453972
0
LINE
8
0
10
134.227000
20
190.454000
11
134.310165
21
190.261818
0
LINE
8
0
10
134.310000
20
190.261000
11
134.405067
21
190.074420
0
LINE
8
0
10
134.405000
20
190.075000
11
134.511595
21
189.894756
0
LINE
8
0
10
134.512000
20
189.895000
11
134.629704
21
189.721806
0
LINE
8
0
10
134.630000
20
189.721000
11
134.758346
21
189.555536
0
LINE
8
0
10
134.758000
20
189.556000
11
134.896481
21
189.398924
0
LINE
8
0
10
134.896000
20
189.399000
11
135.044073
21
189.250929
0
LINE
8
0
10
135.045000
20
189.251000
11
135.202076
21
189.112516
0
LINE
8
0
10
135.202000
20
189.112000
11
135.367464
21
188.983654
0
LINE
8
0
10
135.367000
20
188.984000
11
135.540194
21
188.866299
0
LINE
8
0
10
135.540000
20
188.866000
11
135.720244
21
188.759402
0
LINE
8
0
10
135.721000
20
188.760000
11
135.907580
21
188.664933
0
LINE
8
0
10
135.907000
20
188.665000
11
136.099182
21
188.581835
0
LINE
8
0
10
136.099000
20
188.581000
11
136.296025
21
188.510066
0
LINE
8
0
10
136.296000
20
188.511000
11
136.497092
21
188.452577
0
LINE
8
0
10
136.497000
20
188.452000
11
136.701363
21
188.406322
0
LINE
8
0
10
136.702000
20
188.406000
11
136.908826
21
188.373240
0
LINE
8
0
10
136.909000
20
188.374000
11
137.117475
21
188.354301
0
LINE
8
0
10
137.117000
20
188.354000
11
137.326301
21
188.347424
0
LINE
8
0
10
137.326000
20
188.347000
11
137.535301
21
188.353576
0
LINE
8
0
10
137.536000
20
188.354000
11
137.744475
21
188.373699
0
LINE
8
0
10
137.744000
20
188.374000
11
137.950829
21
188.406760
0
LINE
8
0
10
137.951000
20
188.406000
11
138.155360
21
188.451678
0
LINE
8
0
10
138.155000
20
188.452000
11
138.356092
21
188.510423
0
LINE
8
0
10
138.356000
20
188.511000
11
138.553025
21
188.581934
0
LINE
8
0
10
138.553000
20
188.581000
11
138.745182
21
188.664165
0
LINE
8
0
10
138.746000
20
188.665000
11
138.932580
21
188.760066
0
LINE
8
0
10
138.932000
20
188.760000
11
139.112244
21
188.866598
0
LINE
8
0
10
139.112000
20
188.866000
11
139.285197
21
188.983701
0
LINE
8
0
10
139.286000
20
188.984000
11
139.451461
21
189.112346
0
LINE
8
0
10
139.451000
20
189.112000
11
139.608076
21
189.250484
0
LINE
8
0
10
139.608000
20
189.251000
11
139.756073
21
189.399071
0
LINE
8
0
10
139.756000
20
189.399000
11
139.894481
21
189.556076
0
LINE
8
0
10
139.895000
20
189.556000
11
140.023346
21
189.721464
0
LINE
8
0
10
140.023000
20
189.721000
11
140.140704
21
189.894194
0
LINE
8
0
10
140.141000
20
189.895000
11
140.247595
21
190.075244
0
LINE
8
0
10
140.247000
20
190.075000
11
140.342067
21
190.261580
0
LINE
8
0
10
140.342000
20
190.261000
11
140.425165
21
190.453182
0
LINE
8
0
10
140.426000
20
190.454000
11
140.496934
21
190.651028
0
LINE
8
0
10
140.497000
20
190.651000
11
140.555423
21
190.852089
0
LINE
8
0
10
140.555000
20
190.852000
11
140.600681
21
191.056363
0
LINE
8
0
10
140.601000
20
191.056000
11
140.633758
21
191.262826
0
LINE
8
0
10
140.633000
20
191.263000
11
140.652699
21
191.471475
0
LINE
8
0
10
140.653000
20
191.471000
11
140.659576
21
191.680301
 0 
ENDSEC
 0 
EOF