999
"DXF R12 Output" (www.mydxf.blogspot.com)
 0 
SECTION
 2 
HEADER
 9 
$ACADVER
 1 
AC1009
 9 
$EXTMIN
 10 
 0 
 20 
 0 
 9 
$EXTMAX
 10 
 8.5 
 20 
 11 
 0 
ENDSEC
 0 
SECTION
 2 
ENTITIES
0
LINE
8
Layer 1
10
0.846666
20
317.647000
11
-0.846666
21
315.953000
0
LINE
8
Layer 1
10
0.000000
20
318.211000
11
0.000000
21
315.389000
0
LINE
8
Layer 1
10
2.257780
20
315.671000
11
1.128890
21
314.542110
0
LINE
8
Layer 1
10
1.693330
20
316.236000
11
0.564440
21
315.107110
0
LINE
8
Layer 1
10
1.128890
20
316.800000
11
0.000000
21
315.671110
0
LINE
8
0
10
28.452100
20
32.008900
11
135.119000
21
32.008900
0
LINE
8
0
10
28.452100
20
32.008900
11
28.452100
21
192.009000
0
LINE
8
0
10
135.119000
20
32.008900
11
135.119000
21
192.009000
0
LINE
8
0
10
28.452100
20
192.009000
11
135.119000
21
192.009000
0
LINE
8
0
10
53.118800
20
74.675500
11
53.112224
21
74.884801
0
LINE
8
0
10
53.112200
20
74.884800
11
53.092501
21
75.093277
0
LINE
8
0
10
53.092500
20
75.093300
11
53.059742
21
75.300126
0
LINE
8
0
10
53.059700
20
75.300100
11
53.014019
21
75.504463
0
LINE
8
0
10
53.014100
20
75.504500
11
52.955677
21
75.705589
0
LINE
8
0
10
52.955600
20
75.705600
11
52.884666
21
75.902625
0
LINE
8
0
10
52.884700
20
75.902600
11
52.801538
21
76.094782
0
LINE
8
0
10
52.801500
20
76.094800
11
52.706431
21
76.281383
0
LINE
8
0
10
52.706500
20
76.281400
11
52.599905
21
76.461644
0
LINE
8
0
10
52.599900
20
76.461600
11
52.482196
21
76.634794
0
LINE
8
0
10
52.482200
20
76.634800
11
52.353854
21
76.800261
0
LINE
8
0
10
52.353800
20
76.800300
11
52.215319
21
76.957379
0
LINE
8
0
10
52.215400
20
76.957400
11
52.067327
21
77.105471
0
LINE
8
0
10
52.067300
20
77.105400
11
51.910224
21
77.243881
0
LINE
8
0
10
51.910200
20
77.243900
11
51.744739
21
77.372246
0
LINE
8
0
10
51.744700
20
77.372300
11
51.571506
21
77.490004
0
LINE
8
0
10
51.571500
20
77.490000
11
51.391256
21
77.596595
0
LINE
8
0
10
51.391300
20
77.596600
11
51.204717
21
77.691669
0
LINE
8
0
10
51.204700
20
77.691600
11
51.012518
21
77.774765
0
LINE
8
0
10
51.012500
20
77.774800
11
50.815475
21
77.845731
0
LINE
8
0
10
50.815500
20
77.845700
11
50.614408
21
77.904123
0
LINE
8
0
10
50.614400
20
77.904200
11
50.410040
21
77.949881
0
LINE
8
0
10
50.410100
20
77.949800
11
50.203274
21
77.982557
0
LINE
8
0
10
50.203200
20
77.982600
11
49.994723
21
78.002299
0
LINE
8
0
10
49.994800
20
78.002300
11
49.785499
21
78.008876
0
LINE
8
0
10
49.785500
20
78.008900
11
49.576199
21
78.002324
0
LINE
8
0
10
49.576200
20
78.002300
11
49.367725
21
77.982601
0
LINE
8
0
10
49.367700
20
77.982600
11
49.160874
21
77.949843
0
LINE
8
0
10
49.160900
20
77.949800
11
48.956537
21
77.904119
0
LINE
8
0
10
48.956500
20
77.904200
11
48.755411
21
77.845777
0
LINE
8
0
10
48.755400
20
77.845700
11
48.558372
21
77.774769
0
LINE
8
0
10
48.558400
20
77.774800
11
48.366218
21
77.691635
0
LINE
8
0
10
48.366200
20
77.691600
11
48.179620
21
77.596531
0
LINE
8
0
10
48.179600
20
77.596600
11
47.999356
21
77.490005
0
LINE
8
0
10
47.999400
20
77.490000
11
47.826206
21
77.372296
0
LINE
8
0
10
47.826200
20
77.372300
11
47.660736
21
77.243954
0
LINE
8
0
10
47.660700
20
77.243900
11
47.503624
21
77.105419
0
LINE
8
0
10
47.503600
20
77.105400
11
47.355529
21
76.957329
0
LINE
8
0
10
47.355600
20
76.957400
11
47.217116
21
76.800321
0
LINE
8
0
10
47.217100
20
76.800300
11
47.088754
21
76.634839
0
LINE
8
0
10
47.088700
20
76.634800
11
46.970999
21
76.461606
0
LINE
8
0
10
46.971000
20
76.461600
11
46.864402
21
76.281356
0
LINE
8
0
10
46.864400
20
76.281400
11
46.769334
21
76.094817
0
LINE
8
0
10
46.769400
20
76.094800
11
46.686235
21
75.902618
0
LINE
8
0
10
46.686200
20
75.902600
11
46.615266
21
75.705575
0
LINE
8
0
10
46.615300
20
75.705600
11
46.556877
21
75.504511
0
LINE
8
0
10
46.556900
20
75.504500
11
46.511219
21
75.300137
0
LINE
8
0
10
46.511200
20
75.300100
11
46.478442
21
75.093274
0
LINE
8
0
10
46.478400
20
75.093300
11
46.458701
21
74.884823
0
LINE
8
0
10
46.458700
20
74.884800
11
46.452124
21
74.675499
0
LINE
8
0
10
46.452100
20
74.675500
11
46.458676
21
74.466199
0
LINE
8
0
10
46.458700
20
74.466200
11
46.478399
21
74.257725
0
LINE
8
0
10
46.478400
20
74.257800
11
46.511158
21
74.050974
0
LINE
8
0
10
46.511200
20
74.050900
11
46.556881
21
73.846537
0
LINE
8
0
10
46.556900
20
73.846600
11
46.615323
21
73.645511
0
LINE
8
0
10
46.615300
20
73.645500
11
46.686234
21
73.448475
0
LINE
8
0
10
46.686200
20
73.448500
11
46.769365
21
73.256315
0
LINE
8
0
10
46.769400
20
73.256300
11
46.864466
21
73.069720
0
LINE
8
0
10
46.864400
20
73.069700
11
46.970998
21
72.889456
0
LINE
8
0
10
46.971000
20
72.889500
11
47.088701
21
72.716306
0
LINE
8
0
10
47.088700
20
72.716300
11
47.217046
21
72.550836
0
LINE
8
0
10
47.217100
20
72.550800
11
47.355584
21
72.393724
0
LINE
8
0
10
47.355600
20
72.393700
11
47.503671
21
72.245629
0
LINE
8
0
10
47.503600
20
72.245700
11
47.660676
21
72.107216
0
LINE
8
0
10
47.660700
20
72.107200
11
47.826164
21
71.978854
0
LINE
8
0
10
47.826200
20
71.978800
11
47.999394
21
71.861099
0
LINE
8
0
10
47.999400
20
71.861100
11
48.179644
21
71.754502
0
LINE
8
0
10
48.179600
20
71.754500
11
48.366180
21
71.659433
0
LINE
8
0
10
48.366200
20
71.659500
11
48.558382
21
71.576335
0
LINE
8
0
10
48.558400
20
71.576300
11
48.755428
21
71.505366
0
LINE
8
0
10
48.755400
20
71.505400
11
48.956489
21
71.446980
0
LINE
8
0
10
48.956500
20
71.446900
11
49.160863
21
71.401219
0
LINE
8
0
10
49.160900
20
71.401300
11
49.367726
21
71.368540
0
LINE
8
0
10
49.367700
20
71.368500
11
49.576175
21
71.348801
0
LINE
8
0
10
49.576200
20
71.348800
11
49.785501
21
71.342224
0
LINE
8
0
10
49.785500
20
71.342200
11
49.994801
21
71.348776
0
LINE
8
0
10
49.994800
20
71.348800
11
50.203277
21
71.368499
0
LINE
8
0
10
50.203200
20
71.368500
11
50.410026
21
71.401260
0
LINE
8
0
10
50.410100
20
71.401300
11
50.614460
21
71.446981
0
LINE
8
0
10
50.614400
20
71.446900
11
50.815492
21
71.505320
0
LINE
8
0
10
50.815500
20
71.505400
11
51.012525
21
71.576334
0
LINE
8
0
10
51.012500
20
71.576300
11
51.204682
21
71.659465
0
LINE
8
0
10
51.204700
20
71.659500
11
51.391283
21
71.754566
0
LINE
8
0
10
51.391300
20
71.754500
11
51.571544
21
71.861098
0
LINE
8
0
10
51.571500
20
71.861100
11
51.744694
21
71.978801
0
LINE
8
0
10
51.744700
20
71.978800
11
51.910161
21
72.107146
0
LINE
8
0
10
51.910200
20
72.107200
11
52.067276
21
72.245684
0
LINE
8
0
10
52.067300
20
72.245700
11
52.215373
21
72.393771
0
LINE
8
0
10
52.215400
20
72.393700
11
52.353881
21
72.550776
0
LINE
8
0
10
52.353800
20
72.550800
11
52.482146
21
72.716264
0
LINE
8
0
10
52.482200
20
72.716300
11
52.599904
21
72.889494
0
LINE
8
0
10
52.599900
20
72.889500
11
52.706495
21
73.069744
0
LINE
8
0
10
52.706500
20
73.069700
11
52.801569
21
73.256280
0
LINE
8
0
10
52.801500
20
73.256300
11
52.884662
21
73.448485
0
LINE
8
0
10
52.884700
20
73.448500
11
52.955634
21
73.645525
0
LINE
8
0
10
52.955600
20
73.645500
11
53.014023
21
73.846589
0
LINE
8
0
10
53.014100
20
73.846600
11
53.059781
21
74.050963
0
LINE
8
0
10
53.059700
20
74.050900
11
53.092458
21
74.257726
0
LINE
8
0
10
53.092500
20
74.257800
11
53.112199
21
74.466275
0
LINE
8
0
10
53.112200
20
74.466200
11
53.118776
21
74.675501
0
LINE
8
0
10
53.118800
20
53.342200
11
53.112224
21
53.551501
0
LINE
8
0
10
53.112200
20
53.551500
11
53.092501
21
53.759977
0
LINE
8
0
10
53.092500
20
53.760000
11
53.059742
21
53.966826
0
LINE
8
0
10
53.059700
20
53.966800
11
53.014019
21
54.171160
0
LINE
8
0
10
53.014100
20
54.171200
11
52.955677
21
54.372292
0
LINE
8
0
10
52.955600
20
54.372300
11
52.884666
21
54.569325
0
LINE
8
0
10
52.884700
20
54.569300
11
52.801538
21
54.761482
0
LINE
8
0
10
52.801500
20
54.761500
11
52.706431
21
54.948083
0
LINE
8
0
10
52.706500
20
54.948100
11
52.599905
21
55.128344
0
LINE
8
0
10
52.599900
20
55.128300
11
52.482196
21
55.301494
0
LINE
8
0
10
52.482200
20
55.301500
11
52.353854
21
55.466961
0
LINE
8
0
10
52.353800
20
55.467000
11
52.215319
21
55.624076
0
LINE
8
0
10
52.215400
20
55.624000
11
52.067327
21
55.772073
0
LINE
8
0
10
52.067300
20
55.772100
11
51.910224
21
55.910581
0
LINE
8
0
10
51.910200
20
55.910600
11
51.744739
21
56.038946
0
LINE
8
0
10
51.744700
20
56.038900
11
51.571506
21
56.156604
0
LINE
8
0
10
51.571500
20
56.156700
11
51.391256
21
56.263295
0
LINE
8
0
10
51.391300
20
56.263200
11
51.204717
21
56.358269
0
LINE
8
0
10
51.204700
20
56.358300
11
51.012518
21
56.441462
0
LINE
8
0
10
51.012500
20
56.441500
11
50.815475
21
56.512434
0
LINE
8
0
10
50.815500
20
56.512400
11
50.614408
21
56.570823
0
LINE
8
0
10
50.614400
20
56.570800
11
50.410040
21
56.616481
0
LINE
8
0
10
50.410100
20
56.616500
11
50.203274
21
56.649258
0
LINE
8
0
10
50.203200
20
56.649300
11
49.994723
21
56.668999
0
LINE
8
0
10
49.994800
20
56.669000
11
49.785499
21
56.675576
0
LINE
8
0
10
49.785500
20
56.675600
11
49.576199
21
56.669024
0
LINE
8
0
10
49.576200
20
56.669000
11
49.367725
21
56.649301
0
LINE
8
0
10
49.367700
20
56.649300
11
49.160874
21
56.616542
0
LINE
8
0
10
49.160900
20
56.616500
11
48.956537
21
56.570819
0
LINE
8
0
10
48.956500
20
56.570800
11
48.755411
21
56.512377
0
LINE
8
0
10
48.755400
20
56.512400
11
48.558372
21
56.441466
0
LINE
8
0
10
48.558400
20
56.441500
11
48.366218
21
56.358338
0
LINE
8
0
10
48.366200
20
56.358300
11
48.179620
21
56.263231
0
LINE
8
0
10
48.179600
20
56.263200
11
47.999356
21
56.156605
0
LINE
8
0
10
47.999400
20
56.156700
11
47.826206
21
56.038996
0
LINE
8
0
10
47.826200
20
56.038900
11
47.660736
21
55.910554
0
LINE
8
0
10
47.660700
20
55.910600
11
47.503624
21
55.772119
0
LINE
8
0
10
47.503600
20
55.772100
11
47.355529
21
55.624027
0
LINE
8
0
10
47.355600
20
55.624000
11
47.217116
21
55.466924
0
LINE
8
0
10
47.217100
20
55.467000
11
47.088754
21
55.301539
0
LINE
8
0
10
47.088700
20
55.301500
11
46.970999
21
55.128306
0
LINE
8
0
10
46.971000
20
55.128300
11
46.864402
21
54.948056
0
LINE
8
0
10
46.864400
20
54.948100
11
46.769334
21
54.761517
0
LINE
8
0
10
46.769400
20
54.761500
11
46.686235
21
54.569318
0
LINE
8
0
10
46.686200
20
54.569300
11
46.615266
21
54.372275
0
LINE
8
0
10
46.615300
20
54.372300
11
46.556877
21
54.171208
0
LINE
8
0
10
46.556900
20
54.171200
11
46.511219
21
53.966840
0
LINE
8
0
10
46.511200
20
53.966800
11
46.478442
21
53.759974
0
LINE
8
0
10
46.478400
20
53.760000
11
46.458701
21
53.551523
0
LINE
8
0
10
46.458700
20
53.551500
11
46.452124
21
53.342199
0
LINE
8
0
10
46.452100
20
53.342200
11
46.458676
21
53.132899
0
LINE
8
0
10
46.458700
20
53.132900
11
46.478399
21
52.924425
0
LINE
8
0
10
46.478400
20
52.924500
11
46.511158
21
52.717674
0
LINE
8
0
10
46.511200
20
52.717600
11
46.556881
21
52.513237
0
LINE
8
0
10
46.556900
20
52.513300
11
46.615323
21
52.312211
0
LINE
8
0
10
46.615300
20
52.312200
11
46.686234
21
52.115172
0
LINE
8
0
10
46.686200
20
52.115100
11
46.769365
21
51.922918
0
LINE
8
0
10
46.769400
20
51.923000
11
46.864466
21
51.736420
0
LINE
8
0
10
46.864400
20
51.736400
11
46.970998
21
51.556156
0
LINE
8
0
10
46.971000
20
51.556100
11
47.088701
21
51.382906
0
LINE
8
0
10
47.088700
20
51.382900
11
47.217046
21
51.217436
0
LINE
8
0
10
47.217100
20
51.217500
11
47.355584
21
51.060424
0
LINE
8
0
10
47.355600
20
51.060400
11
47.503671
21
50.912329
0
LINE
8
0
10
47.503600
20
50.912300
11
47.660676
21
50.773816
0
LINE
8
0
10
47.660700
20
50.773900
11
47.826164
21
50.645554
0
LINE
8
0
10
47.826200
20
50.645500
11
47.999394
21
50.527799
0
LINE
8
0
10
47.999400
20
50.527800
11
48.179644
21
50.421202
0
LINE
8
0
10
48.179600
20
50.421200
11
48.366180
21
50.326133
0
LINE
8
0
10
48.366200
20
50.326100
11
48.558382
21
50.242935
0
LINE
8
0
10
48.558400
20
50.243000
11
48.755428
21
50.172066
0
LINE
8
0
10
48.755400
20
50.172000
11
48.956489
21
50.113577
0
LINE
8
0
10
48.956500
20
50.113600
11
49.160863
21
50.067919
0
LINE
8
0
10
49.160900
20
50.067900
11
49.367726
21
50.035142
0
LINE
8
0
10
49.367700
20
50.035200
11
49.576175
21
50.015501
0
LINE
8
0
10
49.576200
20
50.015500
11
49.785501
21
50.008924
0
LINE
8
0
10
49.785500
20
50.008900
11
49.994801
21
50.015476
0
LINE
8
0
10
49.994800
20
50.015500
11
50.203277
21
50.035199
0
LINE
8
0
10
50.203200
20
50.035200
11
50.410026
21
50.067958
0
LINE
8
0
10
50.410100
20
50.067900
11
50.614460
21
50.113581
0
LINE
8
0
10
50.614400
20
50.113600
11
50.815492
21
50.172023
0
LINE
8
0
10
50.815500
20
50.172000
11
51.012525
21
50.242934
0
LINE
8
0
10
51.012500
20
50.243000
11
51.204682
21
50.326165
0
LINE
8
0
10
51.204700
20
50.326100
11
51.391283
21
50.421166
0
LINE
8
0
10
51.391300
20
50.421200
11
51.571544
21
50.527798
0
LINE
8
0
10
51.571500
20
50.527800
11
51.744694
21
50.645501
0
LINE
8
0
10
51.744700
20
50.645500
11
51.910161
21
50.773846
0
LINE
8
0
10
51.910200
20
50.773900
11
52.067276
21
50.912384
0
LINE
8
0
10
52.067300
20
50.912300
11
52.215373
21
51.060371
0
LINE
8
0
10
52.215400
20
51.060400
11
52.353881
21
51.217476
0
LINE
8
0
10
52.353800
20
51.217500
11
52.482146
21
51.382964
0
LINE
8
0
10
52.482200
20
51.382900
11
52.599904
21
51.556094
0
LINE
8
0
10
52.599900
20
51.556100
11
52.706495
21
51.736344
0
LINE
8
0
10
52.706500
20
51.736400
11
52.801569
21
51.922980
0
LINE
8
0
10
52.801500
20
51.923000
11
52.884662
21
52.115182
0
LINE
8
0
10
52.884700
20
52.115100
11
52.955634
21
52.312128
0
LINE
8
0
10
52.955600
20
52.312200
11
53.014023
21
52.513289
0
LINE
8
0
10
53.014100
20
52.513300
11
53.059781
21
52.717663
0
LINE
8
0
10
53.059700
20
52.717600
11
53.092458
21
52.924426
0
LINE
8
0
10
53.092500
20
52.924500
11
53.112199
21
53.132975
0
LINE
8
0
10
53.112200
20
53.132900
11
53.118776
21
53.342201
0
LINE
8
0
10
53.118800
20
170.675000
11
53.112224
21
170.884301
0
LINE
8
0
10
53.112200
20
170.885000
11
53.092501
21
171.093477
0
LINE
8
0
10
53.092500
20
171.093000
11
53.059742
21
171.299826
0
LINE
8
0
10
53.059700
20
171.300000
11
53.014019
21
171.504363
0
LINE
8
0
10
53.014100
20
171.504000
11
52.955677
21
171.705089
0
LINE
8
0
10
52.955600
20
171.706000
11
52.884666
21
171.903025
0
LINE
8
0
10
52.884700
20
171.903000
11
52.801538
21
172.095182
0
LINE
8
0
10
52.801500
20
172.095000
11
52.706431
21
172.281583
0
LINE
8
0
10
52.706500
20
172.281000
11
52.599905
21
172.461244
0
LINE
8
0
10
52.599900
20
172.462000
11
52.482196
21
172.635194
0
LINE
8
0
10
52.482200
20
172.635000
11
52.353854
21
172.800461
0
LINE
8
0
10
52.353800
20
172.800000
11
52.215319
21
172.957079
0
LINE
8
0
10
52.215400
20
172.957000
11
52.067327
21
173.105071
0
LINE
8
0
10
52.067300
20
173.105000
11
51.910224
21
173.243481
0
LINE
8
0
10
51.910200
20
173.244000
11
51.744739
21
173.372346
0
LINE
8
0
10
51.744700
20
173.372000
11
51.571506
21
173.489704
0
LINE
8
0
10
51.571500
20
173.490000
11
51.391256
21
173.596595
0
LINE
8
0
10
51.391300
20
173.596000
11
51.204717
21
173.691069
0
LINE
8
0
10
51.204700
20
173.692000
11
51.012518
21
173.775165
0
LINE
8
0
10
51.012500
20
173.775000
11
50.815475
21
173.845934
0
LINE
8
0
10
50.815500
20
173.846000
11
50.614408
21
173.904420
0
LINE
8
0
10
50.614400
20
173.904000
11
50.410040
21
173.949680
0
LINE
8
0
10
50.410100
20
173.950000
11
50.203274
21
173.982757
0
LINE
8
0
10
50.203200
20
173.983000
11
49.994723
21
174.002699
0
LINE
8
0
10
49.994800
20
174.002000
11
49.785499
21
174.008576
0
LINE
8
0
10
49.785500
20
174.009000
11
49.576199
21
174.002424
0
LINE
8
0
10
49.576200
20
174.002000
11
49.367725
21
173.982301
0
LINE
8
0
10
49.367700
20
173.983000
11
49.160874
21
173.950243
0
LINE
8
0
10
49.160900
20
173.950000
11
48.956537
21
173.904319
0
LINE
8
0
10
48.956500
20
173.904000
11
48.755411
21
173.845580
0
LINE
8
0
10
48.755400
20
173.846000
11
48.558372
21
173.775066
0
LINE
8
0
10
48.558400
20
173.775000
11
48.366218
21
173.691835
0
LINE
8
0
10
48.366200
20
173.692000
11
48.179620
21
173.596931
0
LINE
8
0
10
48.179600
20
173.596000
11
47.999356
21
173.489405
0
LINE
8
0
10
47.999400
20
173.490000
11
47.826206
21
173.372296
0
LINE
8
0
10
47.826200
20
173.372000
11
47.660736
21
173.243654
0
LINE
8
0
10
47.660700
20
173.244000
11
47.503624
21
173.105519
0
LINE
8
0
10
47.503600
20
173.105000
11
47.355529
21
172.956929
0
LINE
8
0
10
47.355600
20
172.957000
11
47.217116
21
172.799921
0
LINE
8
0
10
47.217100
20
172.800000
11
47.088754
21
172.634539
0
LINE
8
0
10
47.088700
20
172.635000
11
46.970999
21
172.461806
0
LINE
8
0
10
46.971000
20
172.462000
11
46.864402
21
172.281756
0
LINE
8
0
10
46.864400
20
172.281000
11
46.769334
21
172.094417
0
LINE
8
0
10
46.769400
20
172.095000
11
46.686235
21
171.902818
0
LINE
8
0
10
46.686200
20
171.903000
11
46.615266
21
171.705975
0
LINE
8
0
10
46.615300
20
171.706000
11
46.556877
21
171.504911
0
LINE
8
0
10
46.556900
20
171.504000
11
46.511219
21
171.299637
0
LINE
8
0
10
46.511200
20
171.300000
11
46.478442
21
171.093174
0
LINE
8
0
10
46.478400
20
171.093000
11
46.458701
21
170.884523
0
LINE
8
0
10
46.458700
20
170.885000
11
46.452124
21
170.675699
0
LINE
8
0
10
46.452100
20
170.675000
11
46.458676
21
170.465699
0
LINE
8
0
10
46.458700
20
170.466000
11
46.478399
21
170.257525
0
LINE
8
0
10
46.478400
20
170.258000
11
46.511158
21
170.051174
0
LINE
8
0
10
46.511200
20
170.051000
11
46.556881
21
169.846637
0
LINE
8
0
10
46.556900
20
169.847000
11
46.615323
21
169.645911
0
LINE
8
0
10
46.615300
20
169.645000
11
46.686234
21
169.447975
0
LINE
8
0
10
46.686200
20
169.448000
11
46.769365
21
169.255815
0
LINE
8
0
10
46.769400
20
169.256000
11
46.864466
21
169.069420
0
LINE
8
0
10
46.864400
20
169.070000
11
46.970998
21
168.889756
0
LINE
8
0
10
46.971000
20
168.889000
11
47.088701
21
168.715806
0
LINE
8
0
10
47.088700
20
168.716000
11
47.217046
21
168.550536
0
LINE
8
0
10
47.217100
20
168.551000
11
47.355584
21
168.393924
0
LINE
8
0
10
47.355600
20
168.394000
11
47.503671
21
168.245929
0
LINE
8
0
10
47.503600
20
168.246000
11
47.660676
21
168.107516
0
LINE
8
0
10
47.660700
20
168.107000
11
47.826164
21
167.978657
0
LINE
8
0
10
47.826200
20
167.979000
11
47.999394
21
167.861296
0
LINE
8
0
10
47.999400
20
167.861000
11
48.179644
21
167.754405
0
LINE
8
0
10
48.179600
20
167.754000
11
48.366180
21
167.658931
0
LINE
8
0
10
48.366200
20
167.659000
11
48.558382
21
167.575835
0
LINE
8
0
10
48.558400
20
167.576000
11
48.755428
21
167.505066
0
LINE
8
0
10
48.755400
20
167.505000
11
48.956489
21
167.446580
0
LINE
8
0
10
48.956500
20
167.447000
11
49.160863
21
167.401319
0
LINE
8
0
10
49.160900
20
167.401000
11
49.367726
21
167.368240
0
LINE
8
0
10
49.367700
20
167.368000
11
49.576175
21
167.348301
0
LINE
8
0
10
49.576200
20
167.349000
11
49.785501
21
167.342424
0
LINE
8
0
10
49.785500
20
167.342000
11
49.994801
21
167.348576
0
LINE
8
0
10
49.994800
20
167.349000
11
50.203277
21
167.368699
0
LINE
8
0
10
50.203200
20
167.368000
11
50.410026
21
167.400760
0
LINE
8
0
10
50.410100
20
167.401000
11
50.614460
21
167.446681
0
LINE
8
0
10
50.614400
20
167.447000
11
50.815492
21
167.505420
0
LINE
8
0
10
50.815500
20
167.505000
11
51.012525
21
167.575934
0
LINE
8
0
10
51.012500
20
167.576000
11
51.204682
21
167.659165
0
LINE
8
0
10
51.204700
20
167.659000
11
51.391283
21
167.754069
0
LINE
8
0
10
51.391300
20
167.754000
11
51.571544
21
167.860595
0
LINE
8
0
10
51.571500
20
167.861000
11
51.744694
21
167.978704
0
LINE
8
0
10
51.744700
20
167.979000
11
51.910161
21
168.107343
0
LINE
8
0
10
51.910200
20
168.107000
11
52.067276
21
168.245484
0
LINE
8
0
10
52.067300
20
168.246000
11
52.215373
21
168.394071
0
LINE
8
0
10
52.215400
20
168.394000
11
52.353881
21
168.551076
0
LINE
8
0
10
52.353800
20
168.551000
11
52.482146
21
168.716464
0
LINE
8
0
10
52.482200
20
168.716000
11
52.599904
21
168.889194
0
LINE
8
0
10
52.599900
20
168.889000
11
52.706495
21
169.069244
0
LINE
8
0
10
52.706500
20
169.070000
11
52.801569
21
169.256580
0
LINE
8
0
10
52.801500
20
169.256000
11
52.884662
21
169.448185
0
LINE
8
0
10
52.884700
20
169.448000
11
52.955634
21
169.645025
0
LINE
8
0
10
52.955600
20
169.645000
11
53.014023
21
169.846089
0
LINE
8
0
10
53.014100
20
169.847000
11
53.059781
21
170.051363
0
LINE
8
0
10
53.059700
20
170.051000
11
53.092458
21
170.257826
0
LINE
8
0
10
53.092500
20
170.258000
11
53.112199
21
170.466475
0
LINE
8
0
10
53.112200
20
170.466000
11
53.118776
21
170.675301
0
LINE
8
0
10
53.118800
20
149.342000
11
53.112224
21
149.551301
0
LINE
8
0
10
53.112200
20
149.551000
11
53.092501
21
149.759477
0
LINE
8
0
10
53.092500
20
149.760000
11
53.059742
21
149.966826
0
LINE
8
0
10
53.059700
20
149.967000
11
53.014019
21
150.171363
0
LINE
8
0
10
53.014100
20
150.171000
11
52.955677
21
150.372089
0
LINE
8
0
10
52.955600
20
150.372000
11
52.884666
21
150.569025
0
LINE
8
0
10
52.884700
20
150.569000
11
52.801538
21
150.761182
0
LINE
8
0
10
52.801500
20
150.761000
11
52.706431
21
150.947583
0
LINE
8
0
10
52.706500
20
150.948000
11
52.599905
21
151.128244
0
LINE
8
0
10
52.599900
20
151.128000
11
52.482196
21
151.301194
0
LINE
8
0
10
52.482200
20
151.301000
11
52.353854
21
151.466461
0
LINE
8
0
10
52.353800
20
151.467000
11
52.215319
21
151.624076
0
LINE
8
0
10
52.215400
20
151.624000
11
52.067327
21
151.772073
0
LINE
8
0
10
52.067300
20
151.772000
11
51.910224
21
151.910481
0
LINE
8
0
10
51.910200
20
151.911000
11
51.744739
21
152.039346
0
LINE
8
0
10
51.744700
20
152.039000
11
51.571506
21
152.156704
0
LINE
8
0
10
51.571500
20
152.157000
11
51.391256
21
152.263595
0
LINE
8
0
10
51.391300
20
152.263000
11
51.204717
21
152.358069
0
LINE
8
0
10
51.204700
20
152.358000
11
51.012518
21
152.441162
0
LINE
8
0
10
51.012500
20
152.441000
11
50.815475
21
152.511934
0
LINE
8
0
10
50.815500
20
152.512000
11
50.614408
21
152.570423
0
LINE
8
0
10
50.614400
20
152.571000
11
50.410040
21
152.616681
0
LINE
8
0
10
50.410100
20
152.616000
11
50.203274
21
152.648758
0
LINE
8
0
10
50.203200
20
152.649000
11
49.994723
21
152.668699
0
LINE
8
0
10
49.994800
20
152.669000
11
49.785499
21
152.675576
0
LINE
8
0
10
49.785500
20
152.675000
11
49.576199
21
152.668424
0
LINE
8
0
10
49.576200
20
152.669000
11
49.367725
21
152.649301
0
LINE
8
0
10
49.367700
20
152.649000
11
49.160874
21
152.616242
0
LINE
8
0
10
49.160900
20
152.616000
11
48.956537
21
152.570320
0
LINE
8
0
10
48.956500
20
152.571000
11
48.755411
21
152.512577
0
LINE
8
0
10
48.755400
20
152.512000
11
48.558372
21
152.441066
0
LINE
8
0
10
48.558400
20
152.441000
11
48.366218
21
152.357838
0
LINE
8
0
10
48.366200
20
152.358000
11
48.179620
21
152.262931
0
LINE
8
0
10
48.179600
20
152.263000
11
47.999356
21
152.156405
0
LINE
8
0
10
47.999400
20
152.157000
11
47.826206
21
152.039296
0
LINE
8
0
10
47.826200
20
152.039000
11
47.660736
21
151.910654
0
LINE
8
0
10
47.660700
20
151.911000
11
47.503624
21
151.772519
0
LINE
8
0
10
47.503600
20
151.772000
11
47.355529
21
151.623927
0
LINE
8
0
10
47.355600
20
151.624000
11
47.217116
21
151.466924
0
LINE
8
0
10
47.217100
20
151.467000
11
47.088754
21
151.301539
0
LINE
8
0
10
47.088700
20
151.301000
11
46.970999
21
151.127806
0
LINE
8
0
10
46.971000
20
151.128000
11
46.864402
21
150.947756
0
LINE
8
0
10
46.864400
20
150.948000
11
46.769334
21
150.761417
0
LINE
8
0
10
46.769400
20
150.761000
11
46.686235
21
150.568818
0
LINE
8
0
10
46.686200
20
150.569000
11
46.615266
21
150.371975
0
LINE
8
0
10
46.615300
20
150.372000
11
46.556877
21
150.170911
0
LINE
8
0
10
46.556900
20
150.171000
11
46.511219
21
149.966637
0
LINE
8
0
10
46.511200
20
149.967000
11
46.478442
21
149.760174
0
LINE
8
0
10
46.478400
20
149.760000
11
46.458701
21
149.551523
0
LINE
8
0
10
46.458700
20
149.551000
11
46.452124
21
149.341699
0
LINE
8
0
10
46.452100
20
149.342000
11
46.458676
21
149.132699
0
LINE
8
0
10
46.458700
20
149.133000
11
46.478399
21
148.924525
0
LINE
8
0
10
46.478400
20
148.924000
11
46.511158
21
148.717174
0
LINE
8
0
10
46.511200
20
148.718000
11
46.556881
21
148.513637
0
LINE
8
0
10
46.556900
20
148.513000
11
46.615323
21
148.311911
0
LINE
8
0
10
46.615300
20
148.312000
11
46.686234
21
148.114975
0
LINE
8
0
10
46.686200
20
148.115000
11
46.769365
21
147.922815
0
LINE
8
0
10
46.769400
20
147.923000
11
46.864466
21
147.736420
0
LINE
8
0
10
46.864400
20
147.736000
11
46.970998
21
147.555756
0
LINE
8
0
10
46.971000
20
147.556000
11
47.088701
21
147.382806
0
LINE
8
0
10
47.088700
20
147.383000
11
47.217046
21
147.217536
0
LINE
8
0
10
47.217100
20
147.217000
11
47.355584
21
147.059924
0
LINE
8
0
10
47.355600
20
147.060000
11
47.503671
21
146.911929
0
LINE
8
0
10
47.503600
20
146.912000
11
47.660676
21
146.773516
0
LINE
8
0
10
47.660700
20
146.774000
11
47.826164
21
146.645654
0
LINE
8
0
10
47.826200
20
146.645000
11
47.999394
21
146.527299
0
LINE
8
0
10
47.999400
20
146.528000
11
48.179644
21
146.421402
0
LINE
8
0
10
48.179600
20
146.421000
11
48.366180
21
146.325933
0
LINE
8
0
10
48.366200
20
146.326000
11
48.558382
21
146.242835
0
LINE
8
0
10
48.558400
20
146.243000
11
48.755428
21
146.172066
0
LINE
8
0
10
48.755400
20
146.172000
11
48.956489
21
146.113577
0
LINE
8
0
10
48.956500
20
146.114000
11
49.160863
21
146.068322
0
LINE
8
0
10
49.160900
20
146.068000
11
49.367726
21
146.035240
0
LINE
8
0
10
49.367700
20
146.035000
11
49.576175
21
146.015301
0
LINE
8
0
10
49.576200
20
146.015000
11
49.785501
21
146.008424
0
LINE
8
0
10
49.785500
20
146.009000
11
49.994801
21
146.015576
0
LINE
8
0
10
49.994800
20
146.015000
11
50.203277
21
146.034699
0
LINE
8
0
10
50.203200
20
146.035000
11
50.410026
21
146.067760
0
LINE
8
0
10
50.410100
20
146.068000
11
50.614460
21
146.113678
0
LINE
8
0
10
50.614400
20
146.114000
11
50.815492
21
146.172423
0
LINE
8
0
10
50.815500
20
146.172000
11
51.012525
21
146.242934
0
LINE
8
0
10
51.012500
20
146.243000
11
51.204682
21
146.326165
0
LINE
8
0
10
51.204700
20
146.326000
11
51.391283
21
146.421066
0
LINE
8
0
10
51.391300
20
146.421000
11
51.571544
21
146.527598
0
LINE
8
0
10
51.571500
20
146.528000
11
51.744694
21
146.645701
0
LINE
8
0
10
51.744700
20
146.645000
11
51.910161
21
146.773346
0
LINE
8
0
10
51.910200
20
146.774000
11
52.067276
21
146.912484
0
LINE
8
0
10
52.067300
20
146.912000
11
52.215373
21
147.060071
0
LINE
8
0
10
52.215400
20
147.060000
11
52.353881
21
147.217076
0
LINE
8
0
10
52.353800
20
147.217000
11
52.482146
21
147.382464
0
LINE
8
0
10
52.482200
20
147.383000
11
52.599904
21
147.556194
0
LINE
8
0
10
52.599900
20
147.556000
11
52.706495
21
147.736244
0
LINE
8
0
10
52.706500
20
147.736000
11
52.801569
21
147.922580
0
LINE
8
0
10
52.801500
20
147.923000
11
52.884662
21
148.115185
0
LINE
8
0
10
52.884700
20
148.115000
11
52.955634
21
148.312025
0
LINE
8
0
10
52.955600
20
148.312000
11
53.014023
21
148.513089
0
LINE
8
0
10
53.014100
20
148.513000
11
53.059781
21
148.717363
0
LINE
8
0
10
53.059700
20
148.718000
11
53.092458
21
148.924826
0
LINE
8
0
10
53.092500
20
148.924000
11
53.112199
21
149.132475
0
LINE
8
0
10
53.112200
20
149.133000
11
53.118776
21
149.342301
0
LINE
8
0
10
117.119000
20
74.675500
11
117.112424
21
74.884801
0
LINE
8
0
10
117.112000
20
74.884800
11
117.092301
21
75.093277
0
LINE
8
0
10
117.092000
20
75.093300
11
117.059240
21
75.300126
0
LINE
8
0
10
117.060000
20
75.300100
11
117.014319
21
75.504463
0
LINE
8
0
10
117.014000
20
75.504500
11
116.955580
21
75.705589
0
LINE
8
0
10
116.956000
20
75.705600
11
116.885066
21
75.902625
0
LINE
8
0
10
116.885000
20
75.902600
11
116.801835
21
76.094782
0
LINE
8
0
10
116.801000
20
76.094800
11
116.705934
21
76.281383
0
LINE
8
0
10
116.706000
20
76.281400
11
116.599402
21
76.461644
0
LINE
8
0
10
116.600000
20
76.461600
11
116.482299
21
76.634794
0
LINE
8
0
10
116.482000
20
76.634800
11
116.353654
21
76.800261
0
LINE
8
0
10
116.354000
20
76.800300
11
116.215516
21
76.957379
0
LINE
8
0
10
116.215000
20
76.957400
11
116.066929
21
77.105471
0
LINE
8
0
10
116.067000
20
77.105400
11
115.909924
21
77.243881
0
LINE
8
0
10
115.910000
20
77.243900
11
115.744536
21
77.372246
0
LINE
8
0
10
115.745000
20
77.372300
11
115.571806
21
77.490004
0
LINE
8
0
10
115.571000
20
77.490000
11
115.390756
21
77.596595
0
LINE
8
0
10
115.391000
20
77.596600
11
115.204420
21
77.691669
0
LINE
8
0
10
115.205000
20
77.691600
11
115.012815
21
77.774765
0
LINE
8
0
10
115.012000
20
77.774800
11
114.814975
21
77.845731
0
LINE
8
0
10
114.815000
20
77.845700
11
114.613911
21
77.904123
0
LINE
8
0
10
114.614000
20
77.904200
11
114.409637
21
77.949881
0
LINE
8
0
10
114.410000
20
77.949800
11
114.203174
21
77.982557
0
LINE
8
0
10
114.203000
20
77.982600
11
113.994525
21
78.002299
0
LINE
8
0
10
113.995000
20
78.002300
11
113.785699
21
78.008876
0
LINE
8
0
10
113.785000
20
78.008900
11
113.575699
21
78.002324
0
LINE
8
0
10
113.576000
20
78.002300
11
113.367523
21
77.982601
0
LINE
8
0
10
113.368000
20
77.982600
11
113.161174
21
77.949843
0
LINE
8
0
10
113.161000
20
77.949800
11
112.956637
21
77.904119
0
LINE
8
0
10
112.956000
20
77.904200
11
112.754911
21
77.845777
0
LINE
8
0
10
112.755000
20
77.845700
11
112.557975
21
77.774769
0
LINE
8
0
10
112.558000
20
77.774800
11
112.365818
21
77.691635
0
LINE
8
0
10
112.366000
20
77.691600
11
112.179417
21
77.596531
0
LINE
8
0
10
112.180000
20
77.596600
11
111.999756
21
77.490005
0
LINE
8
0
10
111.999000
20
77.490000
11
111.825806
21
77.372296
0
LINE
8
0
10
111.826000
20
77.372300
11
111.660539
21
77.243954
0
LINE
8
0
10
111.661000
20
77.243900
11
111.503921
21
77.105419
0
LINE
8
0
10
111.504000
20
77.105400
11
111.355929
21
76.957329
0
LINE
8
0
10
111.356000
20
76.957400
11
111.217519
21
76.800321
0
LINE
8
0
10
111.217000
20
76.800300
11
111.088654
21
76.634839
0
LINE
8
0
10
111.089000
20
76.634800
11
110.971296
21
76.461606
0
LINE
8
0
10
110.971000
20
76.461600
11
110.864405
21
76.281356
0
LINE
8
0
10
110.864000
20
76.281400
11
110.768931
21
76.094817
0
LINE
8
0
10
110.769000
20
76.094800
11
110.685835
21
75.902618
0
LINE
8
0
10
110.686000
20
75.902600
11
110.615069
21
75.705575
0
LINE
8
0
10
110.615000
20
75.705600
11
110.556577
21
75.504511
0
LINE
8
0
10
110.557000
20
75.504500
11
110.511319
21
75.300137
0
LINE
8
0
10
110.511000
20
75.300100
11
110.478242
21
75.093274
0
LINE
8
0
10
110.478000
20
75.093300
11
110.458301
21
74.884823
0
LINE
8
0
10
110.459000
20
74.884800
11
110.452424
21
74.675499
0
LINE
8
0
10
110.452000
20
74.675500
11
110.458576
21
74.466199
0
LINE
8
0
10
110.459000
20
74.466200
11
110.478699
21
74.257725
0
LINE
8
0
10
110.478000
20
74.257800
11
110.510757
21
74.050974
0
LINE
8
0
10
110.511000
20
74.050900
11
110.556680
21
73.846537
0
LINE
8
0
10
110.557000
20
73.846600
11
110.615423
21
73.645511
0
LINE
8
0
10
110.615000
20
73.645500
11
110.685931
21
73.448475
0
LINE
8
0
10
110.686000
20
73.448500
11
110.769165
21
73.256315
0
LINE
8
0
10
110.769000
20
73.256300
11
110.864069
21
73.069720
0
LINE
8
0
10
110.864000
20
73.069700
11
110.970595
21
72.889456
0
LINE
8
0
10
110.971000
20
72.889500
11
111.088704
21
72.716306
0
LINE
8
0
10
111.089000
20
72.716300
11
111.217346
21
72.550836
0
LINE
8
0
10
111.217000
20
72.550800
11
111.355481
21
72.393724
0
LINE
8
0
10
111.356000
20
72.393700
11
111.504071
21
72.245629
0
LINE
8
0
10
111.504000
20
72.245700
11
111.661079
21
72.107216
0
LINE
8
0
10
111.661000
20
72.107200
11
111.826461
21
71.978854
0
LINE
8
0
10
111.826000
20
71.978800
11
111.999194
21
71.861099
0
LINE
8
0
10
111.999000
20
71.861100
11
112.179244
21
71.754502
0
LINE
8
0
10
112.180000
20
71.754500
11
112.366583
21
71.659433
0
LINE
8
0
10
112.366000
20
71.659500
11
112.558182
21
71.576335
0
LINE
8
0
10
112.558000
20
71.576300
11
112.755025
21
71.505366
0
LINE
8
0
10
112.755000
20
71.505400
11
112.956089
21
71.446980
0
LINE
8
0
10
112.956000
20
71.446900
11
113.160363
21
71.401219
0
LINE
8
0
10
113.161000
20
71.401300
11
113.367826
21
71.368540
0
LINE
8
0
10
113.368000
20
71.368500
11
113.576477
21
71.348801
0
LINE
8
0
10
113.576000
20
71.348800
11
113.785301
21
71.342224
0
LINE
8
0
10
113.785000
20
71.342200
11
113.994301
21
71.348776
0
LINE
8
0
10
113.995000
20
71.348800
11
114.203475
21
71.368499
0
LINE
8
0
10
114.203000
20
71.368500
11
114.409826
21
71.401260
0
LINE
8
0
10
114.410000
20
71.401300
11
114.614363
21
71.446981
0
LINE
8
0
10
114.614000
20
71.446900
11
114.815089
21
71.505320
0
LINE
8
0
10
114.815000
20
71.505400
11
115.012025
21
71.576334
0
LINE
8
0
10
115.012000
20
71.576300
11
115.204185
21
71.659465
0
LINE
8
0
10
115.205000
20
71.659500
11
115.391580
21
71.754566
0
LINE
8
0
10
115.391000
20
71.754500
11
115.571244
21
71.861098
0
LINE
8
0
10
115.571000
20
71.861100
11
115.744194
21
71.978801
0
LINE
8
0
10
115.745000
20
71.978800
11
115.910464
21
72.107146
0
LINE
8
0
10
115.910000
20
72.107200
11
116.067076
21
72.245684
0
LINE
8
0
10
116.067000
20
72.245700
11
116.215071
21
72.393771
0
LINE
8
0
10
116.215000
20
72.393700
11
116.353484
21
72.550776
0
LINE
8
0
10
116.354000
20
72.550800
11
116.482346
21
72.716264
0
LINE
8
0
10
116.482000
20
72.716300
11
116.599701
21
72.889494
0
LINE
8
0
10
116.600000
20
72.889500
11
116.706598
21
73.069744
0
LINE
8
0
10
116.706000
20
73.069700
11
116.801067
21
73.256280
0
LINE
8
0
10
116.801000
20
73.256300
11
116.884165
21
73.448485
0
LINE
8
0
10
116.885000
20
73.448500
11
116.955934
21
73.645525
0
LINE
8
0
10
116.956000
20
73.645500
11
117.014420
21
73.846589
0
LINE
8
0
10
117.014000
20
73.846600
11
117.059680
21
74.050963
0
LINE
8
0
10
117.060000
20
74.050900
11
117.092760
21
74.257726
0
LINE
8
0
10
117.092000
20
74.257800
11
117.111699
21
74.466275
0
LINE
8
0
10
117.112000
20
74.466200
11
117.118576
21
74.675501
0
LINE
8
0
10
117.119000
20
53.342200
11
117.112424
21
53.551501
0
LINE
8
0
10
117.112000
20
53.551500
11
117.092301
21
53.759977
0
LINE
8
0
10
117.092000
20
53.760000
11
117.059240
21
53.966826
0
LINE
8
0
10
117.060000
20
53.966800
11
117.014319
21
54.171160
0
LINE
8
0
10
117.014000
20
54.171200
11
116.955580
21
54.372292
0
LINE
8
0
10
116.956000
20
54.372300
11
116.885066
21
54.569325
0
LINE
8
0
10
116.885000
20
54.569300
11
116.801835
21
54.761482
0
LINE
8
0
10
116.801000
20
54.761500
11
116.705934
21
54.948083
0
LINE
8
0
10
116.706000
20
54.948100
11
116.599402
21
55.128344
0
LINE
8
0
10
116.600000
20
55.128300
11
116.482299
21
55.301494
0
LINE
8
0
10
116.482000
20
55.301500
11
116.353654
21
55.466961
0
LINE
8
0
10
116.354000
20
55.467000
11
116.215516
21
55.624076
0
LINE
8
0
10
116.215000
20
55.624000
11
116.066929
21
55.772073
0
LINE
8
0
10
116.067000
20
55.772100
11
115.909924
21
55.910581
0
LINE
8
0
10
115.910000
20
55.910600
11
115.744536
21
56.038946
0
LINE
8
0
10
115.745000
20
56.038900
11
115.571806
21
56.156604
0
LINE
8
0
10
115.571000
20
56.156700
11
115.390756
21
56.263295
0
LINE
8
0
10
115.391000
20
56.263200
11
115.204420
21
56.358269
0
LINE
8
0
10
115.205000
20
56.358300
11
115.012815
21
56.441462
0
LINE
8
0
10
115.012000
20
56.441500
11
114.814975
21
56.512434
0
LINE
8
0
10
114.815000
20
56.512400
11
114.613911
21
56.570823
0
LINE
8
0
10
114.614000
20
56.570800
11
114.409637
21
56.616481
0
LINE
8
0
10
114.410000
20
56.616500
11
114.203174
21
56.649258
0
LINE
8
0
10
114.203000
20
56.649300
11
113.994525
21
56.668999
0
LINE
8
0
10
113.995000
20
56.669000
11
113.785699
21
56.675576
0
LINE
8
0
10
113.785000
20
56.675600
11
113.575699
21
56.669024
0
LINE
8
0
10
113.576000
20
56.669000
11
113.367523
21
56.649301
0
LINE
8
0
10
113.368000
20
56.649300
11
113.161174
21
56.616542
0
LINE
8
0
10
113.161000
20
56.616500
11
112.956637
21
56.570819
0
LINE
8
0
10
112.956000
20
56.570800
11
112.754911
21
56.512377
0
LINE
8
0
10
112.755000
20
56.512400
11
112.557975
21
56.441466
0
LINE
8
0
10
112.558000
20
56.441500
11
112.365818
21
56.358338
0
LINE
8
0
10
112.366000
20
56.358300
11
112.179417
21
56.263231
0
LINE
8
0
10
112.180000
20
56.263200
11
111.999756
21
56.156605
0
LINE
8
0
10
111.999000
20
56.156700
11
111.825806
21
56.038996
0
LINE
8
0
10
111.826000
20
56.038900
11
111.660539
21
55.910554
0
LINE
8
0
10
111.661000
20
55.910600
11
111.503921
21
55.772119
0
LINE
8
0
10
111.504000
20
55.772100
11
111.355929
21
55.624027
0
LINE
8
0
10
111.356000
20
55.624000
11
111.217519
21
55.466924
0
LINE
8
0
10
111.217000
20
55.467000
11
111.088654
21
55.301539
0
LINE
8
0
10
111.089000
20
55.301500
11
110.971296
21
55.128306
0
LINE
8
0
10
110.971000
20
55.128300
11
110.864405
21
54.948056
0
LINE
8
0
10
110.864000
20
54.948100
11
110.768931
21
54.761517
0
LINE
8
0
10
110.769000
20
54.761500
11
110.685835
21
54.569318
0
LINE
8
0
10
110.686000
20
54.569300
11
110.615069
21
54.372275
0
LINE
8
0
10
110.615000
20
54.372300
11
110.556577
21
54.171208
0
LINE
8
0
10
110.557000
20
54.171200
11
110.511319
21
53.966840
0
LINE
8
0
10
110.511000
20
53.966800
11
110.478242
21
53.759974
0
LINE
8
0
10
110.478000
20
53.760000
11
110.458301
21
53.551523
0
LINE
8
0
10
110.459000
20
53.551500
11
110.452424
21
53.342199
0
LINE
8
0
10
110.452000
20
53.342200
11
110.458576
21
53.132899
0
LINE
8
0
10
110.459000
20
53.132900
11
110.478699
21
52.924425
0
LINE
8
0
10
110.478000
20
52.924500
11
110.510757
21
52.717674
0
LINE
8
0
10
110.511000
20
52.717600
11
110.556680
21
52.513237
0
LINE
8
0
10
110.557000
20
52.513300
11
110.615423
21
52.312211
0
LINE
8
0
10
110.615000
20
52.312200
11
110.685931
21
52.115172
0
LINE
8
0
10
110.686000
20
52.115100
11
110.769165
21
51.922918
0
LINE
8
0
10
110.769000
20
51.923000
11
110.864069
21
51.736420
0
LINE
8
0
10
110.864000
20
51.736400
11
110.970595
21
51.556156
0
LINE
8
0
10
110.971000
20
51.556100
11
111.088704
21
51.382906
0
LINE
8
0
10
111.089000
20
51.382900
11
111.217346
21
51.217436
0
LINE
8
0
10
111.217000
20
51.217500
11
111.355481
21
51.060424
0
LINE
8
0
10
111.356000
20
51.060400
11
111.504071
21
50.912329
0
LINE
8
0
10
111.504000
20
50.912300
11
111.661079
21
50.773816
0
LINE
8
0
10
111.661000
20
50.773900
11
111.826461
21
50.645554
0
LINE
8
0
10
111.826000
20
50.645500
11
111.999194
21
50.527799
0
LINE
8
0
10
111.999000
20
50.527800
11
112.179244
21
50.421202
0
LINE
8
0
10
112.180000
20
50.421200
11
112.366583
21
50.326133
0
LINE
8
0
10
112.366000
20
50.326100
11
112.558182
21
50.242935
0
LINE
8
0
10
112.558000
20
50.243000
11
112.755025
21
50.172066
0
LINE
8
0
10
112.755000
20
50.172000
11
112.956089
21
50.113577
0
LINE
8
0
10
112.956000
20
50.113600
11
113.160363
21
50.067919
0
LINE
8
0
10
113.161000
20
50.067900
11
113.367826
21
50.035142
0
LINE
8
0
10
113.368000
20
50.035200
11
113.576477
21
50.015501
0
LINE
8
0
10
113.576000
20
50.015500
11
113.785301
21
50.008924
0
LINE
8
0
10
113.785000
20
50.008900
11
113.994301
21
50.015476
0
LINE
8
0
10
113.995000
20
50.015500
11
114.203475
21
50.035199
0
LINE
8
0
10
114.203000
20
50.035200
11
114.409826
21
50.067958
0
LINE
8
0
10
114.410000
20
50.067900
11
114.614363
21
50.113581
0
LINE
8
0
10
114.614000
20
50.113600
11
114.815089
21
50.172023
0
LINE
8
0
10
114.815000
20
50.172000
11
115.012025
21
50.242934
0
LINE
8
0
10
115.012000
20
50.243000
11
115.204185
21
50.326165
0
LINE
8
0
10
115.205000
20
50.326100
11
115.391580
21
50.421166
0
LINE
8
0
10
115.391000
20
50.421200
11
115.571244
21
50.527798
0
LINE
8
0
10
115.571000
20
50.527800
11
115.744194
21
50.645501
0
LINE
8
0
10
115.745000
20
50.645500
11
115.910464
21
50.773846
0
LINE
8
0
10
115.910000
20
50.773900
11
116.067076
21
50.912384
0
LINE
8
0
10
116.067000
20
50.912300
11
116.215071
21
51.060371
0
LINE
8
0
10
116.215000
20
51.060400
11
116.353484
21
51.217476
0
LINE
8
0
10
116.354000
20
51.217500
11
116.482346
21
51.382964
0
LINE
8
0
10
116.482000
20
51.382900
11
116.599701
21
51.556094
0
LINE
8
0
10
116.600000
20
51.556100
11
116.706598
21
51.736344
0
LINE
8
0
10
116.706000
20
51.736400
11
116.801067
21
51.922980
0
LINE
8
0
10
116.801000
20
51.923000
11
116.884165
21
52.115182
0
LINE
8
0
10
116.885000
20
52.115100
11
116.955934
21
52.312128
0
LINE
8
0
10
116.956000
20
52.312200
11
117.014420
21
52.513289
0
LINE
8
0
10
117.014000
20
52.513300
11
117.059680
21
52.717663
0
LINE
8
0
10
117.060000
20
52.717600
11
117.092760
21
52.924426
0
LINE
8
0
10
117.092000
20
52.924500
11
117.111699
21
53.132975
0
LINE
8
0
10
117.112000
20
53.132900
11
117.118576
21
53.342201
0
LINE
8
0
10
117.119000
20
170.675000
11
117.112424
21
170.884301
0
LINE
8
0
10
117.112000
20
170.885000
11
117.092301
21
171.093477
0
LINE
8
0
10
117.092000
20
171.093000
11
117.059240
21
171.299826
0
LINE
8
0
10
117.060000
20
171.300000
11
117.014319
21
171.504363
0
LINE
8
0
10
117.014000
20
171.504000
11
116.955580
21
171.705089
0
LINE
8
0
10
116.956000
20
171.706000
11
116.885066
21
171.903025
0
LINE
8
0
10
116.885000
20
171.903000
11
116.801835
21
172.095182
0
LINE
8
0
10
116.801000
20
172.095000
11
116.705934
21
172.281583
0
LINE
8
0
10
116.706000
20
172.281000
11
116.599402
21
172.461244
0
LINE
8
0
10
116.600000
20
172.462000
11
116.482299
21
172.635194
0
LINE
8
0
10
116.482000
20
172.635000
11
116.353654
21
172.800461
0
LINE
8
0
10
116.354000
20
172.800000
11
116.215516
21
172.957079
0
LINE
8
0
10
116.215000
20
172.957000
11
116.066929
21
173.105071
0
LINE
8
0
10
116.067000
20
173.105000
11
115.909924
21
173.243481
0
LINE
8
0
10
115.910000
20
173.244000
11
115.744536
21
173.372346
0
LINE
8
0
10
115.745000
20
173.372000
11
115.571806
21
173.489704
0
LINE
8
0
10
115.571000
20
173.490000
11
115.390756
21
173.596595
0
LINE
8
0
10
115.391000
20
173.596000
11
115.204420
21
173.691069
0
LINE
8
0
10
115.205000
20
173.692000
11
115.012815
21
173.775165
0
LINE
8
0
10
115.012000
20
173.775000
11
114.814975
21
173.845934
0
LINE
8
0
10
114.815000
20
173.846000
11
114.613911
21
173.904420
0
LINE
8
0
10
114.614000
20
173.904000
11
114.409637
21
173.949680
0
LINE
8
0
10
114.410000
20
173.950000
11
114.203174
21
173.982757
0
LINE
8
0
10
114.203000
20
173.983000
11
113.994525
21
174.002699
0
LINE
8
0
10
113.995000
20
174.002000
11
113.785699
21
174.008576
0
LINE
8
0
10
113.785000
20
174.009000
11
113.575699
21
174.002424
0
LINE
8
0
10
113.576000
20
174.002000
11
113.367523
21
173.982301
0
LINE
8
0
10
113.368000
20
173.983000
11
113.161174
21
173.950243
0
LINE
8
0
10
113.161000
20
173.950000
11
112.956637
21
173.904319
0
LINE
8
0
10
112.956000
20
173.904000
11
112.754911
21
173.845580
0
LINE
8
0
10
112.755000
20
173.846000
11
112.557975
21
173.775066
0
LINE
8
0
10
112.558000
20
173.775000
11
112.365818
21
173.691835
0
LINE
8
0
10
112.366000
20
173.692000
11
112.179417
21
173.596931
0
LINE
8
0
10
112.180000
20
173.596000
11
111.999756
21
173.489405
0
LINE
8
0
10
111.999000
20
173.490000
11
111.825806
21
173.372296
0
LINE
8
0
10
111.826000
20
173.372000
11
111.660539
21
173.243654
0
LINE
8
0
10
111.661000
20
173.244000
11
111.503921
21
173.105519
0
LINE
8
0
10
111.504000
20
173.105000
11
111.355929
21
172.956929
0
LINE
8
0
10
111.356000
20
172.957000
11
111.217519
21
172.799921
0
LINE
8
0
10
111.217000
20
172.800000
11
111.088654
21
172.634539
0
LINE
8
0
10
111.089000
20
172.635000
11
110.971296
21
172.461806
0
LINE
8
0
10
110.971000
20
172.462000
11
110.864405
21
172.281756
0
LINE
8
0
10
110.864000
20
172.281000
11
110.768931
21
172.094417
0
LINE
8
0
10
110.769000
20
172.095000
11
110.685835
21
171.902818
0
LINE
8
0
10
110.686000
20
171.903000
11
110.615069
21
171.705975
0
LINE
8
0
10
110.615000
20
171.706000
11
110.556577
21
171.504911
0
LINE
8
0
10
110.557000
20
171.504000
11
110.511319
21
171.299637
0
LINE
8
0
10
110.511000
20
171.300000
11
110.478242
21
171.093174
0
LINE
8
0
10
110.478000
20
171.093000
11
110.458301
21
170.884523
0
LINE
8
0
10
110.459000
20
170.885000
11
110.452424
21
170.675699
0
LINE
8
0
10
110.452000
20
170.675000
11
110.458576
21
170.465699
0
LINE
8
0
10
110.459000
20
170.466000
11
110.478699
21
170.257525
0
LINE
8
0
10
110.478000
20
170.258000
11
110.510757
21
170.051174
0
LINE
8
0
10
110.511000
20
170.051000
11
110.556680
21
169.846637
0
LINE
8
0
10
110.557000
20
169.847000
11
110.615423
21
169.645911
0
LINE
8
0
10
110.615000
20
169.645000
11
110.685931
21
169.447975
0
LINE
8
0
10
110.686000
20
169.448000
11
110.769165
21
169.255815
0
LINE
8
0
10
110.769000
20
169.256000
11
110.864069
21
169.069420
0
LINE
8
0
10
110.864000
20
169.070000
11
110.970595
21
168.889756
0
LINE
8
0
10
110.971000
20
168.889000
11
111.088704
21
168.715806
0
LINE
8
0
10
111.089000
20
168.716000
11
111.217346
21
168.550536
0
LINE
8
0
10
111.217000
20
168.551000
11
111.355481
21
168.393924
0
LINE
8
0
10
111.356000
20
168.394000
11
111.504071
21
168.245929
0
LINE
8
0
10
111.504000
20
168.246000
11
111.661079
21
168.107516
0
LINE
8
0
10
111.661000
20
168.107000
11
111.826461
21
167.978657
0
LINE
8
0
10
111.826000
20
167.979000
11
111.999194
21
167.861296
0
LINE
8
0
10
111.999000
20
167.861000
11
112.179244
21
167.754405
0
LINE
8
0
10
112.180000
20
167.754000
11
112.366583
21
167.658931
0
LINE
8
0
10
112.366000
20
167.659000
11
112.558182
21
167.575835
0
LINE
8
0
10
112.558000
20
167.576000
11
112.755025
21
167.505066
0
LINE
8
0
10
112.755000
20
167.505000
11
112.956089
21
167.446580
0
LINE
8
0
10
112.956000
20
167.447000
11
113.160363
21
167.401319
0
LINE
8
0
10
113.161000
20
167.401000
11
113.367826
21
167.368240
0
LINE
8
0
10
113.368000
20
167.368000
11
113.576477
21
167.348301
0
LINE
8
0
10
113.576000
20
167.349000
11
113.785301
21
167.342424
0
LINE
8
0
10
113.785000
20
167.342000
11
113.994301
21
167.348576
0
LINE
8
0
10
113.995000
20
167.349000
11
114.203475
21
167.368699
0
LINE
8
0
10
114.203000
20
167.368000
11
114.409826
21
167.400760
0
LINE
8
0
10
114.410000
20
167.401000
11
114.614363
21
167.446681
0
LINE
8
0
10
114.614000
20
167.447000
11
114.815089
21
167.505420
0
LINE
8
0
10
114.815000
20
167.505000
11
115.012025
21
167.575934
0
LINE
8
0
10
115.012000
20
167.576000
11
115.204185
21
167.659165
0
LINE
8
0
10
115.205000
20
167.659000
11
115.391580
21
167.754069
0
LINE
8
0
10
115.391000
20
167.754000
11
115.571244
21
167.860595
0
LINE
8
0
10
115.571000
20
167.861000
11
115.744194
21
167.978704
0
LINE
8
0
10
115.745000
20
167.979000
11
115.910464
21
168.107343
0
LINE
8
0
10
115.910000
20
168.107000
11
116.067076
21
168.245484
0
LINE
8
0
10
116.067000
20
168.246000
11
116.215071
21
168.394071
0
LINE
8
0
10
116.215000
20
168.394000
11
116.353484
21
168.551076
0
LINE
8
0
10
116.354000
20
168.551000
11
116.482346
21
168.716464
0
LINE
8
0
10
116.482000
20
168.716000
11
116.599701
21
168.889194
0
LINE
8
0
10
116.600000
20
168.889000
11
116.706598
21
169.069244
0
LINE
8
0
10
116.706000
20
169.070000
11
116.801067
21
169.256580
0
LINE
8
0
10
116.801000
20
169.256000
11
116.884165
21
169.448185
0
LINE
8
0
10
116.885000
20
169.448000
11
116.955934
21
169.645025
0
LINE
8
0
10
116.956000
20
169.645000
11
117.014420
21
169.846089
0
LINE
8
0
10
117.014000
20
169.847000
11
117.059680
21
170.051363
0
LINE
8
0
10
117.060000
20
170.051000
11
117.092760
21
170.257826
0
LINE
8
0
10
117.092000
20
170.258000
11
117.111699
21
170.466475
0
LINE
8
0
10
117.112000
20
170.466000
11
117.118576
21
170.675301
0
LINE
8
0
10
117.119000
20
149.342000
11
117.112424
21
149.551301
0
LINE
8
0
10
117.112000
20
149.551000
11
117.092301
21
149.759477
0
LINE
8
0
10
117.092000
20
149.760000
11
117.059240
21
149.966826
0
LINE
8
0
10
117.060000
20
149.967000
11
117.014319
21
150.171363
0
LINE
8
0
10
117.014000
20
150.171000
11
116.955580
21
150.372089
0
LINE
8
0
10
116.956000
20
150.372000
11
116.885066
21
150.569025
0
LINE
8
0
10
116.885000
20
150.569000
11
116.801835
21
150.761182
0
LINE
8
0
10
116.801000
20
150.761000
11
116.705934
21
150.947583
0
LINE
8
0
10
116.706000
20
150.948000
11
116.599402
21
151.128244
0
LINE
8
0
10
116.600000
20
151.128000
11
116.482299
21
151.301194
0
LINE
8
0
10
116.482000
20
151.301000
11
116.353654
21
151.466461
0
LINE
8
0
10
116.354000
20
151.467000
11
116.215516
21
151.624076
0
LINE
8
0
10
116.215000
20
151.624000
11
116.066929
21
151.772073
0
LINE
8
0
10
116.067000
20
151.772000
11
115.910000
21
151.911000
0
LINE
8
0
10
115.910000
20
151.911000
11
115.744536
21
152.039346
0
LINE
8
0
10
115.745000
20
152.039000
11
115.571806
21
152.156704
0
LINE
8
0
10
115.571000
20
152.157000
11
115.390756
21
152.263595
0
LINE
8
0
10
115.391000
20
152.263000
11
115.204420
21
152.358069
0
LINE
8
0
10
115.205000
20
152.358000
11
115.012815
21
152.441162
0
LINE
8
0
10
115.012000
20
152.441000
11
114.814975
21
152.511934
0
LINE
8
0
10
114.815000
20
152.512000
11
114.613911
21
152.570423
0
LINE
8
0
10
114.614000
20
152.571000
11
114.409637
21
152.616681
0
LINE
8
0
10
114.410000
20
152.616000
11
114.203174
21
152.648758
0
LINE
8
0
10
114.203000
20
152.649000
11
113.994525
21
152.668699
0
LINE
8
0
10
113.995000
20
152.669000
11
113.785699
21
152.675576
0
LINE
8
0
10
113.785000
20
152.675000
11
113.575699
21
152.668424
0
LINE
8
0
10
113.576000
20
152.669000
11
113.367523
21
152.649301
0
LINE
8
0
10
113.368000
20
152.649000
11
113.161174
21
152.616242
0
LINE
8
0
10
113.161000
20
152.616000
11
112.956637
21
152.570320
0
LINE
8
0
10
112.956000
20
152.571000
11
112.754911
21
152.512577
0
LINE
8
0
10
112.755000
20
152.512000
11
112.557975
21
152.441066
0
LINE
8
0
10
112.558000
20
152.441000
11
112.365818
21
152.357838
0
LINE
8
0
10
112.366000
20
152.358000
11
112.179417
21
152.262931
0
LINE
8
0
10
112.180000
20
152.263000
11
111.999756
21
152.156405
0
LINE
8
0
10
111.999000
20
152.157000
11
111.825806
21
152.039296
0
LINE
8
0
10
111.826000
20
152.039000
11
111.660539
21
151.910654
0
LINE
8
0
10
111.661000
20
151.911000
11
111.503921
21
151.772519
0
LINE
8
0
10
111.504000
20
151.772000
11
111.355929
21
151.623927
0
LINE
8
0
10
111.356000
20
151.624000
11
111.217519
21
151.466924
0
LINE
8
0
10
111.217000
20
151.467000
11
111.088654
21
151.301539
0
LINE
8
0
10
111.089000
20
151.301000
11
110.971296
21
151.127806
0
LINE
8
0
10
110.971000
20
151.128000
11
110.864405
21
150.947756
0
LINE
8
0
10
110.864000
20
150.948000
11
110.768931
21
150.761417
0
LINE
8
0
10
110.769000
20
150.761000
11
110.685835
21
150.568818
0
LINE
8
0
10
110.686000
20
150.569000
11
110.615069
21
150.371975
0
LINE
8
0
10
110.615000
20
150.372000
11
110.556577
21
150.170911
0
LINE
8
0
10
110.557000
20
150.171000
11
110.511319
21
149.966637
0
LINE
8
0
10
110.511000
20
149.967000
11
110.478242
21
149.760174
0
LINE
8
0
10
110.478000
20
149.760000
11
110.458301
21
149.551523
0
LINE
8
0
10
110.459000
20
149.551000
11
110.452424
21
149.341699
0
LINE
8
0
10
110.452000
20
149.342000
11
110.458576
21
149.132699
0
LINE
8
0
10
110.459000
20
149.133000
11
110.478699
21
148.924525
0
LINE
8
0
10
110.478000
20
148.924000
11
110.510757
21
148.717174
0
LINE
8
0
10
110.511000
20
148.718000
11
110.556680
21
148.513637
0
LINE
8
0
10
110.557000
20
148.513000
11
110.615423
21
148.311911
0
LINE
8
0
10
110.615000
20
148.312000
11
110.685931
21
148.114975
0
LINE
8
0
10
110.686000
20
148.115000
11
110.769165
21
147.922815
0
LINE
8
0
10
110.769000
20
147.923000
11
110.864069
21
147.736420
0
LINE
8
0
10
110.864000
20
147.736000
11
110.970595
21
147.555756
0
LINE
8
0
10
110.971000
20
147.556000
11
111.088704
21
147.382806
0
LINE
8
0
10
111.089000
20
147.383000
11
111.217346
21
147.217536
0
LINE
8
0
10
111.217000
20
147.217000
11
111.355481
21
147.059924
0
LINE
8
0
10
111.356000
20
147.060000
11
111.504071
21
146.911929
0
LINE
8
0
10
111.504000
20
146.912000
11
111.661079
21
146.773516
0
LINE
8
0
10
111.661000
20
146.774000
11
111.826461
21
146.645654
0
LINE
8
0
10
111.826000
20
146.645000
11
111.999194
21
146.527299
0
LINE
8
0
10
111.999000
20
146.528000
11
112.179244
21
146.421402
0
LINE
8
0
10
112.180000
20
146.421000
11
112.366583
21
146.325933
0
LINE
8
0
10
112.366000
20
146.326000
11
112.558182
21
146.242835
0
LINE
8
0
10
112.558000
20
146.243000
11
112.755025
21
146.172066
0
LINE
8
0
10
112.755000
20
146.172000
11
112.956089
21
146.113577
0
LINE
8
0
10
112.956000
20
146.114000
11
113.160363
21
146.068322
0
LINE
8
0
10
113.161000
20
146.068000
11
113.367826
21
146.035240
0
LINE
8
0
10
113.368000
20
146.035000
11
113.576477
21
146.015301
0
LINE
8
0
10
113.576000
20
146.015000
11
113.785301
21
146.008424
0
LINE
8
0
10
113.785000
20
146.009000
11
113.994301
21
146.015576
0
LINE
8
0
10
113.995000
20
146.015000
11
114.203475
21
146.034699
0
LINE
8
0
10
114.203000
20
146.035000
11
114.409826
21
146.067760
0
LINE
8
0
10
114.410000
20
146.068000
11
114.614363
21
146.113678
0
LINE
8
0
10
114.614000
20
146.114000
11
114.815089
21
146.172423
0
LINE
8
0
10
114.815000
20
146.172000
11
115.012025
21
146.242934
0
LINE
8
0
10
115.012000
20
146.243000
11
115.204185
21
146.326165
0
LINE
8
0
10
115.205000
20
146.326000
11
115.391580
21
146.421066
0
LINE
8
0
10
115.391000
20
146.421000
11
115.571244
21
146.527598
0
LINE
8
0
10
115.571000
20
146.528000
11
115.744194
21
146.645701
0
LINE
8
0
10
115.745000
20
146.645000
11
115.910464
21
146.773346
0
LINE
8
0
10
115.910000
20
146.774000
11
116.067076
21
146.912484
0
LINE
8
0
10
116.067000
20
146.912000
11
116.215071
21
147.060071
0
LINE
8
0
10
116.215000
20
147.060000
11
116.353484
21
147.217076
0
LINE
8
0
10
116.354000
20
147.217000
11
116.482346
21
147.382464
0
LINE
8
0
10
116.482000
20
147.383000
11
116.599701
21
147.556194
0
LINE
8
0
10
116.600000
20
147.556000
11
116.706598
21
147.736244
0
LINE
8
0
10
116.706000
20
147.736000
11
116.801067
21
147.922580
0
LINE
8
0
10
116.801000
20
147.923000
11
116.884165
21
148.115185
0
LINE
8
0
10
116.885000
20
148.115000
11
116.955934
21
148.312025
0
LINE
8
0
10
116.956000
20
148.312000
11
117.014420
21
148.513089
0
LINE
8
0
10
117.014000
20
148.513000
11
117.059680
21
148.717363
0
LINE
8
0
10
117.060000
20
148.718000
11
117.092760
21
148.924826
0
LINE
8
0
10
117.092000
20
148.924000
11
117.111699
21
149.132475
0
LINE
8
0
10
117.112000
20
149.133000
11
117.118576
21
149.342301
 0 
ENDSEC
 0 
EOF