  0
SECTION
  2
HEADER
  9
$ACADVER
  1
AC1014
  9
$HANDSEED
  5
FFFF
  9
$MEASUREMENT
 70
     1
  0
ENDSEC
  0
SECTION
  2
TABLES
  0
TABLE
  2
VPORT
  5
8
330
0
100
AcDbSymbolTable
 70
     4
  0
VPORT
  5
2E
330
8
100
AcDbSymbolTableRecord
100
AcDbViewportTableRecord
  2
*ACTIVE
 70
     0
 10
0.0
 20
0.0
 11
1.0
 21
1.0
 12
210.0
 22
148.5
 13
0.0
 23
0.0
 14
10.0
 24
10.0
 15
10.0
 25
10.0
 16
0.0
 26
0.0
 36
1.0
 17
0.0
 27
0.0
 37
0.0
 40
341.0
 41
1.24
 42
50.0
 43
0.0
 44
0.0
 50
0.0
 51
0.0
 71
     0
 72
   100
 73
     1
 74
     3
 75
     0
 76
     0
 77
     0
 78
     0
  0
ENDTAB
  0
TABLE
  2
LTYPE
  5
5
330
0
100
AcDbSymbolTable
 70
     1
  0
LTYPE
  5
14
330
5
100
AcDbSymbolTableRecord
100
AcDbLinetypeTableRecord
  2
BYBLOCK
 70
     0
  3

 72
    65
 73
     0
 40
0.0
  0
LTYPE
  5
15
330
5
100
AcDbSymbolTableRecord
100
AcDbLinetypeTableRecord
  2
BYLAYER
 70
     0
  3

 72
    65
 73
     0
 40
0.0
  0
LTYPE
  5
16
330
5
100
AcDbSymbolTableRecord
100
AcDbLinetypeTableRecord
  2
CONTINUOUS
 70
     0
  3
Solid line
 72
    65
 73
     0
 40
0.0
  0
ENDTAB
  0
TABLE
  2
LAYER
  5
2
100
AcDbSymbolTable
 70
3
  0
LAYER
  5
50
100
AcDbSymbolTableRecord
100
AcDbLayerTableRecord
  2
0
 70
0
  6
CONTINUOUS
  0
LAYER
  5
51
100
AcDbSymbolTableRecord
100
AcDbLayerTableRecord
  2
Defpoints
 70
0
  6
CONTINUOUS
  0
LAYER
  5
52
100
AcDbSymbolTableRecord
100
AcDbLayerTableRecord
  2
main
 70
0
  6
CONTINUOUS
  0
ENDTAB
  0
TABLE
  2
STYLE
  5
3
330
0
100
AcDbSymbolTable
 70
     1
  0
STYLE
  5
11
330
3
100
AcDbSymbolTableRecord
100
AcDbTextStyleTableRecord
  2
STANDARD
 70
     0
 40
0.0
 41
1.0
 50
0.0
 71
     0
 42
2.5
  3
txt
  4

  0
ENDTAB
  0
TABLE
  2
VIEW
  5
6
330
0
100
AcDbSymbolTable
 70
     0
  0
ENDTAB
  0
TABLE
  2
UCS
  5
7
330
0
100
AcDbSymbolTable
 70
     0
  0
ENDTAB
  0
TABLE
  2
APPID
  5
9
330
0
100
AcDbSymbolTable
 70
     2
  0
APPID
  5
12
330
9
100
AcDbSymbolTableRecord
100
AcDbRegAppTableRecord
  2
ACAD
 70
     0
  0
ENDTAB
  0
TABLE
  2
DIMSTYLE
  5
A
330
0
100
AcDbSymbolTable
 70
     1
  0
DIMSTYLE
105
27
330
A
100
AcDbSymbolTableRecord
100
AcDbDimStyleTableRecord
  2
ISO-25
 70
     0
  3

  4

  5

  6

  7

 40
1.0
 41
2.5
 42
0.625
 43
3.75
 44
1.25
 45
0.0
 46
0.0
 47
0.0
 48
0.0
140
2.5
141
2.5
142
0.0
143
0.03937007874016
144
1.0
145
0.0
146
1.0
147
0.625
 71
     0
 72
     0
 73
     0
 74
     0
 75
     0
 76
     0
 77
     1
 78
     8
170
     0
171
     3
172
     1
173
     0
174
     0
175
     0
176
     0
177
     0
178
     0
270
     2
271
     2
272
     2
273
     2
274
     3
340
11
275
     0
280
     0
281
     0
282
     0
283
     0
284
     8
285
     0
286
     0
287
     3
288
     0
  0
ENDTAB
  0
TABLE
  2
BLOCK_RECORD
  5
1
330
0
100
AcDbSymbolTable
 70
     1
  0
BLOCK_RECORD
  5
1F
330
1
100
AcDbSymbolTableRecord
100
AcDbBlockTableRecord
  2
*MODEL_SPACE
  0
BLOCK_RECORD
  5
1B
330
1
100
AcDbSymbolTableRecord
100
AcDbBlockTableRecord
  2
*PAPER_SPACE
  0
ENDTAB
  0
ENDSEC
  0
SECTION
  2
BLOCKS
  0
BLOCK
  5
20
330
1F
100
AcDbEntity
  8
0
100
AcDbBlockBegin
  2
*MODEL_SPACE
 70
     0
 10
0.0
 20
0.0
 30
0.0
  3
*MODEL_SPACE
  1

  0
ENDBLK
  5
21
330
1F
100
AcDbEntity
  8
0
100
AcDbBlockEnd
  0
BLOCK
  5
1C
330
1B
100
AcDbEntity
 67
     1
  8
0
100
AcDbBlockBegin
  2
*PAPER_SPACE
  1

  0
ENDBLK
  5
1D
330
1B
100
AcDbEntity
 67
     1
  8
0
100
AcDbBlockEnd
  0
ENDSEC
  0
SECTION
  2
ENTITIES
  0
LWPOLYLINE
  5
100
100
AcDbEntity
  8
0
 62
1
100
AcDbPolyline
 90
2
 70
0
 10
0.000000
 20
-56.692897
 30
0.0
 10
283.464487
 20
-56.692897
 30
0.0
  0
LWPOLYLINE
  5
101
100
AcDbEntity
  8
0
 62
1
100
AcDbPolyline
 90
2
 70
0
 10
0.000000
 20
-56.692897
 30
0.0
 10
0.000000
 20
907.086360
 30
0.0
  0
LWPOLYLINE
  5
102
100
AcDbEntity
  8
0
 62
1
100
AcDbPolyline
 90
2
 70
0
 10
283.464487
 20
-56.692897
 30
0.0
 10
283.464487
 20
907.086360
 30
0.0
  0
LWPOLYLINE
  5
103
100
AcDbEntity
  8
0
 62
1
100
AcDbPolyline
 90
2
 70
0
 10
0.000000
 20
907.086360
 30
0.0
 10
283.464487
 20
907.086360
 30
0.0
  0
LWPOLYLINE
  5
104
100
AcDbEntity
  8
0
 62
1
100
AcDbPolyline
 90
2
 70
0
 10
0.000000
 20
28.346449
 30
0.0
 10
25.511804
 20
28.346449
 30
0.0
  0
LWPOLYLINE
  5
105
100
AcDbEntity
  8
0
 62
1
100
AcDbPolyline
 90
2
 70
0
 10
31.181094
 20
28.346449
 30
0.0
 10
82.204701
 20
28.346449
 30
0.0
  0
LWPOLYLINE
  5
106
100
AcDbEntity
  8
0
 62
1
100
AcDbPolyline
 90
2
 70
0
 10
87.873991
 20
28.346449
 30
0.0
 10
138.897599
 20
28.346449
 30
0.0
  0
LWPOLYLINE
  5
107
100
AcDbEntity
  8
0
 62
1
100
AcDbPolyline
 90
2
 70
0
 10
144.566889
 20
28.346449
 30
0.0
 10
195.590497
 20
28.346449
 30
0.0
  0
LWPOLYLINE
  5
108
100
AcDbEntity
  8
0
 62
1
100
AcDbPolyline
 90
2
 70
0
 10
201.259786
 20
28.346449
 30
0.0
 10
252.283394
 20
28.346449
 30
0.0
  0
LWPOLYLINE
  5
109
100
AcDbEntity
  8
0
 62
1
100
AcDbPolyline
 90
2
 70
0
 10
257.952684
 20
28.346449
 30
0.0
 10
283.464487
 20
28.346449
 30
0.0
  0
LWPOLYLINE
  5
10a
100
AcDbEntity
  8
0
 62
1
100
AcDbPolyline
 90
2
 70
0
 10
2.834645
 20
56.692897
 30
0.0
 10
53.858253
 20
56.692897
 30
0.0
  0
LWPOLYLINE
  5
10b
100
AcDbEntity
  8
0
 62
1
100
AcDbPolyline
 90
2
 70
0
 10
59.527543
 20
56.692897
 30
0.0
 10
110.551150
 20
56.692897
 30
0.0
  0
LWPOLYLINE
  5
10c
100
AcDbEntity
  8
0
 62
1
100
AcDbPolyline
 90
2
 70
0
 10
116.220440
 20
56.692897
 30
0.0
 10
167.244048
 20
56.692897
 30
0.0
  0
LWPOLYLINE
  5
10d
100
AcDbEntity
  8
0
 62
1
100
AcDbPolyline
 90
2
 70
0
 10
172.913337
 20
56.692897
 30
0.0
 10
223.936945
 20
56.692897
 30
0.0
  0
LWPOLYLINE
  5
10e
100
AcDbEntity
  8
0
 62
1
100
AcDbPolyline
 90
2
 70
0
 10
229.606235
 20
56.692897
 30
0.0
 10
280.629842
 20
56.692897
 30
0.0
  0
LWPOLYLINE
  5
10f
100
AcDbEntity
  8
0
 62
1
100
AcDbPolyline
 90
2
 70
0
 10
0.000000
 20
85.039346
 30
0.0
 10
25.511804
 20
85.039346
 30
0.0
  0
LWPOLYLINE
  5
110
100
AcDbEntity
  8
0
 62
1
100
AcDbPolyline
 90
2
 70
0
 10
31.181094
 20
85.039346
 30
0.0
 10
82.204701
 20
85.039346
 30
0.0
  0
LWPOLYLINE
  5
111
100
AcDbEntity
  8
0
 62
1
100
AcDbPolyline
 90
2
 70
0
 10
87.873991
 20
85.039346
 30
0.0
 10
138.897599
 20
85.039346
 30
0.0
  0
LWPOLYLINE
  5
112
100
AcDbEntity
  8
0
 62
1
100
AcDbPolyline
 90
2
 70
0
 10
144.566889
 20
85.039346
 30
0.0
 10
195.590497
 20
85.039346
 30
0.0
  0
LWPOLYLINE
  5
113
100
AcDbEntity
  8
0
 62
1
100
AcDbPolyline
 90
2
 70
0
 10
201.259786
 20
85.039346
 30
0.0
 10
252.283394
 20
85.039346
 30
0.0
  0
LWPOLYLINE
  5
114
100
AcDbEntity
  8
0
 62
1
100
AcDbPolyline
 90
2
 70
0
 10
257.952684
 20
85.039346
 30
0.0
 10
283.464487
 20
85.039346
 30
0.0
  0
LWPOLYLINE
  5
115
100
AcDbEntity
  8
0
 62
1
100
AcDbPolyline
 90
2
 70
0
 10
2.834645
 20
113.385795
 30
0.0
 10
53.858253
 20
113.385795
 30
0.0
  0
LWPOLYLINE
  5
116
100
AcDbEntity
  8
0
 62
1
100
AcDbPolyline
 90
2
 70
0
 10
59.527543
 20
113.385795
 30
0.0
 10
110.551150
 20
113.385795
 30
0.0
  0
LWPOLYLINE
  5
117
100
AcDbEntity
  8
0
 62
1
100
AcDbPolyline
 90
2
 70
0
 10
116.220440
 20
113.385795
 30
0.0
 10
167.244048
 20
113.385795
 30
0.0
  0
LWPOLYLINE
  5
118
100
AcDbEntity
  8
0
 62
1
100
AcDbPolyline
 90
2
 70
0
 10
172.913337
 20
113.385795
 30
0.0
 10
223.936945
 20
113.385795
 30
0.0
  0
LWPOLYLINE
  5
119
100
AcDbEntity
  8
0
 62
1
100
AcDbPolyline
 90
2
 70
0
 10
229.606235
 20
113.385795
 30
0.0
 10
280.629842
 20
113.385795
 30
0.0
  0
LWPOLYLINE
  5
11a
100
AcDbEntity
  8
0
 62
1
100
AcDbPolyline
 90
2
 70
0
 10
0.000000
 20
141.732244
 30
0.0
 10
25.511804
 20
141.732244
 30
0.0
  0
LWPOLYLINE
  5
11b
100
AcDbEntity
  8
0
 62
1
100
AcDbPolyline
 90
2
 70
0
 10
31.181094
 20
141.732244
 30
0.0
 10
82.204701
 20
141.732244
 30
0.0
  0
LWPOLYLINE
  5
11c
100
AcDbEntity
  8
0
 62
1
100
AcDbPolyline
 90
2
 70
0
 10
87.873991
 20
141.732244
 30
0.0
 10
138.897599
 20
141.732244
 30
0.0
  0
LWPOLYLINE
  5
11d
100
AcDbEntity
  8
0
 62
1
100
AcDbPolyline
 90
2
 70
0
 10
144.566889
 20
141.732244
 30
0.0
 10
195.590497
 20
141.732244
 30
0.0
  0
LWPOLYLINE
  5
11e
100
AcDbEntity
  8
0
 62
1
100
AcDbPolyline
 90
2
 70
0
 10
201.259786
 20
141.732244
 30
0.0
 10
252.283394
 20
141.732244
 30
0.0
  0
LWPOLYLINE
  5
11f
100
AcDbEntity
  8
0
 62
1
100
AcDbPolyline
 90
2
 70
0
 10
257.952684
 20
141.732244
 30
0.0
 10
283.464487
 20
141.732244
 30
0.0
  0
LWPOLYLINE
  5
120
100
AcDbEntity
  8
0
 62
1
100
AcDbPolyline
 90
2
 70
0
 10
2.834645
 20
170.078693
 30
0.0
 10
53.858253
 20
170.078693
 30
0.0
  0
LWPOLYLINE
  5
121
100
AcDbEntity
  8
0
 62
1
100
AcDbPolyline
 90
2
 70
0
 10
59.527543
 20
170.078693
 30
0.0
 10
110.551150
 20
170.078693
 30
0.0
  0
LWPOLYLINE
  5
122
100
AcDbEntity
  8
0
 62
1
100
AcDbPolyline
 90
2
 70
0
 10
116.220440
 20
170.078693
 30
0.0
 10
167.244048
 20
170.078693
 30
0.0
  0
LWPOLYLINE
  5
123
100
AcDbEntity
  8
0
 62
1
100
AcDbPolyline
 90
2
 70
0
 10
172.913337
 20
170.078693
 30
0.0
 10
223.936945
 20
170.078693
 30
0.0
  0
LWPOLYLINE
  5
124
100
AcDbEntity
  8
0
 62
1
100
AcDbPolyline
 90
2
 70
0
 10
229.606235
 20
170.078693
 30
0.0
 10
280.629842
 20
170.078693
 30
0.0
  0
LWPOLYLINE
  5
125
100
AcDbEntity
  8
0
 62
1
100
AcDbPolyline
 90
2
 70
0
 10
0.000000
 20
198.425141
 30
0.0
 10
25.511804
 20
198.425141
 30
0.0
  0
LWPOLYLINE
  5
126
100
AcDbEntity
  8
0
 62
1
100
AcDbPolyline
 90
2
 70
0
 10
31.181094
 20
198.425141
 30
0.0
 10
82.204701
 20
198.425141
 30
0.0
  0
LWPOLYLINE
  5
127
100
AcDbEntity
  8
0
 62
1
100
AcDbPolyline
 90
2
 70
0
 10
87.873991
 20
198.425141
 30
0.0
 10
138.897599
 20
198.425141
 30
0.0
  0
LWPOLYLINE
  5
128
100
AcDbEntity
  8
0
 62
1
100
AcDbPolyline
 90
2
 70
0
 10
144.566889
 20
198.425141
 30
0.0
 10
195.590497
 20
198.425141
 30
0.0
  0
LWPOLYLINE
  5
129
100
AcDbEntity
  8
0
 62
1
100
AcDbPolyline
 90
2
 70
0
 10
201.259786
 20
198.425141
 30
0.0
 10
252.283394
 20
198.425141
 30
0.0
  0
LWPOLYLINE
  5
12a
100
AcDbEntity
  8
0
 62
1
100
AcDbPolyline
 90
2
 70
0
 10
257.952684
 20
198.425141
 30
0.0
 10
283.464487
 20
198.425141
 30
0.0
  0
LWPOLYLINE
  5
12b
100
AcDbEntity
  8
0
 62
1
100
AcDbPolyline
 90
2
 70
0
 10
2.834645
 20
226.771590
 30
0.0
 10
53.858253
 20
226.771590
 30
0.0
  0
LWPOLYLINE
  5
12c
100
AcDbEntity
  8
0
 62
1
100
AcDbPolyline
 90
2
 70
0
 10
59.527543
 20
226.771590
 30
0.0
 10
110.551150
 20
226.771590
 30
0.0
  0
LWPOLYLINE
  5
12d
100
AcDbEntity
  8
0
 62
1
100
AcDbPolyline
 90
2
 70
0
 10
116.220440
 20
226.771590
 30
0.0
 10
167.244048
 20
226.771590
 30
0.0
  0
LWPOLYLINE
  5
12e
100
AcDbEntity
  8
0
 62
1
100
AcDbPolyline
 90
2
 70
0
 10
172.913337
 20
226.771590
 30
0.0
 10
223.936945
 20
226.771590
 30
0.0
  0
LWPOLYLINE
  5
12f
100
AcDbEntity
  8
0
 62
1
100
AcDbPolyline
 90
2
 70
0
 10
229.606235
 20
226.771590
 30
0.0
 10
280.629842
 20
226.771590
 30
0.0
  0
LWPOLYLINE
  5
130
100
AcDbEntity
  8
0
 62
1
100
AcDbPolyline
 90
2
 70
0
 10
0.000000
 20
255.118038
 30
0.0
 10
25.511804
 20
255.118038
 30
0.0
  0
LWPOLYLINE
  5
131
100
AcDbEntity
  8
0
 62
1
100
AcDbPolyline
 90
2
 70
0
 10
31.181094
 20
255.118038
 30
0.0
 10
82.204701
 20
255.118038
 30
0.0
  0
LWPOLYLINE
  5
132
100
AcDbEntity
  8
0
 62
1
100
AcDbPolyline
 90
2
 70
0
 10
87.873991
 20
255.118038
 30
0.0
 10
138.897599
 20
255.118038
 30
0.0
  0
LWPOLYLINE
  5
133
100
AcDbEntity
  8
0
 62
1
100
AcDbPolyline
 90
2
 70
0
 10
144.566889
 20
255.118038
 30
0.0
 10
195.590497
 20
255.118038
 30
0.0
  0
LWPOLYLINE
  5
134
100
AcDbEntity
  8
0
 62
1
100
AcDbPolyline
 90
2
 70
0
 10
201.259786
 20
255.118038
 30
0.0
 10
252.283394
 20
255.118038
 30
0.0
  0
LWPOLYLINE
  5
135
100
AcDbEntity
  8
0
 62
1
100
AcDbPolyline
 90
2
 70
0
 10
257.952684
 20
255.118038
 30
0.0
 10
283.464487
 20
255.118038
 30
0.0
  0
LWPOLYLINE
  5
136
100
AcDbEntity
  8
0
 62
1
100
AcDbPolyline
 90
2
 70
0
 10
2.834645
 20
283.464487
 30
0.0
 10
53.858253
 20
283.464487
 30
0.0
  0
LWPOLYLINE
  5
137
100
AcDbEntity
  8
0
 62
1
100
AcDbPolyline
 90
2
 70
0
 10
59.527543
 20
283.464487
 30
0.0
 10
110.551150
 20
283.464487
 30
0.0
  0
LWPOLYLINE
  5
138
100
AcDbEntity
  8
0
 62
1
100
AcDbPolyline
 90
2
 70
0
 10
116.220440
 20
283.464487
 30
0.0
 10
167.244048
 20
283.464487
 30
0.0
  0
LWPOLYLINE
  5
139
100
AcDbEntity
  8
0
 62
1
100
AcDbPolyline
 90
2
 70
0
 10
172.913337
 20
283.464487
 30
0.0
 10
223.936945
 20
283.464487
 30
0.0
  0
LWPOLYLINE
  5
13a
100
AcDbEntity
  8
0
 62
1
100
AcDbPolyline
 90
2
 70
0
 10
229.606235
 20
283.464487
 30
0.0
 10
280.629842
 20
283.464487
 30
0.0
  0
LWPOLYLINE
  5
13b
100
AcDbEntity
  8
0
 62
1
100
AcDbPolyline
 90
2
 70
0
 10
0.000000
 20
311.810936
 30
0.0
 10
25.511804
 20
311.810936
 30
0.0
  0
LWPOLYLINE
  5
13c
100
AcDbEntity
  8
0
 62
1
100
AcDbPolyline
 90
2
 70
0
 10
31.181094
 20
311.810936
 30
0.0
 10
82.204701
 20
311.810936
 30
0.0
  0
LWPOLYLINE
  5
13d
100
AcDbEntity
  8
0
 62
1
100
AcDbPolyline
 90
2
 70
0
 10
87.873991
 20
311.810936
 30
0.0
 10
138.897599
 20
311.810936
 30
0.0
  0
LWPOLYLINE
  5
13e
100
AcDbEntity
  8
0
 62
1
100
AcDbPolyline
 90
2
 70
0
 10
144.566889
 20
311.810936
 30
0.0
 10
195.590497
 20
311.810936
 30
0.0
  0
LWPOLYLINE
  5
13f
100
AcDbEntity
  8
0
 62
1
100
AcDbPolyline
 90
2
 70
0
 10
201.259786
 20
311.810936
 30
0.0
 10
252.283394
 20
311.810936
 30
0.0
  0
LWPOLYLINE
  5
140
100
AcDbEntity
  8
0
 62
1
100
AcDbPolyline
 90
2
 70
0
 10
257.952684
 20
311.810936
 30
0.0
 10
283.464487
 20
311.810936
 30
0.0
  0
LWPOLYLINE
  5
141
100
AcDbEntity
  8
0
 62
1
100
AcDbPolyline
 90
2
 70
0
 10
2.834645
 20
340.157385
 30
0.0
 10
53.858253
 20
340.157385
 30
0.0
  0
LWPOLYLINE
  5
142
100
AcDbEntity
  8
0
 62
1
100
AcDbPolyline
 90
2
 70
0
 10
59.527543
 20
340.157385
 30
0.0
 10
110.551150
 20
340.157385
 30
0.0
  0
LWPOLYLINE
  5
143
100
AcDbEntity
  8
0
 62
1
100
AcDbPolyline
 90
2
 70
0
 10
116.220440
 20
340.157385
 30
0.0
 10
167.244048
 20
340.157385
 30
0.0
  0
LWPOLYLINE
  5
144
100
AcDbEntity
  8
0
 62
1
100
AcDbPolyline
 90
2
 70
0
 10
172.913337
 20
340.157385
 30
0.0
 10
223.936945
 20
340.157385
 30
0.0
  0
LWPOLYLINE
  5
145
100
AcDbEntity
  8
0
 62
1
100
AcDbPolyline
 90
2
 70
0
 10
229.606235
 20
340.157385
 30
0.0
 10
280.629842
 20
340.157385
 30
0.0
  0
LWPOLYLINE
  5
146
100
AcDbEntity
  8
0
 62
1
100
AcDbPolyline
 90
2
 70
0
 10
0.000000
 20
368.503834
 30
0.0
 10
25.511804
 20
368.503834
 30
0.0
  0
LWPOLYLINE
  5
147
100
AcDbEntity
  8
0
 62
1
100
AcDbPolyline
 90
2
 70
0
 10
31.181094
 20
368.503834
 30
0.0
 10
82.204701
 20
368.503834
 30
0.0
  0
LWPOLYLINE
  5
148
100
AcDbEntity
  8
0
 62
1
100
AcDbPolyline
 90
2
 70
0
 10
87.873991
 20
368.503834
 30
0.0
 10
138.897599
 20
368.503834
 30
0.0
  0
LWPOLYLINE
  5
149
100
AcDbEntity
  8
0
 62
1
100
AcDbPolyline
 90
2
 70
0
 10
144.566889
 20
368.503834
 30
0.0
 10
195.590497
 20
368.503834
 30
0.0
  0
LWPOLYLINE
  5
14a
100
AcDbEntity
  8
0
 62
1
100
AcDbPolyline
 90
2
 70
0
 10
201.259786
 20
368.503834
 30
0.0
 10
252.283394
 20
368.503834
 30
0.0
  0
LWPOLYLINE
  5
14b
100
AcDbEntity
  8
0
 62
1
100
AcDbPolyline
 90
2
 70
0
 10
257.952684
 20
368.503834
 30
0.0
 10
283.464487
 20
368.503834
 30
0.0
  0
LWPOLYLINE
  5
14c
100
AcDbEntity
  8
0
 62
1
100
AcDbPolyline
 90
2
 70
0
 10
2.834645
 20
396.850282
 30
0.0
 10
53.858253
 20
396.850282
 30
0.0
  0
LWPOLYLINE
  5
14d
100
AcDbEntity
  8
0
 62
1
100
AcDbPolyline
 90
2
 70
0
 10
59.527543
 20
396.850282
 30
0.0
 10
110.551150
 20
396.850282
 30
0.0
  0
LWPOLYLINE
  5
14e
100
AcDbEntity
  8
0
 62
1
100
AcDbPolyline
 90
2
 70
0
 10
116.220440
 20
396.850282
 30
0.0
 10
167.244048
 20
396.850282
 30
0.0
  0
LWPOLYLINE
  5
14f
100
AcDbEntity
  8
0
 62
1
100
AcDbPolyline
 90
2
 70
0
 10
172.913337
 20
396.850282
 30
0.0
 10
223.936945
 20
396.850282
 30
0.0
  0
LWPOLYLINE
  5
150
100
AcDbEntity
  8
0
 62
1
100
AcDbPolyline
 90
2
 70
0
 10
229.606235
 20
396.850282
 30
0.0
 10
280.629842
 20
396.850282
 30
0.0
  0
LWPOLYLINE
  5
151
100
AcDbEntity
  8
0
 62
1
100
AcDbPolyline
 90
2
 70
0
 10
0.000000
 20
425.196731
 30
0.0
 10
25.511804
 20
425.196731
 30
0.0
  0
LWPOLYLINE
  5
152
100
AcDbEntity
  8
0
 62
1
100
AcDbPolyline
 90
2
 70
0
 10
31.181094
 20
425.196731
 30
0.0
 10
82.204701
 20
425.196731
 30
0.0
  0
LWPOLYLINE
  5
153
100
AcDbEntity
  8
0
 62
1
100
AcDbPolyline
 90
2
 70
0
 10
87.873991
 20
425.196731
 30
0.0
 10
138.897599
 20
425.196731
 30
0.0
  0
LWPOLYLINE
  5
154
100
AcDbEntity
  8
0
 62
1
100
AcDbPolyline
 90
2
 70
0
 10
144.566889
 20
425.196731
 30
0.0
 10
195.590497
 20
425.196731
 30
0.0
  0
LWPOLYLINE
  5
155
100
AcDbEntity
  8
0
 62
1
100
AcDbPolyline
 90
2
 70
0
 10
201.259786
 20
425.196731
 30
0.0
 10
252.283394
 20
425.196731
 30
0.0
  0
LWPOLYLINE
  5
156
100
AcDbEntity
  8
0
 62
1
100
AcDbPolyline
 90
2
 70
0
 10
257.952684
 20
425.196731
 30
0.0
 10
283.464487
 20
425.196731
 30
0.0
  0
LWPOLYLINE
  5
157
100
AcDbEntity
  8
0
 62
1
100
AcDbPolyline
 90
2
 70
0
 10
2.834645
 20
453.543180
 30
0.0
 10
53.858253
 20
453.543180
 30
0.0
  0
LWPOLYLINE
  5
158
100
AcDbEntity
  8
0
 62
1
100
AcDbPolyline
 90
2
 70
0
 10
59.527543
 20
453.543180
 30
0.0
 10
110.551150
 20
453.543180
 30
0.0
  0
LWPOLYLINE
  5
159
100
AcDbEntity
  8
0
 62
1
100
AcDbPolyline
 90
2
 70
0
 10
116.220440
 20
453.543180
 30
0.0
 10
167.244048
 20
453.543180
 30
0.0
  0
LWPOLYLINE
  5
15a
100
AcDbEntity
  8
0
 62
1
100
AcDbPolyline
 90
2
 70
0
 10
172.913337
 20
453.543180
 30
0.0
 10
223.936945
 20
453.543180
 30
0.0
  0
LWPOLYLINE
  5
15b
100
AcDbEntity
  8
0
 62
1
100
AcDbPolyline
 90
2
 70
0
 10
229.606235
 20
453.543180
 30
0.0
 10
280.629842
 20
453.543180
 30
0.0
  0
LWPOLYLINE
  5
15c
100
AcDbEntity
  8
0
 62
1
100
AcDbPolyline
 90
2
 70
0
 10
0.000000
 20
481.889629
 30
0.0
 10
25.511804
 20
481.889629
 30
0.0
  0
LWPOLYLINE
  5
15d
100
AcDbEntity
  8
0
 62
1
100
AcDbPolyline
 90
2
 70
0
 10
31.181094
 20
481.889629
 30
0.0
 10
82.204701
 20
481.889629
 30
0.0
  0
LWPOLYLINE
  5
15e
100
AcDbEntity
  8
0
 62
1
100
AcDbPolyline
 90
2
 70
0
 10
87.873991
 20
481.889629
 30
0.0
 10
138.897599
 20
481.889629
 30
0.0
  0
LWPOLYLINE
  5
15f
100
AcDbEntity
  8
0
 62
1
100
AcDbPolyline
 90
2
 70
0
 10
144.566889
 20
481.889629
 30
0.0
 10
195.590497
 20
481.889629
 30
0.0
  0
LWPOLYLINE
  5
160
100
AcDbEntity
  8
0
 62
1
100
AcDbPolyline
 90
2
 70
0
 10
201.259786
 20
481.889629
 30
0.0
 10
252.283394
 20
481.889629
 30
0.0
  0
LWPOLYLINE
  5
161
100
AcDbEntity
  8
0
 62
1
100
AcDbPolyline
 90
2
 70
0
 10
257.952684
 20
481.889629
 30
0.0
 10
283.464487
 20
481.889629
 30
0.0
  0
LWPOLYLINE
  5
162
100
AcDbEntity
  8
0
 62
1
100
AcDbPolyline
 90
2
 70
0
 10
2.834645
 20
510.236078
 30
0.0
 10
53.858253
 20
510.236078
 30
0.0
  0
LWPOLYLINE
  5
163
100
AcDbEntity
  8
0
 62
1
100
AcDbPolyline
 90
2
 70
0
 10
59.527543
 20
510.236078
 30
0.0
 10
110.551150
 20
510.236078
 30
0.0
  0
LWPOLYLINE
  5
164
100
AcDbEntity
  8
0
 62
1
100
AcDbPolyline
 90
2
 70
0
 10
116.220440
 20
510.236078
 30
0.0
 10
167.244048
 20
510.236078
 30
0.0
  0
LWPOLYLINE
  5
165
100
AcDbEntity
  8
0
 62
1
100
AcDbPolyline
 90
2
 70
0
 10
172.913337
 20
510.236078
 30
0.0
 10
223.936945
 20
510.236078
 30
0.0
  0
LWPOLYLINE
  5
166
100
AcDbEntity
  8
0
 62
1
100
AcDbPolyline
 90
2
 70
0
 10
229.606235
 20
510.236078
 30
0.0
 10
280.629842
 20
510.236078
 30
0.0
  0
LWPOLYLINE
  5
167
100
AcDbEntity
  8
0
 62
1
100
AcDbPolyline
 90
2
 70
0
 10
0.000000
 20
538.582526
 30
0.0
 10
25.511804
 20
538.582526
 30
0.0
  0
LWPOLYLINE
  5
168
100
AcDbEntity
  8
0
 62
1
100
AcDbPolyline
 90
2
 70
0
 10
31.181094
 20
538.582526
 30
0.0
 10
82.204701
 20
538.582526
 30
0.0
  0
LWPOLYLINE
  5
169
100
AcDbEntity
  8
0
 62
1
100
AcDbPolyline
 90
2
 70
0
 10
87.873991
 20
538.582526
 30
0.0
 10
138.897599
 20
538.582526
 30
0.0
  0
LWPOLYLINE
  5
16a
100
AcDbEntity
  8
0
 62
1
100
AcDbPolyline
 90
2
 70
0
 10
144.566889
 20
538.582526
 30
0.0
 10
195.590497
 20
538.582526
 30
0.0
  0
LWPOLYLINE
  5
16b
100
AcDbEntity
  8
0
 62
1
100
AcDbPolyline
 90
2
 70
0
 10
201.259786
 20
538.582526
 30
0.0
 10
252.283394
 20
538.582526
 30
0.0
  0
LWPOLYLINE
  5
16c
100
AcDbEntity
  8
0
 62
1
100
AcDbPolyline
 90
2
 70
0
 10
257.952684
 20
538.582526
 30
0.0
 10
283.464487
 20
538.582526
 30
0.0
  0
LWPOLYLINE
  5
16d
100
AcDbEntity
  8
0
 62
1
100
AcDbPolyline
 90
2
 70
0
 10
2.834645
 20
566.928975
 30
0.0
 10
53.858253
 20
566.928975
 30
0.0
  0
LWPOLYLINE
  5
16e
100
AcDbEntity
  8
0
 62
1
100
AcDbPolyline
 90
2
 70
0
 10
59.527543
 20
566.928975
 30
0.0
 10
110.551150
 20
566.928975
 30
0.0
  0
LWPOLYLINE
  5
16f
100
AcDbEntity
  8
0
 62
1
100
AcDbPolyline
 90
2
 70
0
 10
116.220440
 20
566.928975
 30
0.0
 10
167.244048
 20
566.928975
 30
0.0
  0
LWPOLYLINE
  5
170
100
AcDbEntity
  8
0
 62
1
100
AcDbPolyline
 90
2
 70
0
 10
172.913337
 20
566.928975
 30
0.0
 10
223.936945
 20
566.928975
 30
0.0
  0
LWPOLYLINE
  5
171
100
AcDbEntity
  8
0
 62
1
100
AcDbPolyline
 90
2
 70
0
 10
229.606235
 20
566.928975
 30
0.0
 10
280.629842
 20
566.928975
 30
0.0
  0
LWPOLYLINE
  5
172
100
AcDbEntity
  8
0
 62
1
100
AcDbPolyline
 90
2
 70
0
 10
0.000000
 20
595.275423
 30
0.0
 10
25.511804
 20
595.275423
 30
0.0
  0
LWPOLYLINE
  5
173
100
AcDbEntity
  8
0
 62
1
100
AcDbPolyline
 90
2
 70
0
 10
31.181094
 20
595.275423
 30
0.0
 10
82.204701
 20
595.275423
 30
0.0
  0
LWPOLYLINE
  5
174
100
AcDbEntity
  8
0
 62
1
100
AcDbPolyline
 90
2
 70
0
 10
87.873991
 20
595.275423
 30
0.0
 10
138.897599
 20
595.275423
 30
0.0
  0
LWPOLYLINE
  5
175
100
AcDbEntity
  8
0
 62
1
100
AcDbPolyline
 90
2
 70
0
 10
144.566889
 20
595.275423
 30
0.0
 10
195.590497
 20
595.275423
 30
0.0
  0
LWPOLYLINE
  5
176
100
AcDbEntity
  8
0
 62
1
100
AcDbPolyline
 90
2
 70
0
 10
201.259786
 20
595.275423
 30
0.0
 10
252.283394
 20
595.275423
 30
0.0
  0
LWPOLYLINE
  5
177
100
AcDbEntity
  8
0
 62
1
100
AcDbPolyline
 90
2
 70
0
 10
257.952684
 20
595.275423
 30
0.0
 10
283.464487
 20
595.275423
 30
0.0
  0
LWPOLYLINE
  5
178
100
AcDbEntity
  8
0
 62
1
100
AcDbPolyline
 90
2
 70
0
 10
2.834645
 20
623.621872
 30
0.0
 10
53.858253
 20
623.621872
 30
0.0
  0
LWPOLYLINE
  5
179
100
AcDbEntity
  8
0
 62
1
100
AcDbPolyline
 90
2
 70
0
 10
59.527543
 20
623.621872
 30
0.0
 10
110.551150
 20
623.621872
 30
0.0
  0
LWPOLYLINE
  5
17a
100
AcDbEntity
  8
0
 62
1
100
AcDbPolyline
 90
2
 70
0
 10
116.220440
 20
623.621872
 30
0.0
 10
167.244048
 20
623.621872
 30
0.0
  0
LWPOLYLINE
  5
17b
100
AcDbEntity
  8
0
 62
1
100
AcDbPolyline
 90
2
 70
0
 10
172.913337
 20
623.621872
 30
0.0
 10
223.936945
 20
623.621872
 30
0.0
  0
LWPOLYLINE
  5
17c
100
AcDbEntity
  8
0
 62
1
100
AcDbPolyline
 90
2
 70
0
 10
229.606235
 20
623.621872
 30
0.0
 10
280.629842
 20
623.621872
 30
0.0
  0
LWPOLYLINE
  5
17d
100
AcDbEntity
  8
0
 62
1
100
AcDbPolyline
 90
2
 70
0
 10
0.000000
 20
651.968321
 30
0.0
 10
25.511804
 20
651.968321
 30
0.0
  0
LWPOLYLINE
  5
17e
100
AcDbEntity
  8
0
 62
1
100
AcDbPolyline
 90
2
 70
0
 10
31.181094
 20
651.968321
 30
0.0
 10
82.204701
 20
651.968321
 30
0.0
  0
LWPOLYLINE
  5
17f
100
AcDbEntity
  8
0
 62
1
100
AcDbPolyline
 90
2
 70
0
 10
87.873991
 20
651.968321
 30
0.0
 10
138.897599
 20
651.968321
 30
0.0
  0
LWPOLYLINE
  5
180
100
AcDbEntity
  8
0
 62
1
100
AcDbPolyline
 90
2
 70
0
 10
144.566889
 20
651.968321
 30
0.0
 10
195.590497
 20
651.968321
 30
0.0
  0
LWPOLYLINE
  5
181
100
AcDbEntity
  8
0
 62
1
100
AcDbPolyline
 90
2
 70
0
 10
201.259786
 20
651.968321
 30
0.0
 10
252.283394
 20
651.968321
 30
0.0
  0
LWPOLYLINE
  5
182
100
AcDbEntity
  8
0
 62
1
100
AcDbPolyline
 90
2
 70
0
 10
257.952684
 20
651.968321
 30
0.0
 10
283.464487
 20
651.968321
 30
0.0
  0
LWPOLYLINE
  5
183
100
AcDbEntity
  8
0
 62
1
100
AcDbPolyline
 90
2
 70
0
 10
2.834645
 20
680.314770
 30
0.0
 10
53.858253
 20
680.314770
 30
0.0
  0
LWPOLYLINE
  5
184
100
AcDbEntity
  8
0
 62
1
100
AcDbPolyline
 90
2
 70
0
 10
59.527543
 20
680.314770
 30
0.0
 10
110.551150
 20
680.314770
 30
0.0
  0
LWPOLYLINE
  5
185
100
AcDbEntity
  8
0
 62
1
100
AcDbPolyline
 90
2
 70
0
 10
116.220440
 20
680.314770
 30
0.0
 10
167.244048
 20
680.314770
 30
0.0
  0
LWPOLYLINE
  5
186
100
AcDbEntity
  8
0
 62
1
100
AcDbPolyline
 90
2
 70
0
 10
172.913337
 20
680.314770
 30
0.0
 10
223.936945
 20
680.314770
 30
0.0
  0
LWPOLYLINE
  5
187
100
AcDbEntity
  8
0
 62
1
100
AcDbPolyline
 90
2
 70
0
 10
229.606235
 20
680.314770
 30
0.0
 10
280.629842
 20
680.314770
 30
0.0
  0
LWPOLYLINE
  5
188
100
AcDbEntity
  8
0
 62
1
100
AcDbPolyline
 90
2
 70
0
 10
0.000000
 20
708.661219
 30
0.0
 10
25.511804
 20
708.661219
 30
0.0
  0
LWPOLYLINE
  5
189
100
AcDbEntity
  8
0
 62
1
100
AcDbPolyline
 90
2
 70
0
 10
31.181094
 20
708.661219
 30
0.0
 10
82.204701
 20
708.661219
 30
0.0
  0
LWPOLYLINE
  5
18a
100
AcDbEntity
  8
0
 62
1
100
AcDbPolyline
 90
2
 70
0
 10
87.873991
 20
708.661219
 30
0.0
 10
138.897599
 20
708.661219
 30
0.0
  0
LWPOLYLINE
  5
18b
100
AcDbEntity
  8
0
 62
1
100
AcDbPolyline
 90
2
 70
0
 10
144.566889
 20
708.661219
 30
0.0
 10
195.590497
 20
708.661219
 30
0.0
  0
LWPOLYLINE
  5
18c
100
AcDbEntity
  8
0
 62
1
100
AcDbPolyline
 90
2
 70
0
 10
201.259786
 20
708.661219
 30
0.0
 10
252.283394
 20
708.661219
 30
0.0
  0
LWPOLYLINE
  5
18d
100
AcDbEntity
  8
0
 62
1
100
AcDbPolyline
 90
2
 70
0
 10
257.952684
 20
708.661219
 30
0.0
 10
283.464487
 20
708.661219
 30
0.0
  0
LWPOLYLINE
  5
18e
100
AcDbEntity
  8
0
 62
1
100
AcDbPolyline
 90
2
 70
0
 10
2.834645
 20
737.007667
 30
0.0
 10
53.858253
 20
737.007667
 30
0.0
  0
LWPOLYLINE
  5
18f
100
AcDbEntity
  8
0
 62
1
100
AcDbPolyline
 90
2
 70
0
 10
59.527543
 20
737.007667
 30
0.0
 10
110.551150
 20
737.007667
 30
0.0
  0
LWPOLYLINE
  5
190
100
AcDbEntity
  8
0
 62
1
100
AcDbPolyline
 90
2
 70
0
 10
116.220440
 20
737.007667
 30
0.0
 10
167.244048
 20
737.007667
 30
0.0
  0
LWPOLYLINE
  5
191
100
AcDbEntity
  8
0
 62
1
100
AcDbPolyline
 90
2
 70
0
 10
172.913337
 20
737.007667
 30
0.0
 10
223.936945
 20
737.007667
 30
0.0
  0
LWPOLYLINE
  5
192
100
AcDbEntity
  8
0
 62
1
100
AcDbPolyline
 90
2
 70
0
 10
229.606235
 20
737.007667
 30
0.0
 10
280.629842
 20
737.007667
 30
0.0
  0
LWPOLYLINE
  5
193
100
AcDbEntity
  8
0
 62
1
100
AcDbPolyline
 90
2
 70
0
 10
0.000000
 20
765.354116
 30
0.0
 10
25.511804
 20
765.354116
 30
0.0
  0
LWPOLYLINE
  5
194
100
AcDbEntity
  8
0
 62
1
100
AcDbPolyline
 90
2
 70
0
 10
31.181094
 20
765.354116
 30
0.0
 10
82.204701
 20
765.354116
 30
0.0
  0
LWPOLYLINE
  5
195
100
AcDbEntity
  8
0
 62
1
100
AcDbPolyline
 90
2
 70
0
 10
87.873991
 20
765.354116
 30
0.0
 10
138.897599
 20
765.354116
 30
0.0
  0
LWPOLYLINE
  5
196
100
AcDbEntity
  8
0
 62
1
100
AcDbPolyline
 90
2
 70
0
 10
144.566889
 20
765.354116
 30
0.0
 10
195.590497
 20
765.354116
 30
0.0
  0
LWPOLYLINE
  5
197
100
AcDbEntity
  8
0
 62
1
100
AcDbPolyline
 90
2
 70
0
 10
201.259786
 20
765.354116
 30
0.0
 10
252.283394
 20
765.354116
 30
0.0
  0
LWPOLYLINE
  5
198
100
AcDbEntity
  8
0
 62
1
100
AcDbPolyline
 90
2
 70
0
 10
257.952684
 20
765.354116
 30
0.0
 10
283.464487
 20
765.354116
 30
0.0
  0
LWPOLYLINE
  5
199
100
AcDbEntity
  8
0
 62
1
100
AcDbPolyline
 90
2
 70
0
 10
2.834645
 20
793.700564
 30
0.0
 10
53.858253
 20
793.700564
 30
0.0
  0
LWPOLYLINE
  5
19a
100
AcDbEntity
  8
0
 62
1
100
AcDbPolyline
 90
2
 70
0
 10
59.527543
 20
793.700564
 30
0.0
 10
110.551150
 20
793.700564
 30
0.0
  0
LWPOLYLINE
  5
19b
100
AcDbEntity
  8
0
 62
1
100
AcDbPolyline
 90
2
 70
0
 10
116.220440
 20
793.700564
 30
0.0
 10
167.244048
 20
793.700564
 30
0.0
  0
LWPOLYLINE
  5
19c
100
AcDbEntity
  8
0
 62
1
100
AcDbPolyline
 90
2
 70
0
 10
172.913337
 20
793.700564
 30
0.0
 10
223.936945
 20
793.700564
 30
0.0
  0
LWPOLYLINE
  5
19d
100
AcDbEntity
  8
0
 62
1
100
AcDbPolyline
 90
2
 70
0
 10
229.606235
 20
793.700564
 30
0.0
 10
280.629842
 20
793.700564
 30
0.0
  0
LWPOLYLINE
  5
19e
100
AcDbEntity
  8
0
 62
1
100
AcDbPolyline
 90
2
 70
0
 10
0.000000
 20
822.047013
 30
0.0
 10
25.511804
 20
822.047013
 30
0.0
  0
LWPOLYLINE
  5
19f
100
AcDbEntity
  8
0
 62
1
100
AcDbPolyline
 90
2
 70
0
 10
31.181094
 20
822.047013
 30
0.0
 10
82.204701
 20
822.047013
 30
0.0
  0
LWPOLYLINE
  5
1a0
100
AcDbEntity
  8
0
 62
1
100
AcDbPolyline
 90
2
 70
0
 10
87.873991
 20
822.047013
 30
0.0
 10
138.897599
 20
822.047013
 30
0.0
  0
LWPOLYLINE
  5
1a1
100
AcDbEntity
  8
0
 62
1
100
AcDbPolyline
 90
2
 70
0
 10
144.566889
 20
822.047013
 30
0.0
 10
195.590497
 20
822.047013
 30
0.0
  0
LWPOLYLINE
  5
1a2
100
AcDbEntity
  8
0
 62
1
100
AcDbPolyline
 90
2
 70
0
 10
201.259786
 20
822.047013
 30
0.0
 10
252.283394
 20
822.047013
 30
0.0
  0
LWPOLYLINE
  5
1a3
100
AcDbEntity
  8
0
 62
1
100
AcDbPolyline
 90
2
 70
0
 10
257.952684
 20
822.047013
 30
0.0
 10
283.464487
 20
822.047013
 30
0.0
  0
LWPOLYLINE
  5
1a4
100
AcDbEntity
  8
0
 62
1
100
AcDbPolyline
 90
2
 70
0
 10
28.346449
 20
2.834645
 30
0.0
 10
28.346449
 20
53.858253
 30
0.0
  0
LWPOLYLINE
  5
1a5
100
AcDbEntity
  8
0
 62
1
100
AcDbPolyline
 90
2
 70
0
 10
28.346449
 20
59.527543
 30
0.0
 10
28.346449
 20
110.551150
 30
0.0
  0
LWPOLYLINE
  5
1a6
100
AcDbEntity
  8
0
 62
1
100
AcDbPolyline
 90
2
 70
0
 10
28.346449
 20
116.220440
 30
0.0
 10
28.346449
 20
167.244048
 30
0.0
  0
LWPOLYLINE
  5
1a7
100
AcDbEntity
  8
0
 62
1
100
AcDbPolyline
 90
2
 70
0
 10
28.346449
 20
172.913337
 30
0.0
 10
28.346449
 20
223.936945
 30
0.0
  0
LWPOLYLINE
  5
1a8
100
AcDbEntity
  8
0
 62
1
100
AcDbPolyline
 90
2
 70
0
 10
28.346449
 20
229.606235
 30
0.0
 10
28.346449
 20
280.629842
 30
0.0
  0
LWPOLYLINE
  5
1a9
100
AcDbEntity
  8
0
 62
1
100
AcDbPolyline
 90
2
 70
0
 10
28.346449
 20
286.299132
 30
0.0
 10
28.346449
 20
337.322740
 30
0.0
  0
LWPOLYLINE
  5
1aa
100
AcDbEntity
  8
0
 62
1
100
AcDbPolyline
 90
2
 70
0
 10
28.346449
 20
342.992030
 30
0.0
 10
28.346449
 20
394.015638
 30
0.0
  0
LWPOLYLINE
  5
1ab
100
AcDbEntity
  8
0
 62
1
100
AcDbPolyline
 90
2
 70
0
 10
28.346449
 20
399.684927
 30
0.0
 10
28.346449
 20
450.708535
 30
0.0
  0
LWPOLYLINE
  5
1ac
100
AcDbEntity
  8
0
 62
1
100
AcDbPolyline
 90
2
 70
0
 10
28.346449
 20
456.377825
 30
0.0
 10
28.346449
 20
507.401432
 30
0.0
  0
LWPOLYLINE
  5
1ad
100
AcDbEntity
  8
0
 62
1
100
AcDbPolyline
 90
2
 70
0
 10
28.346449
 20
513.070722
 30
0.0
 10
28.346449
 20
564.094330
 30
0.0
  0
LWPOLYLINE
  5
1ae
100
AcDbEntity
  8
0
 62
1
100
AcDbPolyline
 90
2
 70
0
 10
28.346449
 20
569.763619
 30
0.0
 10
28.346449
 20
620.787227
 30
0.0
  0
LWPOLYLINE
  5
1af
100
AcDbEntity
  8
0
 62
1
100
AcDbPolyline
 90
2
 70
0
 10
28.346449
 20
626.456518
 30
0.0
 10
28.346449
 20
677.480125
 30
0.0
  0
LWPOLYLINE
  5
1b0
100
AcDbEntity
  8
0
 62
1
100
AcDbPolyline
 90
2
 70
0
 10
28.346449
 20
683.149415
 30
0.0
 10
28.346449
 20
734.173023
 30
0.0
  0
LWPOLYLINE
  5
1b1
100
AcDbEntity
  8
0
 62
1
100
AcDbPolyline
 90
2
 70
0
 10
28.346449
 20
739.842312
 30
0.0
 10
28.346449
 20
790.865920
 30
0.0
  0
LWPOLYLINE
  5
1b2
100
AcDbEntity
  8
0
 62
1
100
AcDbPolyline
 90
2
 70
0
 10
28.346449
 20
796.535210
 30
0.0
 10
28.346449
 20
847.558817
 30
0.0
  0
LWPOLYLINE
  5
1b3
100
AcDbEntity
  8
0
 62
1
100
AcDbPolyline
 90
2
 70
0
 10
56.692897
 20
0.000000
 30
0.0
 10
56.692897
 20
25.511804
 30
0.0
  0
LWPOLYLINE
  5
1b4
100
AcDbEntity
  8
0
 62
1
100
AcDbPolyline
 90
2
 70
0
 10
56.692897
 20
31.181094
 30
0.0
 10
56.692897
 20
82.204701
 30
0.0
  0
LWPOLYLINE
  5
1b5
100
AcDbEntity
  8
0
 62
1
100
AcDbPolyline
 90
2
 70
0
 10
56.692897
 20
87.873991
 30
0.0
 10
56.692897
 20
138.897599
 30
0.0
  0
LWPOLYLINE
  5
1b6
100
AcDbEntity
  8
0
 62
1
100
AcDbPolyline
 90
2
 70
0
 10
56.692897
 20
144.566888
 30
0.0
 10
56.692897
 20
195.590497
 30
0.0
  0
LWPOLYLINE
  5
1b7
100
AcDbEntity
  8
0
 62
1
100
AcDbPolyline
 90
2
 70
0
 10
56.692897
 20
201.259786
 30
0.0
 10
56.692897
 20
252.283394
 30
0.0
  0
LWPOLYLINE
  5
1b8
100
AcDbEntity
  8
0
 62
1
100
AcDbPolyline
 90
2
 70
0
 10
56.692897
 20
257.952684
 30
0.0
 10
56.692897
 20
308.976291
 30
0.0
  0
LWPOLYLINE
  5
1b9
100
AcDbEntity
  8
0
 62
1
100
AcDbPolyline
 90
2
 70
0
 10
56.692897
 20
314.645581
 30
0.0
 10
56.692897
 20
365.669189
 30
0.0
  0
LWPOLYLINE
  5
1ba
100
AcDbEntity
  8
0
 62
1
100
AcDbPolyline
 90
2
 70
0
 10
56.692897
 20
371.338478
 30
0.0
 10
56.692897
 20
422.362086
 30
0.0
  0
LWPOLYLINE
  5
1bb
100
AcDbEntity
  8
0
 62
1
100
AcDbPolyline
 90
2
 70
0
 10
56.692897
 20
428.031376
 30
0.0
 10
56.692897
 20
479.054983
 30
0.0
  0
LWPOLYLINE
  5
1bc
100
AcDbEntity
  8
0
 62
1
100
AcDbPolyline
 90
2
 70
0
 10
56.692897
 20
484.724274
 30
0.0
 10
56.692897
 20
535.747881
 30
0.0
  0
LWPOLYLINE
  5
1bd
100
AcDbEntity
  8
0
 62
1
100
AcDbPolyline
 90
2
 70
0
 10
56.692897
 20
541.417171
 30
0.0
 10
56.692897
 20
592.440779
 30
0.0
  0
LWPOLYLINE
  5
1be
100
AcDbEntity
  8
0
 62
1
100
AcDbPolyline
 90
2
 70
0
 10
56.692897
 20
598.110068
 30
0.0
 10
56.692897
 20
649.133676
 30
0.0
  0
LWPOLYLINE
  5
1bf
100
AcDbEntity
  8
0
 62
1
100
AcDbPolyline
 90
2
 70
0
 10
56.692897
 20
654.802966
 30
0.0
 10
56.692897
 20
705.826573
 30
0.0
  0
LWPOLYLINE
  5
1c0
100
AcDbEntity
  8
0
 62
1
100
AcDbPolyline
 90
2
 70
0
 10
56.692897
 20
711.495863
 30
0.0
 10
56.692897
 20
762.519471
 30
0.0
  0
LWPOLYLINE
  5
1c1
100
AcDbEntity
  8
0
 62
1
100
AcDbPolyline
 90
2
 70
0
 10
56.692897
 20
768.188760
 30
0.0
 10
56.692897
 20
819.212369
 30
0.0
  0
LWPOLYLINE
  5
1c2
100
AcDbEntity
  8
0
 62
1
100
AcDbPolyline
 90
2
 70
0
 10
56.692897
 20
824.881659
 30
0.0
 10
56.692897
 20
850.393462
 30
0.0
  0
LWPOLYLINE
  5
1c3
100
AcDbEntity
  8
0
 62
1
100
AcDbPolyline
 90
2
 70
0
 10
85.039346
 20
2.834645
 30
0.0
 10
85.039346
 20
53.858253
 30
0.0
  0
LWPOLYLINE
  5
1c4
100
AcDbEntity
  8
0
 62
1
100
AcDbPolyline
 90
2
 70
0
 10
85.039346
 20
59.527543
 30
0.0
 10
85.039346
 20
110.551150
 30
0.0
  0
LWPOLYLINE
  5
1c5
100
AcDbEntity
  8
0
 62
1
100
AcDbPolyline
 90
2
 70
0
 10
85.039346
 20
116.220440
 30
0.0
 10
85.039346
 20
167.244048
 30
0.0
  0
LWPOLYLINE
  5
1c6
100
AcDbEntity
  8
0
 62
1
100
AcDbPolyline
 90
2
 70
0
 10
85.039346
 20
172.913337
 30
0.0
 10
85.039346
 20
223.936945
 30
0.0
  0
LWPOLYLINE
  5
1c7
100
AcDbEntity
  8
0
 62
1
100
AcDbPolyline
 90
2
 70
0
 10
85.039346
 20
229.606235
 30
0.0
 10
85.039346
 20
280.629842
 30
0.0
  0
LWPOLYLINE
  5
1c8
100
AcDbEntity
  8
0
 62
1
100
AcDbPolyline
 90
2
 70
0
 10
85.039346
 20
286.299132
 30
0.0
 10
85.039346
 20
337.322740
 30
0.0
  0
LWPOLYLINE
  5
1c9
100
AcDbEntity
  8
0
 62
1
100
AcDbPolyline
 90
2
 70
0
 10
85.039346
 20
342.992030
 30
0.0
 10
85.039346
 20
394.015638
 30
0.0
  0
LWPOLYLINE
  5
1ca
100
AcDbEntity
  8
0
 62
1
100
AcDbPolyline
 90
2
 70
0
 10
85.039346
 20
399.684927
 30
0.0
 10
85.039346
 20
450.708535
 30
0.0
  0
LWPOLYLINE
  5
1cb
100
AcDbEntity
  8
0
 62
1
100
AcDbPolyline
 90
2
 70
0
 10
85.039346
 20
456.377825
 30
0.0
 10
85.039346
 20
507.401432
 30
0.0
  0
LWPOLYLINE
  5
1cc
100
AcDbEntity
  8
0
 62
1
100
AcDbPolyline
 90
2
 70
0
 10
85.039346
 20
513.070722
 30
0.0
 10
85.039346
 20
564.094330
 30
0.0
  0
LWPOLYLINE
  5
1cd
100
AcDbEntity
  8
0
 62
1
100
AcDbPolyline
 90
2
 70
0
 10
85.039346
 20
569.763619
 30
0.0
 10
85.039346
 20
620.787227
 30
0.0
  0
LWPOLYLINE
  5
1ce
100
AcDbEntity
  8
0
 62
1
100
AcDbPolyline
 90
2
 70
0
 10
85.039346
 20
626.456518
 30
0.0
 10
85.039346
 20
677.480125
 30
0.0
  0
LWPOLYLINE
  5
1cf
100
AcDbEntity
  8
0
 62
1
100
AcDbPolyline
 90
2
 70
0
 10
85.039346
 20
683.149415
 30
0.0
 10
85.039346
 20
734.173023
 30
0.0
  0
LWPOLYLINE
  5
1d0
100
AcDbEntity
  8
0
 62
1
100
AcDbPolyline
 90
2
 70
0
 10
85.039346
 20
739.842312
 30
0.0
 10
85.039346
 20
790.865920
 30
0.0
  0
LWPOLYLINE
  5
1d1
100
AcDbEntity
  8
0
 62
1
100
AcDbPolyline
 90
2
 70
0
 10
85.039346
 20
796.535210
 30
0.0
 10
85.039346
 20
847.558817
 30
0.0
  0
LWPOLYLINE
  5
1d2
100
AcDbEntity
  8
0
 62
1
100
AcDbPolyline
 90
2
 70
0
 10
113.385795
 20
0.000000
 30
0.0
 10
113.385795
 20
25.511804
 30
0.0
  0
LWPOLYLINE
  5
1d3
100
AcDbEntity
  8
0
 62
1
100
AcDbPolyline
 90
2
 70
0
 10
113.385795
 20
31.181094
 30
0.0
 10
113.385795
 20
82.204701
 30
0.0
  0
LWPOLYLINE
  5
1d4
100
AcDbEntity
  8
0
 62
1
100
AcDbPolyline
 90
2
 70
0
 10
113.385795
 20
87.873991
 30
0.0
 10
113.385795
 20
138.897599
 30
0.0
  0
LWPOLYLINE
  5
1d5
100
AcDbEntity
  8
0
 62
1
100
AcDbPolyline
 90
2
 70
0
 10
113.385795
 20
144.566888
 30
0.0
 10
113.385795
 20
195.590497
 30
0.0
  0
LWPOLYLINE
  5
1d6
100
AcDbEntity
  8
0
 62
1
100
AcDbPolyline
 90
2
 70
0
 10
113.385795
 20
201.259786
 30
0.0
 10
113.385795
 20
252.283394
 30
0.0
  0
LWPOLYLINE
  5
1d7
100
AcDbEntity
  8
0
 62
1
100
AcDbPolyline
 90
2
 70
0
 10
113.385795
 20
257.952684
 30
0.0
 10
113.385795
 20
308.976291
 30
0.0
  0
LWPOLYLINE
  5
1d8
100
AcDbEntity
  8
0
 62
1
100
AcDbPolyline
 90
2
 70
0
 10
113.385795
 20
314.645581
 30
0.0
 10
113.385795
 20
365.669189
 30
0.0
  0
LWPOLYLINE
  5
1d9
100
AcDbEntity
  8
0
 62
1
100
AcDbPolyline
 90
2
 70
0
 10
113.385795
 20
371.338478
 30
0.0
 10
113.385795
 20
422.362086
 30
0.0
  0
LWPOLYLINE
  5
1da
100
AcDbEntity
  8
0
 62
1
100
AcDbPolyline
 90
2
 70
0
 10
113.385795
 20
428.031376
 30
0.0
 10
113.385795
 20
479.054983
 30
0.0
  0
LWPOLYLINE
  5
1db
100
AcDbEntity
  8
0
 62
1
100
AcDbPolyline
 90
2
 70
0
 10
113.385795
 20
484.724274
 30
0.0
 10
113.385795
 20
535.747881
 30
0.0
  0
LWPOLYLINE
  5
1dc
100
AcDbEntity
  8
0
 62
1
100
AcDbPolyline
 90
2
 70
0
 10
113.385795
 20
541.417171
 30
0.0
 10
113.385795
 20
592.440779
 30
0.0
  0
LWPOLYLINE
  5
1dd
100
AcDbEntity
  8
0
 62
1
100
AcDbPolyline
 90
2
 70
0
 10
113.385795
 20
598.110068
 30
0.0
 10
113.385795
 20
649.133676
 30
0.0
  0
LWPOLYLINE
  5
1de
100
AcDbEntity
  8
0
 62
1
100
AcDbPolyline
 90
2
 70
0
 10
113.385795
 20
654.802966
 30
0.0
 10
113.385795
 20
705.826573
 30
0.0
  0
LWPOLYLINE
  5
1df
100
AcDbEntity
  8
0
 62
1
100
AcDbPolyline
 90
2
 70
0
 10
113.385795
 20
711.495863
 30
0.0
 10
113.385795
 20
762.519471
 30
0.0
  0
LWPOLYLINE
  5
1e0
100
AcDbEntity
  8
0
 62
1
100
AcDbPolyline
 90
2
 70
0
 10
113.385795
 20
768.188760
 30
0.0
 10
113.385795
 20
819.212369
 30
0.0
  0
LWPOLYLINE
  5
1e1
100
AcDbEntity
  8
0
 62
1
100
AcDbPolyline
 90
2
 70
0
 10
113.385795
 20
824.881659
 30
0.0
 10
113.385795
 20
850.393462
 30
0.0
  0
LWPOLYLINE
  5
1e2
100
AcDbEntity
  8
0
 62
1
100
AcDbPolyline
 90
2
 70
0
 10
141.732244
 20
2.834645
 30
0.0
 10
141.732244
 20
53.858253
 30
0.0
  0
LWPOLYLINE
  5
1e3
100
AcDbEntity
  8
0
 62
1
100
AcDbPolyline
 90
2
 70
0
 10
141.732244
 20
59.527543
 30
0.0
 10
141.732244
 20
110.551150
 30
0.0
  0
LWPOLYLINE
  5
1e4
100
AcDbEntity
  8
0
 62
1
100
AcDbPolyline
 90
2
 70
0
 10
141.732244
 20
116.220440
 30
0.0
 10
141.732244
 20
167.244048
 30
0.0
  0
LWPOLYLINE
  5
1e5
100
AcDbEntity
  8
0
 62
1
100
AcDbPolyline
 90
2
 70
0
 10
141.732244
 20
172.913337
 30
0.0
 10
141.732244
 20
223.936945
 30
0.0
  0
LWPOLYLINE
  5
1e6
100
AcDbEntity
  8
0
 62
1
100
AcDbPolyline
 90
2
 70
0
 10
141.732244
 20
229.606235
 30
0.0
 10
141.732244
 20
280.629842
 30
0.0
  0
LWPOLYLINE
  5
1e7
100
AcDbEntity
  8
0
 62
1
100
AcDbPolyline
 90
2
 70
0
 10
141.732244
 20
286.299132
 30
0.0
 10
141.732244
 20
337.322740
 30
0.0
  0
LWPOLYLINE
  5
1e8
100
AcDbEntity
  8
0
 62
1
100
AcDbPolyline
 90
2
 70
0
 10
141.732244
 20
342.992030
 30
0.0
 10
141.732244
 20
394.015638
 30
0.0
  0
LWPOLYLINE
  5
1e9
100
AcDbEntity
  8
0
 62
1
100
AcDbPolyline
 90
2
 70
0
 10
141.732244
 20
399.684927
 30
0.0
 10
141.732244
 20
450.708535
 30
0.0
  0
LWPOLYLINE
  5
1ea
100
AcDbEntity
  8
0
 62
1
100
AcDbPolyline
 90
2
 70
0
 10
141.732244
 20
456.377825
 30
0.0
 10
141.732244
 20
507.401432
 30
0.0
  0
LWPOLYLINE
  5
1eb
100
AcDbEntity
  8
0
 62
1
100
AcDbPolyline
 90
2
 70
0
 10
141.732244
 20
513.070722
 30
0.0
 10
141.732244
 20
564.094330
 30
0.0
  0
LWPOLYLINE
  5
1ec
100
AcDbEntity
  8
0
 62
1
100
AcDbPolyline
 90
2
 70
0
 10
141.732244
 20
569.763619
 30
0.0
 10
141.732244
 20
620.787227
 30
0.0
  0
LWPOLYLINE
  5
1ed
100
AcDbEntity
  8
0
 62
1
100
AcDbPolyline
 90
2
 70
0
 10
141.732244
 20
626.456518
 30
0.0
 10
141.732244
 20
677.480125
 30
0.0
  0
LWPOLYLINE
  5
1ee
100
AcDbEntity
  8
0
 62
1
100
AcDbPolyline
 90
2
 70
0
 10
141.732244
 20
683.149415
 30
0.0
 10
141.732244
 20
734.173023
 30
0.0
  0
LWPOLYLINE
  5
1ef
100
AcDbEntity
  8
0
 62
1
100
AcDbPolyline
 90
2
 70
0
 10
141.732244
 20
739.842312
 30
0.0
 10
141.732244
 20
790.865920
 30
0.0
  0
LWPOLYLINE
  5
1f0
100
AcDbEntity
  8
0
 62
1
100
AcDbPolyline
 90
2
 70
0
 10
141.732244
 20
796.535210
 30
0.0
 10
141.732244
 20
847.558817
 30
0.0
  0
LWPOLYLINE
  5
1f1
100
AcDbEntity
  8
0
 62
1
100
AcDbPolyline
 90
2
 70
0
 10
170.078693
 20
0.000000
 30
0.0
 10
170.078693
 20
25.511804
 30
0.0
  0
LWPOLYLINE
  5
1f2
100
AcDbEntity
  8
0
 62
1
100
AcDbPolyline
 90
2
 70
0
 10
170.078693
 20
31.181094
 30
0.0
 10
170.078693
 20
82.204701
 30
0.0
  0
LWPOLYLINE
  5
1f3
100
AcDbEntity
  8
0
 62
1
100
AcDbPolyline
 90
2
 70
0
 10
170.078693
 20
87.873991
 30
0.0
 10
170.078693
 20
138.897599
 30
0.0
  0
LWPOLYLINE
  5
1f4
100
AcDbEntity
  8
0
 62
1
100
AcDbPolyline
 90
2
 70
0
 10
170.078693
 20
144.566888
 30
0.0
 10
170.078693
 20
195.590497
 30
0.0
  0
LWPOLYLINE
  5
1f5
100
AcDbEntity
  8
0
 62
1
100
AcDbPolyline
 90
2
 70
0
 10
170.078693
 20
201.259786
 30
0.0
 10
170.078693
 20
252.283394
 30
0.0
  0
LWPOLYLINE
  5
1f6
100
AcDbEntity
  8
0
 62
1
100
AcDbPolyline
 90
2
 70
0
 10
170.078693
 20
257.952684
 30
0.0
 10
170.078693
 20
308.976291
 30
0.0
  0
LWPOLYLINE
  5
1f7
100
AcDbEntity
  8
0
 62
1
100
AcDbPolyline
 90
2
 70
0
 10
170.078693
 20
314.645581
 30
0.0
 10
170.078693
 20
365.669189
 30
0.0
  0
LWPOLYLINE
  5
1f8
100
AcDbEntity
  8
0
 62
1
100
AcDbPolyline
 90
2
 70
0
 10
170.078693
 20
371.338478
 30
0.0
 10
170.078693
 20
422.362086
 30
0.0
  0
LWPOLYLINE
  5
1f9
100
AcDbEntity
  8
0
 62
1
100
AcDbPolyline
 90
2
 70
0
 10
170.078693
 20
428.031376
 30
0.0
 10
170.078693
 20
479.054983
 30
0.0
  0
LWPOLYLINE
  5
1fa
100
AcDbEntity
  8
0
 62
1
100
AcDbPolyline
 90
2
 70
0
 10
170.078693
 20
484.724274
 30
0.0
 10
170.078693
 20
535.747881
 30
0.0
  0
LWPOLYLINE
  5
1fb
100
AcDbEntity
  8
0
 62
1
100
AcDbPolyline
 90
2
 70
0
 10
170.078693
 20
541.417171
 30
0.0
 10
170.078693
 20
592.440779
 30
0.0
  0
LWPOLYLINE
  5
1fc
100
AcDbEntity
  8
0
 62
1
100
AcDbPolyline
 90
2
 70
0
 10
170.078693
 20
598.110068
 30
0.0
 10
170.078693
 20
649.133676
 30
0.0
  0
LWPOLYLINE
  5
1fd
100
AcDbEntity
  8
0
 62
1
100
AcDbPolyline
 90
2
 70
0
 10
170.078693
 20
654.802966
 30
0.0
 10
170.078693
 20
705.826573
 30
0.0
  0
LWPOLYLINE
  5
1fe
100
AcDbEntity
  8
0
 62
1
100
AcDbPolyline
 90
2
 70
0
 10
170.078693
 20
711.495863
 30
0.0
 10
170.078693
 20
762.519471
 30
0.0
  0
LWPOLYLINE
  5
1ff
100
AcDbEntity
  8
0
 62
1
100
AcDbPolyline
 90
2
 70
0
 10
170.078693
 20
768.188760
 30
0.0
 10
170.078693
 20
819.212369
 30
0.0
  0
LWPOLYLINE
  5
200
100
AcDbEntity
  8
0
 62
1
100
AcDbPolyline
 90
2
 70
0
 10
170.078693
 20
824.881659
 30
0.0
 10
170.078693
 20
850.393462
 30
0.0
  0
LWPOLYLINE
  5
201
100
AcDbEntity
  8
0
 62
1
100
AcDbPolyline
 90
2
 70
0
 10
198.425141
 20
2.834645
 30
0.0
 10
198.425141
 20
53.858253
 30
0.0
  0
LWPOLYLINE
  5
202
100
AcDbEntity
  8
0
 62
1
100
AcDbPolyline
 90
2
 70
0
 10
198.425141
 20
59.527543
 30
0.0
 10
198.425141
 20
110.551150
 30
0.0
  0
LWPOLYLINE
  5
203
100
AcDbEntity
  8
0
 62
1
100
AcDbPolyline
 90
2
 70
0
 10
198.425141
 20
116.220440
 30
0.0
 10
198.425141
 20
167.244048
 30
0.0
  0
LWPOLYLINE
  5
204
100
AcDbEntity
  8
0
 62
1
100
AcDbPolyline
 90
2
 70
0
 10
198.425141
 20
172.913337
 30
0.0
 10
198.425141
 20
223.936945
 30
0.0
  0
LWPOLYLINE
  5
205
100
AcDbEntity
  8
0
 62
1
100
AcDbPolyline
 90
2
 70
0
 10
198.425141
 20
229.606235
 30
0.0
 10
198.425141
 20
280.629842
 30
0.0
  0
LWPOLYLINE
  5
206
100
AcDbEntity
  8
0
 62
1
100
AcDbPolyline
 90
2
 70
0
 10
198.425141
 20
286.299132
 30
0.0
 10
198.425141
 20
337.322740
 30
0.0
  0
LWPOLYLINE
  5
207
100
AcDbEntity
  8
0
 62
1
100
AcDbPolyline
 90
2
 70
0
 10
198.425141
 20
342.992030
 30
0.0
 10
198.425141
 20
394.015638
 30
0.0
  0
LWPOLYLINE
  5
208
100
AcDbEntity
  8
0
 62
1
100
AcDbPolyline
 90
2
 70
0
 10
198.425141
 20
399.684927
 30
0.0
 10
198.425141
 20
450.708535
 30
0.0
  0
LWPOLYLINE
  5
209
100
AcDbEntity
  8
0
 62
1
100
AcDbPolyline
 90
2
 70
0
 10
198.425141
 20
456.377825
 30
0.0
 10
198.425141
 20
507.401432
 30
0.0
  0
LWPOLYLINE
  5
20a
100
AcDbEntity
  8
0
 62
1
100
AcDbPolyline
 90
2
 70
0
 10
198.425141
 20
513.070722
 30
0.0
 10
198.425141
 20
564.094330
 30
0.0
  0
LWPOLYLINE
  5
20b
100
AcDbEntity
  8
0
 62
1
100
AcDbPolyline
 90
2
 70
0
 10
198.425141
 20
569.763619
 30
0.0
 10
198.425141
 20
620.787227
 30
0.0
  0
LWPOLYLINE
  5
20c
100
AcDbEntity
  8
0
 62
1
100
AcDbPolyline
 90
2
 70
0
 10
198.425141
 20
626.456518
 30
0.0
 10
198.425141
 20
677.480125
 30
0.0
  0
LWPOLYLINE
  5
20d
100
AcDbEntity
  8
0
 62
1
100
AcDbPolyline
 90
2
 70
0
 10
198.425141
 20
683.149415
 30
0.0
 10
198.425141
 20
734.173023
 30
0.0
  0
LWPOLYLINE
  5
20e
100
AcDbEntity
  8
0
 62
1
100
AcDbPolyline
 90
2
 70
0
 10
198.425141
 20
739.842312
 30
0.0
 10
198.425141
 20
790.865920
 30
0.0
  0
LWPOLYLINE
  5
20f
100
AcDbEntity
  8
0
 62
1
100
AcDbPolyline
 90
2
 70
0
 10
198.425141
 20
796.535210
 30
0.0
 10
198.425141
 20
847.558817
 30
0.0
  0
LWPOLYLINE
  5
210
100
AcDbEntity
  8
0
 62
1
100
AcDbPolyline
 90
2
 70
0
 10
226.771590
 20
0.000000
 30
0.0
 10
226.771590
 20
25.511804
 30
0.0
  0
LWPOLYLINE
  5
211
100
AcDbEntity
  8
0
 62
1
100
AcDbPolyline
 90
2
 70
0
 10
226.771590
 20
31.181094
 30
0.0
 10
226.771590
 20
82.204701
 30
0.0
  0
LWPOLYLINE
  5
212
100
AcDbEntity
  8
0
 62
1
100
AcDbPolyline
 90
2
 70
0
 10
226.771590
 20
87.873991
 30
0.0
 10
226.771590
 20
138.897599
 30
0.0
  0
LWPOLYLINE
  5
213
100
AcDbEntity
  8
0
 62
1
100
AcDbPolyline
 90
2
 70
0
 10
226.771590
 20
144.566888
 30
0.0
 10
226.771590
 20
195.590497
 30
0.0
  0
LWPOLYLINE
  5
214
100
AcDbEntity
  8
0
 62
1
100
AcDbPolyline
 90
2
 70
0
 10
226.771590
 20
201.259786
 30
0.0
 10
226.771590
 20
252.283394
 30
0.0
  0
LWPOLYLINE
  5
215
100
AcDbEntity
  8
0
 62
1
100
AcDbPolyline
 90
2
 70
0
 10
226.771590
 20
257.952684
 30
0.0
 10
226.771590
 20
308.976291
 30
0.0
  0
LWPOLYLINE
  5
216
100
AcDbEntity
  8
0
 62
1
100
AcDbPolyline
 90
2
 70
0
 10
226.771590
 20
314.645581
 30
0.0
 10
226.771590
 20
365.669189
 30
0.0
  0
LWPOLYLINE
  5
217
100
AcDbEntity
  8
0
 62
1
100
AcDbPolyline
 90
2
 70
0
 10
226.771590
 20
371.338478
 30
0.0
 10
226.771590
 20
422.362086
 30
0.0
  0
LWPOLYLINE
  5
218
100
AcDbEntity
  8
0
 62
1
100
AcDbPolyline
 90
2
 70
0
 10
226.771590
 20
428.031376
 30
0.0
 10
226.771590
 20
479.054983
 30
0.0
  0
LWPOLYLINE
  5
219
100
AcDbEntity
  8
0
 62
1
100
AcDbPolyline
 90
2
 70
0
 10
226.771590
 20
484.724274
 30
0.0
 10
226.771590
 20
535.747881
 30
0.0
  0
LWPOLYLINE
  5
21a
100
AcDbEntity
  8
0
 62
1
100
AcDbPolyline
 90
2
 70
0
 10
226.771590
 20
541.417171
 30
0.0
 10
226.771590
 20
592.440779
 30
0.0
  0
LWPOLYLINE
  5
21b
100
AcDbEntity
  8
0
 62
1
100
AcDbPolyline
 90
2
 70
0
 10
226.771590
 20
598.110068
 30
0.0
 10
226.771590
 20
649.133676
 30
0.0
  0
LWPOLYLINE
  5
21c
100
AcDbEntity
  8
0
 62
1
100
AcDbPolyline
 90
2
 70
0
 10
226.771590
 20
654.802966
 30
0.0
 10
226.771590
 20
705.826573
 30
0.0
  0
LWPOLYLINE
  5
21d
100
AcDbEntity
  8
0
 62
1
100
AcDbPolyline
 90
2
 70
0
 10
226.771590
 20
711.495863
 30
0.0
 10
226.771590
 20
762.519471
 30
0.0
  0
LWPOLYLINE
  5
21e
100
AcDbEntity
  8
0
 62
1
100
AcDbPolyline
 90
2
 70
0
 10
226.771590
 20
768.188760
 30
0.0
 10
226.771590
 20
819.212369
 30
0.0
  0
LWPOLYLINE
  5
21f
100
AcDbEntity
  8
0
 62
1
100
AcDbPolyline
 90
2
 70
0
 10
226.771590
 20
824.881659
 30
0.0
 10
226.771590
 20
850.393462
 30
0.0
  0
LWPOLYLINE
  5
220
100
AcDbEntity
  8
0
 62
1
100
AcDbPolyline
 90
2
 70
0
 10
255.118038
 20
2.834645
 30
0.0
 10
255.118038
 20
53.858253
 30
0.0
  0
LWPOLYLINE
  5
221
100
AcDbEntity
  8
0
 62
1
100
AcDbPolyline
 90
2
 70
0
 10
255.118038
 20
59.527543
 30
0.0
 10
255.118038
 20
110.551150
 30
0.0
  0
LWPOLYLINE
  5
222
100
AcDbEntity
  8
0
 62
1
100
AcDbPolyline
 90
2
 70
0
 10
255.118038
 20
116.220440
 30
0.0
 10
255.118038
 20
167.244048
 30
0.0
  0
LWPOLYLINE
  5
223
100
AcDbEntity
  8
0
 62
1
100
AcDbPolyline
 90
2
 70
0
 10
255.118038
 20
172.913337
 30
0.0
 10
255.118038
 20
223.936945
 30
0.0
  0
LWPOLYLINE
  5
224
100
AcDbEntity
  8
0
 62
1
100
AcDbPolyline
 90
2
 70
0
 10
255.118038
 20
229.606235
 30
0.0
 10
255.118038
 20
280.629842
 30
0.0
  0
LWPOLYLINE
  5
225
100
AcDbEntity
  8
0
 62
1
100
AcDbPolyline
 90
2
 70
0
 10
255.118038
 20
286.299132
 30
0.0
 10
255.118038
 20
337.322740
 30
0.0
  0
LWPOLYLINE
  5
226
100
AcDbEntity
  8
0
 62
1
100
AcDbPolyline
 90
2
 70
0
 10
255.118038
 20
342.992030
 30
0.0
 10
255.118038
 20
394.015638
 30
0.0
  0
LWPOLYLINE
  5
227
100
AcDbEntity
  8
0
 62
1
100
AcDbPolyline
 90
2
 70
0
 10
255.118038
 20
399.684927
 30
0.0
 10
255.118038
 20
450.708535
 30
0.0
  0
LWPOLYLINE
  5
228
100
AcDbEntity
  8
0
 62
1
100
AcDbPolyline
 90
2
 70
0
 10
255.118038
 20
456.377825
 30
0.0
 10
255.118038
 20
507.401432
 30
0.0
  0
LWPOLYLINE
  5
229
100
AcDbEntity
  8
0
 62
1
100
AcDbPolyline
 90
2
 70
0
 10
255.118038
 20
513.070722
 30
0.0
 10
255.118038
 20
564.094330
 30
0.0
  0
LWPOLYLINE
  5
22a
100
AcDbEntity
  8
0
 62
1
100
AcDbPolyline
 90
2
 70
0
 10
255.118038
 20
569.763619
 30
0.0
 10
255.118038
 20
620.787227
 30
0.0
  0
LWPOLYLINE
  5
22b
100
AcDbEntity
  8
0
 62
1
100
AcDbPolyline
 90
2
 70
0
 10
255.118038
 20
626.456518
 30
0.0
 10
255.118038
 20
677.480125
 30
0.0
  0
LWPOLYLINE
  5
22c
100
AcDbEntity
  8
0
 62
1
100
AcDbPolyline
 90
2
 70
0
 10
255.118038
 20
683.149415
 30
0.0
 10
255.118038
 20
734.173023
 30
0.0
  0
LWPOLYLINE
  5
22d
100
AcDbEntity
  8
0
 62
1
100
AcDbPolyline
 90
2
 70
0
 10
255.118038
 20
739.842312
 30
0.0
 10
255.118038
 20
790.865920
 30
0.0
  0
LWPOLYLINE
  5
22e
100
AcDbEntity
  8
0
 62
1
100
AcDbPolyline
 90
2
 70
0
 10
255.118038
 20
796.535210
 30
0.0
 10
255.118038
 20
847.558817
 30
0.0
  0
ENDSEC
  0
SECTION
  2
OBJECTS
  0
DICTIONARY
  5
C
330
0
100
AcDbDictionary
  3
ACAD_GROUP
350
D
  3
ACAD_MLINESTYLE
350
17
  0
DICTIONARY
  5
D
330
C
100
AcDbDictionary
  0
DICTIONARY
  5
1A
330
C
100
AcDbDictionary
  0
DICTIONARY
  5
17
330
C
100
AcDbDictionary
  3
STANDARD
350
18
  0
DICTIONARY
  5
19
330
C
100
AcDbDictionary
  0
ENDSEC
  0
EOF
