999
"DXF R12 Output" (www.mydxf.blogspot.com)
 0 
SECTION
 2 
HEADER
 9 
$ACADVER
 1 
AC1009
 9 
$EXTMIN
 10 
 0 
 20 
 0 
 9 
$EXTMAX
 10 
 8.5 
 20 
 11 
 0 
ENDSEC
 0 
SECTION
 2 
ENTITIES
0
LINE
8
Layer 1
10
0.846666
20
427.514000
11
-0.846666
21
425.820000
0
LINE
8
Layer 1
10
0.000000
20
428.078000
11
0.000000
21
425.256000
0
LINE
8
Layer 1
10
2.257780
20
425.538000
11
1.128890
21
424.409110
0
LINE
8
Layer 1
10
1.693330
20
426.103000
11
0.564440
21
424.974110
0
LINE
8
Layer 1
10
1.128890
20
426.667000
11
0.000000
21
425.538110
0
LINE
8
0
10
46.943600
20
13.647700
11
153.610000
21
13.647700
0
LINE
8
0
10
46.943600
20
13.647700
11
46.943600
21
376.314000
0
LINE
8
0
10
153.610000
20
13.647700
11
153.610000
21
376.314000
0
LINE
8
0
10
46.943600
20
376.314000
11
153.610000
21
376.314000
0
LINE
8
0
10
46.943600
20
45.647600
11
57.077000
21
45.647600
0
LINE
8
0
10
58.143600
20
45.647600
11
78.410300
21
45.647600
0
LINE
8
0
10
79.476900
20
45.647600
11
99.743600
21
45.647600
0
LINE
8
0
10
100.810000
20
45.647600
11
121.077000
21
45.647600
0
LINE
8
0
10
122.144000
20
45.647600
11
142.410000
21
45.647600
0
LINE
8
0
10
143.477000
20
45.647600
11
153.610000
21
45.647600
0
LINE
8
0
10
46.943600
20
56.314300
11
67.743600
21
56.314300
0
LINE
8
0
10
68.810300
20
56.314300
11
110.410000
21
56.314300
0
LINE
8
0
10
111.477000
20
56.314300
11
153.077000
21
56.314300
0
LINE
8
0
10
46.943600
20
66.980900
11
57.077000
21
66.980900
0
LINE
8
0
10
58.143600
20
66.980900
11
78.410300
21
66.980900
0
LINE
8
0
10
79.476900
20
66.980900
11
99.743600
21
66.980900
0
LINE
8
0
10
100.810000
20
66.980900
11
121.077000
21
66.980900
0
LINE
8
0
10
122.144000
20
66.980900
11
142.410000
21
66.980900
0
LINE
8
0
10
143.477000
20
66.980900
11
153.610000
21
66.980900
0
LINE
8
0
10
47.477000
20
77.647600
11
89.076900
21
77.647600
0
LINE
8
0
10
90.143600
20
77.647600
11
131.744000
21
77.647600
0
LINE
8
0
10
132.810000
20
77.647600
11
153.610000
21
77.647600
0
LINE
8
0
10
46.943600
20
88.314300
11
57.077000
21
88.314300
0
LINE
8
0
10
58.143600
20
88.314300
11
78.410300
21
88.314300
0
LINE
8
0
10
79.476900
20
88.314300
11
99.743600
21
88.314300
0
LINE
8
0
10
100.810000
20
88.314300
11
121.077000
21
88.314300
0
LINE
8
0
10
122.144000
20
88.314300
11
142.410000
21
88.314300
0
LINE
8
0
10
143.477000
20
88.314300
11
153.610000
21
88.314300
0
LINE
8
0
10
46.943600
20
98.980900
11
67.743600
21
98.980900
0
LINE
8
0
10
68.810300
20
98.980900
11
110.410000
21
98.980900
0
LINE
8
0
10
111.477000
20
98.980900
11
153.077000
21
98.980900
0
LINE
8
0
10
46.943600
20
109.648000
11
57.077000
21
109.648000
0
LINE
8
0
10
58.143600
20
109.648000
11
78.410300
21
109.648000
0
LINE
8
0
10
79.476900
20
109.648000
11
99.743600
21
109.648000
0
LINE
8
0
10
100.810000
20
109.648000
11
121.077000
21
109.648000
0
LINE
8
0
10
122.144000
20
109.648000
11
142.410000
21
109.648000
0
LINE
8
0
10
143.477000
20
109.648000
11
153.610000
21
109.648000
0
LINE
8
0
10
47.477000
20
120.314000
11
89.076900
21
120.314000
0
LINE
8
0
10
90.143600
20
120.314000
11
131.744000
21
120.314000
0
LINE
8
0
10
132.810000
20
120.314000
11
153.610000
21
120.314000
0
LINE
8
0
10
46.943600
20
130.981000
11
57.077000
21
130.981000
0
LINE
8
0
10
58.143600
20
130.981000
11
78.410300
21
130.981000
0
LINE
8
0
10
79.476900
20
130.981000
11
99.743600
21
130.981000
0
LINE
8
0
10
100.810000
20
130.981000
11
121.077000
21
130.981000
0
LINE
8
0
10
122.144000
20
130.981000
11
142.410000
21
130.981000
0
LINE
8
0
10
143.477000
20
130.981000
11
153.610000
21
130.981000
0
LINE
8
0
10
46.943600
20
141.648000
11
67.743600
21
141.648000
0
LINE
8
0
10
68.810300
20
141.648000
11
110.410000
21
141.648000
0
LINE
8
0
10
111.477000
20
141.648000
11
153.077000
21
141.648000
0
LINE
8
0
10
46.943600
20
152.314000
11
57.077000
21
152.314000
0
LINE
8
0
10
58.143600
20
152.314000
11
78.410300
21
152.314000
0
LINE
8
0
10
79.476900
20
152.314000
11
99.743600
21
152.314000
0
LINE
8
0
10
100.810000
20
152.314000
11
121.077000
21
152.314000
0
LINE
8
0
10
122.144000
20
152.314000
11
142.410000
21
152.314000
0
LINE
8
0
10
143.477000
20
152.314000
11
153.610000
21
152.314000
0
LINE
8
0
10
47.477000
20
162.981000
11
89.076900
21
162.981000
0
LINE
8
0
10
90.143600
20
162.981000
11
131.744000
21
162.981000
0
LINE
8
0
10
132.810000
20
162.981000
11
153.610000
21
162.981000
0
LINE
8
0
10
46.943600
20
173.648000
11
57.077000
21
173.648000
0
LINE
8
0
10
58.143600
20
173.648000
11
78.410300
21
173.648000
0
LINE
8
0
10
79.476900
20
173.648000
11
99.743600
21
173.648000
0
LINE
8
0
10
100.810000
20
173.648000
11
121.077000
21
173.648000
0
LINE
8
0
10
122.144000
20
173.648000
11
142.410000
21
173.648000
0
LINE
8
0
10
143.477000
20
173.648000
11
153.610000
21
173.648000
0
LINE
8
0
10
46.943600
20
184.314000
11
67.743600
21
184.314000
0
LINE
8
0
10
68.810300
20
184.314000
11
110.410000
21
184.314000
0
LINE
8
0
10
111.477000
20
184.314000
11
153.077000
21
184.314000
0
LINE
8
0
10
46.943600
20
194.981000
11
57.077000
21
194.981000
0
LINE
8
0
10
58.143600
20
194.981000
11
78.410300
21
194.981000
0
LINE
8
0
10
79.476900
20
194.981000
11
99.743600
21
194.981000
0
LINE
8
0
10
100.810000
20
194.981000
11
121.077000
21
194.981000
0
LINE
8
0
10
122.144000
20
194.981000
11
142.410000
21
194.981000
0
LINE
8
0
10
143.477000
20
194.981000
11
153.610000
21
194.981000
0
LINE
8
0
10
47.477000
20
205.647000
11
89.076900
21
205.647000
0
LINE
8
0
10
90.143600
20
205.647000
11
131.744000
21
205.647000
0
LINE
8
0
10
132.810000
20
205.647000
11
153.610000
21
205.647000
0
LINE
8
0
10
46.943600
20
216.314000
11
57.077000
21
216.314000
0
LINE
8
0
10
58.143600
20
216.314000
11
78.410300
21
216.314000
0
LINE
8
0
10
79.476900
20
216.314000
11
99.743600
21
216.314000
0
LINE
8
0
10
100.810000
20
216.314000
11
121.077000
21
216.314000
0
LINE
8
0
10
122.144000
20
216.314000
11
142.410000
21
216.314000
0
LINE
8
0
10
143.477000
20
216.314000
11
153.610000
21
216.314000
0
LINE
8
0
10
46.943600
20
226.981000
11
67.743600
21
226.981000
0
LINE
8
0
10
68.810300
20
226.981000
11
110.410000
21
226.981000
0
LINE
8
0
10
111.477000
20
226.981000
11
153.077000
21
226.981000
0
LINE
8
0
10
46.943600
20
237.647000
11
57.077000
21
237.647000
0
LINE
8
0
10
58.143600
20
237.647000
11
78.410300
21
237.647000
0
LINE
8
0
10
79.476900
20
237.647000
11
99.743600
21
237.647000
0
LINE
8
0
10
100.810000
20
237.647000
11
121.077000
21
237.647000
0
LINE
8
0
10
122.144000
20
237.647000
11
142.410000
21
237.647000
0
LINE
8
0
10
143.477000
20
237.647000
11
153.610000
21
237.647000
0
LINE
8
0
10
47.477000
20
248.314000
11
89.076900
21
248.314000
0
LINE
8
0
10
90.143600
20
248.314000
11
131.744000
21
248.314000
0
LINE
8
0
10
132.810000
20
248.314000
11
153.610000
21
248.314000
0
LINE
8
0
10
46.943600
20
258.981000
11
57.077000
21
258.981000
0
LINE
8
0
10
58.143600
20
258.981000
11
78.410300
21
258.981000
0
LINE
8
0
10
79.476900
20
258.981000
11
99.743600
21
258.981000
0
LINE
8
0
10
100.810000
20
258.981000
11
121.077000
21
258.981000
0
LINE
8
0
10
122.144000
20
258.981000
11
142.410000
21
258.981000
0
LINE
8
0
10
143.477000
20
258.981000
11
153.610000
21
258.981000
0
LINE
8
0
10
46.943600
20
269.647000
11
67.743600
21
269.647000
0
LINE
8
0
10
68.810300
20
269.647000
11
110.410000
21
269.647000
0
LINE
8
0
10
111.477000
20
269.647000
11
153.077000
21
269.647000
0
LINE
8
0
10
46.943600
20
280.314000
11
57.077000
21
280.314000
0
LINE
8
0
10
58.143600
20
280.314000
11
78.410300
21
280.314000
0
LINE
8
0
10
79.476900
20
280.314000
11
99.743600
21
280.314000
0
LINE
8
0
10
100.810000
20
280.314000
11
121.077000
21
280.314000
0
LINE
8
0
10
122.144000
20
280.314000
11
142.410000
21
280.314000
0
LINE
8
0
10
143.477000
20
280.314000
11
153.610000
21
280.314000
0
LINE
8
0
10
47.477000
20
290.981000
11
89.076900
21
290.981000
0
LINE
8
0
10
90.143600
20
290.981000
11
131.744000
21
290.981000
0
LINE
8
0
10
132.810000
20
290.981000
11
153.610000
21
290.981000
0
LINE
8
0
10
46.943600
20
301.647000
11
57.077000
21
301.647000
0
LINE
8
0
10
58.143600
20
301.647000
11
78.410300
21
301.647000
0
LINE
8
0
10
79.476900
20
301.647000
11
99.743600
21
301.647000
0
LINE
8
0
10
100.810000
20
301.647000
11
121.077000
21
301.647000
0
LINE
8
0
10
122.144000
20
301.647000
11
142.410000
21
301.647000
0
LINE
8
0
10
143.477000
20
301.647000
11
153.610000
21
301.647000
0
LINE
8
0
10
46.943600
20
312.314000
11
67.743600
21
312.314000
0
LINE
8
0
10
68.810300
20
312.314000
11
110.410000
21
312.314000
0
LINE
8
0
10
111.477000
20
312.314000
11
153.077000
21
312.314000
0
LINE
8
0
10
46.943600
20
322.981000
11
57.077000
21
322.981000
0
LINE
8
0
10
58.143600
20
322.981000
11
78.410300
21
322.981000
0
LINE
8
0
10
79.476900
20
322.981000
11
99.743600
21
322.981000
0
LINE
8
0
10
100.810000
20
322.981000
11
121.077000
21
322.981000
0
LINE
8
0
10
122.144000
20
322.981000
11
142.410000
21
322.981000
0
LINE
8
0
10
143.477000
20
322.981000
11
153.610000
21
322.981000
0
LINE
8
0
10
47.477000
20
333.647000
11
89.076900
21
333.647000
0
LINE
8
0
10
90.143600
20
333.647000
11
131.744000
21
333.647000
0
LINE
8
0
10
132.810000
20
333.647000
11
153.610000
21
333.647000
0
LINE
8
0
10
46.943600
20
344.314000
11
57.077000
21
344.314000
0
LINE
8
0
10
58.143600
20
344.314000
11
78.410300
21
344.314000
0
LINE
8
0
10
79.476900
20
344.314000
11
99.743600
21
344.314000
0
LINE
8
0
10
100.810000
20
344.314000
11
121.077000
21
344.314000
0
LINE
8
0
10
122.144000
20
344.314000
11
142.410000
21
344.314000
0
LINE
8
0
10
143.477000
20
344.314000
11
153.610000
21
344.314000
0
LINE
8
0
10
57.610300
20
35.514300
11
57.610300
21
55.781000
0
LINE
8
0
10
57.610300
20
56.847600
11
57.610300
21
77.114300
0
LINE
8
0
10
57.610300
20
78.180900
11
57.610300
21
98.447600
0
LINE
8
0
10
57.610300
20
99.514200
11
57.610300
21
119.781000
0
LINE
8
0
10
57.610300
20
120.848000
11
57.610300
21
141.114000
0
LINE
8
0
10
57.610300
20
142.181000
11
57.610300
21
162.448000
0
LINE
8
0
10
57.610300
20
163.514000
11
57.610300
21
183.781000
0
LINE
8
0
10
57.610300
20
184.848000
11
57.610300
21
205.114000
0
LINE
8
0
10
57.610300
20
206.181000
11
57.610300
21
226.447000
0
LINE
8
0
10
57.610300
20
227.514000
11
57.610300
21
247.781000
0
LINE
8
0
10
57.610300
20
248.847000
11
57.610300
21
269.114000
0
LINE
8
0
10
57.610300
20
270.181000
11
57.610300
21
290.447000
0
LINE
8
0
10
57.610300
20
291.514000
11
57.610300
21
311.781000
0
LINE
8
0
10
57.610300
20
312.847000
11
57.610300
21
333.114000
0
LINE
8
0
10
57.610300
20
334.181000
11
57.610300
21
354.447000
0
LINE
8
0
10
57.610300
20
355.514000
11
57.610300
21
354.981000
0
LINE
8
0
10
68.277000
20
35.514300
11
68.277000
21
77.114300
0
LINE
8
0
10
68.277000
20
78.180900
11
68.277000
21
119.781000
0
LINE
8
0
10
68.277000
20
120.848000
11
68.277000
21
162.448000
0
LINE
8
0
10
68.277000
20
163.514000
11
68.277000
21
205.114000
0
LINE
8
0
10
68.277000
20
206.181000
11
68.277000
21
247.781000
0
LINE
8
0
10
68.277000
20
248.847000
11
68.277000
21
290.447000
0
LINE
8
0
10
68.277000
20
291.514000
11
68.277000
21
333.114000
0
LINE
8
0
10
68.277000
20
334.181000
11
68.277000
21
354.981000
0
LINE
8
0
10
78.943600
20
35.514300
11
78.943600
21
55.781000
0
LINE
8
0
10
78.943600
20
56.847600
11
78.943600
21
77.114300
0
LINE
8
0
10
78.943600
20
78.180900
11
78.943600
21
98.447600
0
LINE
8
0
10
78.943600
20
99.514200
11
78.943600
21
119.781000
0
LINE
8
0
10
78.943600
20
120.848000
11
78.943600
21
141.114000
0
LINE
8
0
10
78.943600
20
142.181000
11
78.943600
21
162.448000
0
LINE
8
0
10
78.943600
20
163.514000
11
78.943600
21
183.781000
0
LINE
8
0
10
78.943600
20
184.848000
11
78.943600
21
205.114000
0
LINE
8
0
10
78.943600
20
206.181000
11
78.943600
21
226.447000
0
LINE
8
0
10
78.943600
20
227.514000
11
78.943600
21
247.781000
0
LINE
8
0
10
78.943600
20
248.847000
11
78.943600
21
269.114000
0
LINE
8
0
10
78.943600
20
270.181000
11
78.943600
21
290.447000
0
LINE
8
0
10
78.943600
20
291.514000
11
78.943600
21
311.781000
0
LINE
8
0
10
78.943600
20
312.847000
11
78.943600
21
333.114000
0
LINE
8
0
10
78.943600
20
334.181000
11
78.943600
21
354.447000
0
LINE
8
0
10
78.943600
20
355.514000
11
78.943600
21
354.981000
0
LINE
8
0
10
89.610300
20
34.981000
11
89.610300
21
55.781000
0
LINE
8
0
10
89.610300
20
56.847600
11
89.610300
21
98.447600
0
LINE
8
0
10
89.610300
20
99.514200
11
89.610300
21
141.114000
0
LINE
8
0
10
89.610300
20
142.181000
11
89.610300
21
183.781000
0
LINE
8
0
10
89.610300
20
184.848000
11
89.610300
21
226.447000
0
LINE
8
0
10
89.610300
20
227.514000
11
89.610300
21
269.114000
0
LINE
8
0
10
89.610300
20
270.181000
11
89.610300
21
311.781000
0
LINE
8
0
10
89.610300
20
312.847000
11
89.610300
21
354.447000
0
LINE
8
0
10
100.277000
20
35.514300
11
100.277000
21
55.781000
0
LINE
8
0
10
100.277000
20
56.847600
11
100.277000
21
77.114300
0
LINE
8
0
10
100.277000
20
78.180900
11
100.277000
21
98.447600
0
LINE
8
0
10
100.277000
20
99.514200
11
100.277000
21
119.781000
0
LINE
8
0
10
100.277000
20
120.848000
11
100.277000
21
141.114000
0
LINE
8
0
10
100.277000
20
142.181000
11
100.277000
21
162.448000
0
LINE
8
0
10
100.277000
20
163.514000
11
100.277000
21
183.781000
0
LINE
8
0
10
100.277000
20
184.848000
11
100.277000
21
205.114000
0
LINE
8
0
10
100.277000
20
206.181000
11
100.277000
21
226.447000
0
LINE
8
0
10
100.277000
20
227.514000
11
100.277000
21
247.781000
0
LINE
8
0
10
100.277000
20
248.847000
11
100.277000
21
269.114000
0
LINE
8
0
10
100.277000
20
270.181000
11
100.277000
21
290.447000
0
LINE
8
0
10
100.277000
20
291.514000
11
100.277000
21
311.781000
0
LINE
8
0
10
100.277000
20
312.847000
11
100.277000
21
333.114000
0
LINE
8
0
10
100.277000
20
334.181000
11
100.277000
21
354.447000
0
LINE
8
0
10
100.277000
20
355.514000
11
100.277000
21
354.981000
0
LINE
8
0
10
110.944000
20
35.514300
11
110.944000
21
77.114300
0
LINE
8
0
10
110.944000
20
78.180900
11
110.944000
21
119.781000
0
LINE
8
0
10
110.944000
20
120.848000
11
110.944000
21
162.448000
0
LINE
8
0
10
110.944000
20
163.514000
11
110.944000
21
205.114000
0
LINE
8
0
10
110.944000
20
206.181000
11
110.944000
21
247.781000
0
LINE
8
0
10
110.944000
20
248.847000
11
110.944000
21
290.447000
0
LINE
8
0
10
110.944000
20
291.514000
11
110.944000
21
333.114000
0
LINE
8
0
10
110.944000
20
334.181000
11
110.944000
21
354.981000
0
LINE
8
0
10
121.610000
20
35.514300
11
121.610000
21
55.781000
0
LINE
8
0
10
121.610000
20
56.847600
11
121.610000
21
77.114300
0
LINE
8
0
10
121.610000
20
78.180900
11
121.610000
21
98.447600
0
LINE
8
0
10
121.610000
20
99.514200
11
121.610000
21
119.781000
0
LINE
8
0
10
121.610000
20
120.848000
11
121.610000
21
141.114000
0
LINE
8
0
10
121.610000
20
142.181000
11
121.610000
21
162.448000
0
LINE
8
0
10
121.610000
20
163.514000
11
121.610000
21
183.781000
0
LINE
8
0
10
121.610000
20
184.848000
11
121.610000
21
205.114000
0
LINE
8
0
10
121.610000
20
206.181000
11
121.610000
21
226.447000
0
LINE
8
0
10
121.610000
20
227.514000
11
121.610000
21
247.781000
0
LINE
8
0
10
121.610000
20
248.847000
11
121.610000
21
269.114000
0
LINE
8
0
10
121.610000
20
270.181000
11
121.610000
21
290.447000
0
LINE
8
0
10
121.610000
20
291.514000
11
121.610000
21
311.781000
0
LINE
8
0
10
121.610000
20
312.847000
11
121.610000
21
333.114000
0
LINE
8
0
10
121.610000
20
334.181000
11
121.610000
21
354.447000
0
LINE
8
0
10
121.610000
20
355.514000
11
121.610000
21
354.981000
0
LINE
8
0
10
132.277000
20
34.981000
11
132.277000
21
55.781000
0
LINE
8
0
10
132.277000
20
56.847600
11
132.277000
21
98.447600
0
LINE
8
0
10
132.277000
20
99.514200
11
132.277000
21
141.114000
0
LINE
8
0
10
132.277000
20
142.181000
11
132.277000
21
183.781000
0
LINE
8
0
10
132.277000
20
184.848000
11
132.277000
21
226.447000
0
LINE
8
0
10
132.277000
20
227.514000
11
132.277000
21
269.114000
0
LINE
8
0
10
132.277000
20
270.181000
11
132.277000
21
311.781000
0
LINE
8
0
10
132.277000
20
312.847000
11
132.277000
21
354.447000
0
LINE
8
0
10
142.944000
20
35.514300
11
142.944000
21
55.781000
0
LINE
8
0
10
142.944000
20
56.847600
11
142.944000
21
77.114300
0
LINE
8
0
10
142.944000
20
78.180900
11
142.944000
21
98.447600
0
LINE
8
0
10
142.944000
20
99.514200
11
142.944000
21
119.781000
0
LINE
8
0
10
142.944000
20
120.848000
11
142.944000
21
141.114000
0
LINE
8
0
10
142.944000
20
142.181000
11
142.944000
21
162.448000
0
LINE
8
0
10
142.944000
20
163.514000
11
142.944000
21
183.781000
0
LINE
8
0
10
142.944000
20
184.848000
11
142.944000
21
205.114000
0
LINE
8
0
10
142.944000
20
206.181000
11
142.944000
21
226.447000
0
LINE
8
0
10
142.944000
20
227.514000
11
142.944000
21
247.781000
0
LINE
8
0
10
142.944000
20
248.847000
11
142.944000
21
269.114000
0
LINE
8
0
10
142.944000
20
270.181000
11
142.944000
21
290.447000
0
LINE
8
0
10
142.944000
20
291.514000
11
142.944000
21
311.781000
0
LINE
8
0
10
142.944000
20
312.847000
11
142.944000
21
333.114000
0
LINE
8
0
10
142.944000
20
334.181000
11
142.944000
21
354.447000
0
LINE
8
0
10
142.944000
20
355.514000
11
142.944000
21
354.981000
 0 
ENDSEC
 0 
EOF